<svg width="315" height="55" viewBox="0 0 315 55" fill="none" xmlns="http://www.w3.org/2000/svg">
<path d="M15.408 38.592L12.096 48.312H16.416C17.136 48.312 17.496 48.672 17.496 49.392V52.92C17.496 53.64 17.136 54 16.416 54H1.08C0.36 54 0 53.64 0 52.92V49.392C0 48.672 0.36 48.312 1.08 48.312H5.328L19.728 6.12C20.016 5.448 20.496 5.112 21.168 5.112H28.152C28.824 5.112 29.304 5.448 29.592 6.12L44.136 48.312H49.032C49.752 48.312 50.112 48.672 50.112 49.392V52.92C50.112 53.64 49.752 54 49.032 54H30.96C30.24 54 29.88 53.64 29.88 52.92V49.392C29.88 48.672 30.24 48.312 30.96 48.312H35.424L32.04 38.592H15.408ZM23.688 12.024L16.848 33.192H30.456L23.688 12.024ZM56.9108 48.312V6.264H53.0228C52.3028 6.264 51.9428 5.904 51.9428 5.184V1.368C51.9428 0.647997 52.3028 0.287996 53.0228 0.287996H63.8948C64.6148 0.287996 64.9748 0.647997 64.9748 1.368V23.76C66.1268 21.84 67.6628 20.328 69.5828 19.224C71.5508 18.12 73.6628 17.568 75.9188 17.568C80.3348 17.568 83.7908 19.032 86.2868 21.96C88.7828 24.888 90.0308 29.472 90.0308 35.712C90.0308 41.904 88.5908 46.656 85.7108 49.968C82.8788 53.232 79.1348 54.864 74.4788 54.864C71.8388 54.864 69.5348 54.408 67.5668 53.496C65.6468 52.536 64.2548 51.36 63.3908 49.968L62.9588 52.92C62.9108 53.64 62.5508 54 61.8788 54H53.0948C52.3748 54 52.0148 53.64 52.0148 52.92V49.392C52.0148 48.672 52.3748 48.312 53.0948 48.312H56.9108ZM64.9748 32.256V45C65.5508 45.864 66.6548 46.704 68.2868 47.52C69.9668 48.336 71.5988 48.744 73.1828 48.744C78.9908 48.744 81.8948 44.64 81.8948 36.432C81.8948 30.48 80.5508 26.736 77.8628 25.2C76.7108 24.528 75.1268 24.192 73.1108 24.192C71.0948 24.192 69.2228 24.936 67.4948 26.424C65.8148 27.864 64.9748 29.808 64.9748 32.256ZM95.4397 36.72C95.4397 33.12 95.9917 30 97.0957 27.36C98.1997 24.72 99.6397 22.728 101.416 21.384C104.824 18.84 108.52 17.568 112.504 17.568C115.432 17.568 117.904 18.024 119.92 18.936C121.936 19.848 123.496 20.904 124.6 22.104C125.752 23.304 126.712 25.032 127.48 27.288C128.296 29.544 128.704 32.184 128.704 35.208C128.704 41.64 127.072 46.536 123.808 49.896C120.592 53.208 116.464 54.864 111.424 54.864C106.384 54.864 102.448 53.352 99.6157 50.328C96.8317 47.256 95.4397 42.72 95.4397 36.72ZM112 48.96C114.88 48.96 116.968 47.904 118.264 45.792C119.608 43.632 120.28 40.44 120.28 36.216C120.28 31.992 119.608 28.824 118.264 26.712C116.968 24.552 114.832 23.472 111.856 23.472C106.336 23.472 103.576 27.36 103.576 35.136C103.576 44.352 106.384 48.96 112 48.96ZM168.33 48.312H171.498C172.218 48.312 172.578 48.672 172.578 49.392V52.92C172.578 53.64 172.218 54 171.498 54H163.434C162.858 54 162.498 53.64 162.354 52.92L161.706 48.888C158.634 52.872 154.602 54.864 149.61 54.864C141.834 54.864 137.946 50.784 137.946 42.624V24.264H134.13C133.41 24.264 133.05 23.904 133.05 23.184V19.44C133.05 18.72 133.41 18.36 134.13 18.36H144.93C145.65 18.36 146.01 18.72 146.01 19.44V40.464C146.01 43.344 146.37 45.408 147.09 46.656C147.858 47.856 149.442 48.456 151.842 48.456C154.29 48.456 156.306 47.736 157.89 46.296C159.474 44.856 160.266 43.224 160.266 41.4V24.264H155.73C155.01 24.264 154.65 23.904 154.65 23.184V19.44C154.65 18.72 155.01 18.36 155.73 18.36H167.25C167.97 18.36 168.33 18.72 168.33 19.44V48.312ZM189.41 24.264V42.408C189.41 44.664 189.698 46.296 190.274 47.304C190.85 48.312 191.93 48.816 193.514 48.816C195.098 48.816 196.634 48.48 198.122 47.808C198.65 47.616 199.034 47.808 199.274 48.384L200.57 51.696C200.618 51.84 200.642 52.056 200.642 52.344C200.642 52.584 200.402 52.848 199.922 53.136C197.618 54.288 194.882 54.864 191.714 54.864C187.442 54.864 184.634 53.76 183.29 51.552C182.33 50.112 181.778 48.72 181.634 47.376C181.442 45.552 181.346 43.632 181.346 41.616V24.264H177.242C176.522 24.264 176.162 23.904 176.162 23.184V19.44C176.162 18.72 176.522 18.36 177.242 18.36H181.346V8.64C181.346 7.92 181.706 7.56 182.426 7.56H188.33C189.05 7.56 189.41 7.92 189.41 8.64V18.36H196.682C197.402 18.36 197.762 18.72 197.762 19.44V23.184C197.762 23.904 197.402 24.264 196.682 24.264H189.41ZM218.614 23.184V19.44C218.614 18.72 218.974 18.36 219.694 18.36H229.558C230.182 18.36 230.542 18.72 230.638 19.44L231.214 23.616C233.71 19.584 237.454 17.568 242.446 17.568C247.438 17.568 250.726 19.68 252.31 23.904C254.902 19.68 258.67 17.568 263.614 17.568C271.054 17.568 274.774 21.648 274.774 29.808V48.312H278.878C279.598 48.312 279.958 48.672 279.958 49.392V52.92C279.958 53.64 279.598 54 278.878 54H263.038C262.318 54 261.958 53.64 261.958 52.92V49.392C261.958 48.672 262.318 48.312 263.038 48.312H266.71V33.408C266.71 30.384 266.326 28.176 265.558 26.784C264.79 25.392 263.23 24.696 260.878 24.696C258.574 24.696 256.726 25.32 255.334 26.568C253.942 27.816 253.246 29.28 253.246 30.96V48.312H256.702C257.422 48.312 257.782 48.672 257.782 49.392V52.92C257.782 53.64 257.422 54 256.702 54H241.942C241.222 54 240.862 53.64 240.862 52.92V49.392C240.862 48.672 241.222 48.312 241.942 48.312H245.182V33.408C245.182 30.384 244.798 28.176 244.03 26.784C243.262 25.392 241.678 24.696 239.278 24.696C236.926 24.696 235.054 25.416 233.662 26.856C232.318 28.248 231.646 29.88 231.646 31.752V48.312H236.038C236.758 48.312 237.118 48.672 237.118 49.392V52.92C237.118 53.64 236.758 54 236.038 54H219.766C219.046 54 218.686 53.64 218.686 52.92V49.392C218.686 48.672 219.046 48.312 219.766 48.312H223.582V24.264H219.694C218.974 24.264 218.614 23.904 218.614 23.184ZM300.529 54.864C294.817 54.864 290.617 53.208 287.929 49.896C285.289 46.536 283.969 42.12 283.969 36.648C283.969 31.128 285.385 26.568 288.217 22.968C291.049 19.368 295.129 17.568 300.457 17.568C303.097 17.568 305.353 18.072 307.225 19.08C309.145 20.04 310.609 21.36 311.617 23.04C313.537 26.304 314.497 30.072 314.497 34.344C314.497 36.36 314.401 37.464 314.209 37.656C314.017 37.848 313.657 37.944 313.129 37.944H291.961C292.201 41.4 293.041 44.088 294.481 46.008C295.969 47.88 298.513 48.816 302.113 48.816C304.753 48.816 307.465 48.192 310.249 46.944C310.921 46.608 311.401 46.8 311.689 47.52L313.057 50.832C313.297 51.408 313.081 51.888 312.409 52.272C309.241 54 305.281 54.864 300.529 54.864ZM291.961 32.616H306.937C307.033 26.616 304.681 23.616 299.881 23.616C297.049 23.616 295.033 24.528 293.833 26.352C292.681 28.128 292.057 30.216 291.961 32.616Z" fill="#FF6B00"/>
</svg>
