<svg width="192" height="24" viewBox="0 0 192 24" fill="none" xmlns="http://www.w3.org/2000/svg">
<path d="M0.585227 23.4558H5.50568V13.8422H14.9716V9.78536H5.50568V4.2399H15.9943V0.183083H0.585227V23.4558ZM18.9318 23.4558H23.7727V13.5808C23.7727 11.4331 25.3409 9.95581 27.4773 9.95581C28.1477 9.95581 29.0682 10.0694 29.5227 10.2172V5.92172C29.0909 5.81945 28.4886 5.75126 28 5.75126C26.0455 5.75126 24.4432 6.88763 23.8068 9.04672H23.625V6.00126H18.9318V23.4558ZM36.5028 23.7854C39.0824 23.7854 40.7528 22.6604 41.6051 21.0354H41.7415V23.4558H46.3324V11.6831C46.3324 7.52399 42.8097 5.77399 38.9233 5.77399C34.7415 5.77399 31.9915 7.77399 31.321 10.9558L35.7983 11.3194C36.1278 10.1604 37.1619 9.30808 38.9006 9.30808C40.5483 9.30808 41.4915 10.1376 41.4915 11.5694V11.6376C41.4915 12.7626 40.2983 12.9104 37.2642 13.2058C33.8097 13.524 30.7074 14.6831 30.7074 18.5808C30.7074 22.0354 33.1733 23.7854 36.5028 23.7854ZM37.8892 20.4444C36.4006 20.4444 35.3324 19.7513 35.3324 18.4217C35.3324 17.0581 36.4574 16.3876 38.1619 16.149C39.2188 16.0013 40.946 15.7513 41.5256 15.3649V17.2172C41.5256 19.0467 40.0142 20.4444 37.8892 20.4444ZM50.0881 23.4558H54.929V12.9785C54.929 11.0467 56.1562 9.76263 57.7699 9.76263C59.3608 9.76263 60.429 10.8535 60.429 12.5694V23.4558H65.1222V12.7967C65.1222 10.9899 66.1562 9.76263 67.9176 9.76263C69.4631 9.76263 70.6222 10.7285 70.6222 12.6717V23.4558H75.4517V11.7172C75.4517 7.93308 73.2017 5.77399 69.9517 5.77399C67.3949 5.77399 65.4062 7.08081 64.6903 9.08081H64.5085C63.9517 7.05808 62.1676 5.77399 59.7699 5.77399C57.4176 5.77399 55.6335 7.02399 54.9062 9.08081H54.7017V6.00126H50.0881V23.4558ZM87.2301 23.7967C91.5483 23.7967 94.4574 21.6944 95.1392 18.4558L90.6619 18.1604C90.1733 19.4899 88.9233 20.1831 87.3097 20.1831C84.8892 20.1831 83.3551 18.5808 83.3551 15.9785V15.9672H95.2415V14.6376C95.2415 8.70581 91.6506 5.77399 87.0369 5.77399C81.9006 5.77399 78.571 9.42172 78.571 14.8081C78.571 20.3422 81.8551 23.7967 87.2301 23.7967ZM83.3551 12.9672C83.4574 10.9785 84.9688 9.38763 87.1165 9.38763C89.2188 9.38763 90.6733 10.8876 90.6847 12.9672H83.3551ZM101.719 23.4558H106.832L109.832 12.4785H110.048L113.048 23.4558H118.173L122.912 6.00126H118.026L115.366 17.6604H115.219L112.355 6.00126H107.548L104.73 17.7285H104.571L101.866 6.00126H96.9688L101.719 23.4558ZM132.943 23.7967C138.239 23.7967 141.534 20.1717 141.534 14.7967C141.534 9.38763 138.239 5.77399 132.943 5.77399C127.648 5.77399 124.352 9.38763 124.352 14.7967C124.352 20.1717 127.648 23.7967 132.943 23.7967ZM132.966 20.0467C130.523 20.0467 129.273 17.8081 129.273 14.7626C129.273 11.7172 130.523 9.46717 132.966 9.46717C135.364 9.46717 136.614 11.7172 136.614 14.7626C136.614 17.8081 135.364 20.0467 132.966 20.0467ZM144.682 23.4558H149.523V13.5808C149.523 11.4331 151.091 9.95581 153.227 9.95581C153.898 9.95581 154.818 10.0694 155.273 10.2172V5.92172C154.841 5.81945 154.239 5.75126 153.75 5.75126C151.795 5.75126 150.193 6.88763 149.557 9.04672H149.375V6.00126H144.682V23.4558ZM157.776 23.4558H162.616V17.9104L163.923 16.4217L168.685 23.4558H174.355L167.548 13.5581L174.026 6.00126H168.469L162.878 12.6263H162.616V0.183083H157.776V23.4558ZM190.923 10.9785C190.491 7.76263 187.901 5.77399 183.491 5.77399C179.026 5.77399 176.082 7.84217 176.094 11.2058C176.082 13.8194 177.73 15.5126 181.139 16.1944L184.162 16.7967C185.685 17.1035 186.378 17.6604 186.401 18.5354C186.378 19.5694 185.253 20.3081 183.56 20.3081C181.832 20.3081 180.685 19.5694 180.389 18.149L175.628 18.399C176.082 21.7399 178.923 23.7967 183.548 23.7967C188.071 23.7967 191.31 21.4899 191.321 18.0467C191.31 15.524 189.662 14.0126 186.276 13.3194L183.116 12.6831C181.491 12.3308 180.889 11.774 180.901 10.9331C180.889 9.88763 182.071 9.20581 183.571 9.20581C185.253 9.20581 186.253 10.1263 186.491 11.2513L190.923 10.9785Z" fill="white"/>
</svg>
