<svg width="131" height="30" viewBox="0 0 131 30" fill="none" xmlns="http://www.w3.org/2000/svg">
<path d="M4.28452 0.583904V19.4959H14.8125V22.7279H0.508516V0.583904H4.28452ZM16.5748 11.9439C16.6388 11.0052 16.8734 10.1946 17.2788 9.5119C17.6841 8.82924 18.1854 8.27457 18.7828 7.8479C19.4014 7.3999 20.0841 7.06924 20.8308 6.8559C21.5774 6.64257 22.3241 6.5359 23.0708 6.5359C23.9028 6.5359 24.7028 6.6319 25.4708 6.8239C26.2388 6.99457 26.9214 7.28257 27.5188 7.6879C28.1161 8.09324 28.5961 8.60524 28.9588 9.2239C29.3214 9.84257 29.5028 10.5999 29.5028 11.4959V19.2719C29.5028 19.4426 29.5348 19.6026 29.5988 19.7519C29.6628 19.8799 29.7374 19.9439 29.8228 19.9439C29.8654 19.9439 30.0148 19.9012 30.2708 19.8159C30.5268 19.7306 30.8681 19.6346 31.2948 19.5279V22.5679C30.7828 22.7386 30.3668 22.8559 30.0468 22.9199C29.7268 22.9839 29.3854 23.0159 29.0228 23.0159C28.4041 23.0159 27.8601 22.8772 27.3908 22.5999C26.9214 22.3012 26.5694 21.8106 26.3348 21.1279C25.5241 21.8532 24.6921 22.3546 23.8388 22.6319C23.0068 22.8879 22.1641 23.0159 21.3108 23.0159C20.6068 23.0159 19.9348 22.9092 19.2948 22.6959C18.6761 22.4612 18.1321 22.1412 17.6628 21.7359C17.2148 21.3092 16.8521 20.8079 16.5748 20.2319C16.3188 19.6559 16.1908 19.0052 16.1908 18.2799C16.1908 17.4692 16.3828 16.7866 16.7668 16.2319C17.1508 15.6772 17.6414 15.2186 18.2388 14.8559C18.8574 14.4932 19.5401 14.1946 20.2868 13.9599C21.0334 13.7039 21.7694 13.4799 22.4948 13.2879C22.9428 13.1599 23.3588 13.0426 23.7428 12.9359C24.1481 12.8079 24.5001 12.6799 24.7988 12.5519C25.1188 12.4026 25.3641 12.2426 25.5348 12.0719C25.7268 11.9012 25.8228 11.7092 25.8228 11.4959C25.8228 10.8346 25.5774 10.3652 25.0868 10.0879C24.5961 9.81057 23.9028 9.6719 23.0068 9.6719C22.3241 9.6719 21.7268 9.85324 21.2148 10.2159C20.7241 10.5572 20.4148 11.1332 20.2868 11.9439H16.5748ZM25.8228 15.0799C25.4388 15.2506 25.0228 15.4106 24.5748 15.5599C24.1481 15.7092 23.7001 15.8479 23.2308 15.9759L22.9748 16.0399C22.5694 16.1679 22.1748 16.2959 21.7908 16.4239C21.4281 16.5519 21.0974 16.7012 20.7988 16.8719C20.5214 17.0212 20.2868 17.2026 20.0948 17.4159C19.9241 17.6292 19.8388 17.8746 19.8388 18.1519C19.8388 18.7919 20.0201 19.2506 20.3828 19.5279C20.7668 19.8052 21.1828 19.9439 21.6308 19.9439C22.3561 19.9439 23.0921 19.6986 23.8388 19.2079C24.5854 18.7172 25.2468 17.9919 25.8228 17.0319V15.0799ZM33.1938 6.8239H36.8738V8.00791C37.5564 7.51724 38.2711 7.15457 39.0178 6.9199C39.7858 6.6639 40.5538 6.5359 41.3218 6.5359C42.9644 6.5359 44.2338 6.99457 45.1298 7.9119C46.0258 8.8079 46.4738 10.0239 46.4738 11.5599V22.7279H42.8258V11.8159C42.8258 11.0266 42.6551 10.4719 42.3138 10.1519C41.9724 9.8319 41.5031 9.6719 40.9058 9.6719C40.3511 9.6719 39.8284 9.77857 39.3378 9.9919C38.8471 10.1839 38.4204 10.4506 38.0578 10.7919C37.6951 11.1119 37.4071 11.4959 37.1938 11.9439C36.9804 12.3706 36.8738 12.8186 36.8738 13.2879V22.7279H33.1938V6.8239ZM63.3355 22.5039C63.3355 23.6132 63.1435 24.5839 62.7595 25.4159C62.3755 26.2692 61.8528 26.9839 61.1915 27.5599C60.5515 28.1359 59.8155 28.5626 58.9835 28.8399C58.1515 29.1386 57.2875 29.2879 56.3915 29.2879C54.8342 29.2879 53.4475 28.8399 52.2315 27.9439C51.0368 27.0479 50.0982 25.6079 49.4155 23.6239H53.1275C53.5328 24.5199 53.9915 25.1599 54.5035 25.5439C55.0368 25.9492 55.6662 26.1519 56.3915 26.1519C56.8395 26.1519 57.2555 26.0559 57.6395 25.8639C58.0448 25.6932 58.3968 25.4479 58.6955 25.1279C58.9942 24.8292 59.2288 24.4559 59.3995 24.0079C59.5915 23.5812 59.6875 23.1119 59.6875 22.5999V21.8639C58.6848 22.6532 57.5648 23.0479 56.3275 23.0479C55.2182 23.0479 54.2155 22.8346 53.3195 22.4079C52.4235 21.9599 51.6662 21.3626 51.0475 20.6159C50.4288 19.8692 49.9488 18.9946 49.6075 17.9919C49.2662 16.9892 49.0955 15.9119 49.0955 14.7599C49.0955 13.6079 49.2555 12.5412 49.5755 11.5599C49.9168 10.5572 50.3968 9.68257 51.0155 8.9359C51.6342 8.18924 52.3702 7.60257 53.2235 7.1759C54.0768 6.74924 55.0368 6.5359 56.1035 6.5359C56.6582 6.5359 57.2448 6.62124 57.8635 6.7919C58.4822 6.96257 59.0902 7.2719 59.6875 7.7199V6.8239H63.3355V22.5039ZM59.6875 14.5679C59.6662 13.8852 59.5808 13.2452 59.4315 12.6479C59.2822 12.0506 59.0688 11.5386 58.7915 11.1119C58.5142 10.6639 58.1728 10.3119 57.7675 10.0559C57.3835 9.7999 56.9355 9.6719 56.4235 9.6719C55.8902 9.6719 55.3995 9.81057 54.9515 10.0879C54.5035 10.3439 54.1088 10.7066 53.7675 11.1759C53.4475 11.6239 53.1915 12.1572 52.9995 12.7759C52.8288 13.3946 52.7435 14.0559 52.7435 14.7599C52.7435 15.4639 52.8288 16.1359 52.9995 16.7759C53.1915 17.3946 53.4475 17.9386 53.7675 18.4079C54.1088 18.8772 54.5035 19.2506 54.9515 19.5279C55.3995 19.8052 55.8902 19.9439 56.4235 19.9439C56.9355 19.9439 57.3942 19.8159 57.7995 19.5599C58.2048 19.2826 58.5462 18.9199 58.8235 18.4719C59.1008 18.0026 59.3142 17.4586 59.4635 16.8399C59.6128 16.1999 59.6875 15.5279 59.6875 14.8239V14.5679ZM79.5013 22.4719H75.8533V21.2879C75.1919 21.7786 74.4773 22.1412 73.7093 22.3759C72.9413 22.6106 72.1626 22.7279 71.3733 22.7279C69.7733 22.7279 68.5146 22.2799 67.5973 21.3839C66.6799 20.4879 66.2213 19.2719 66.2213 17.7359V6.5359H69.9013V17.4479C69.9013 18.2372 70.0719 18.8026 70.4133 19.1439C70.7546 19.4639 71.2239 19.6239 71.8213 19.6239C72.3759 19.6239 72.8986 19.5279 73.3893 19.3359C73.8799 19.1226 74.3066 18.8559 74.6693 18.5359C75.0319 18.1946 75.3199 17.8106 75.5333 17.3839C75.7466 16.9359 75.8533 16.4772 75.8533 16.0079V6.5359H79.5013V22.4719ZM82.5748 11.9439C82.6388 11.0052 82.8734 10.1946 83.2788 9.5119C83.6841 8.82924 84.1854 8.27457 84.7828 7.8479C85.4014 7.3999 86.0841 7.06924 86.8308 6.8559C87.5774 6.64257 88.3241 6.5359 89.0708 6.5359C89.9028 6.5359 90.7028 6.6319 91.4708 6.8239C92.2388 6.99457 92.9214 7.28257 93.5188 7.6879C94.1161 8.09324 94.5961 8.60524 94.9588 9.2239C95.3214 9.84257 95.5028 10.5999 95.5028 11.4959V19.2719C95.5028 19.4426 95.5348 19.6026 95.5988 19.7519C95.6628 19.8799 95.7374 19.9439 95.8228 19.9439C95.8654 19.9439 96.0148 19.9012 96.2708 19.8159C96.5268 19.7306 96.8681 19.6346 97.2948 19.5279V22.5679C96.7828 22.7386 96.3668 22.8559 96.0468 22.9199C95.7268 22.9839 95.3854 23.0159 95.0228 23.0159C94.4041 23.0159 93.8601 22.8772 93.3908 22.5999C92.9214 22.3012 92.5694 21.8106 92.3348 21.1279C91.5241 21.8532 90.6921 22.3546 89.8388 22.6319C89.0068 22.8879 88.1641 23.0159 87.3108 23.0159C86.6068 23.0159 85.9348 22.9092 85.2948 22.6959C84.6761 22.4612 84.1321 22.1412 83.6628 21.7359C83.2148 21.3092 82.8521 20.8079 82.5748 20.2319C82.3188 19.6559 82.1908 19.0052 82.1908 18.2799C82.1908 17.4692 82.3828 16.7866 82.7668 16.2319C83.1508 15.6772 83.6414 15.2186 84.2388 14.8559C84.8574 14.4932 85.5401 14.1946 86.2868 13.9599C87.0334 13.7039 87.7694 13.4799 88.4948 13.2879C88.9428 13.1599 89.3588 13.0426 89.7428 12.9359C90.1481 12.8079 90.5001 12.6799 90.7988 12.5519C91.1188 12.4026 91.3641 12.2426 91.5348 12.0719C91.7268 11.9012 91.8228 11.7092 91.8228 11.4959C91.8228 10.8346 91.5774 10.3652 91.0868 10.0879C90.5961 9.81057 89.9028 9.6719 89.0068 9.6719C88.3241 9.6719 87.7268 9.85324 87.2148 10.2159C86.7241 10.5572 86.4148 11.1332 86.2868 11.9439H82.5748ZM91.8228 15.0799C91.4388 15.2506 91.0228 15.4106 90.5748 15.5599C90.1481 15.7092 89.7001 15.8479 89.2308 15.9759L88.9748 16.0399C88.5694 16.1679 88.1748 16.2959 87.7908 16.4239C87.4281 16.5519 87.0974 16.7012 86.7988 16.8719C86.5214 17.0212 86.2868 17.2026 86.0948 17.4159C85.9241 17.6292 85.8388 17.8746 85.8388 18.1519C85.8388 18.7919 86.0201 19.2506 86.3828 19.5279C86.7668 19.8052 87.1828 19.9439 87.6308 19.9439C88.3561 19.9439 89.0921 19.6986 89.8388 19.2079C90.5854 18.7172 91.2468 17.9919 91.8228 17.0319V15.0799ZM113.242 22.5039C113.242 23.6132 113.05 24.5839 112.666 25.4159C112.282 26.2692 111.759 26.9839 111.098 27.5599C110.458 28.1359 109.722 28.5626 108.89 28.8399C108.058 29.1386 107.194 29.2879 106.298 29.2879C104.74 29.2879 103.354 28.8399 102.138 27.9439C100.943 27.0479 100.004 25.6079 99.3218 23.6239H103.034C103.439 24.5199 103.898 25.1599 104.41 25.5439C104.943 25.9492 105.572 26.1519 106.298 26.1519C106.746 26.1519 107.162 26.0559 107.546 25.8639C107.951 25.6932 108.303 25.4479 108.602 25.1279C108.9 24.8292 109.135 24.4559 109.306 24.0079C109.498 23.5812 109.594 23.1119 109.594 22.5999V21.8639C108.591 22.6532 107.471 23.0479 106.234 23.0479C105.124 23.0479 104.122 22.8346 103.226 22.4079C102.33 21.9599 101.572 21.3626 100.954 20.6159C100.335 19.8692 99.8551 18.9946 99.5138 17.9919C99.1724 16.9892 99.0018 15.9119 99.0018 14.7599C99.0018 13.6079 99.1618 12.5412 99.4818 11.5599C99.8231 10.5572 100.303 9.68257 100.922 8.9359C101.54 8.18924 102.276 7.60257 103.13 7.1759C103.983 6.74924 104.943 6.5359 106.01 6.5359C106.564 6.5359 107.151 6.62124 107.77 6.7919C108.388 6.96257 108.996 7.2719 109.594 7.7199V6.8239H113.242V22.5039ZM109.594 14.5679C109.572 13.8852 109.487 13.2452 109.338 12.6479C109.188 12.0506 108.975 11.5386 108.698 11.1119C108.42 10.6639 108.079 10.3119 107.674 10.0559C107.29 9.7999 106.842 9.6719 106.33 9.6719C105.796 9.6719 105.306 9.81057 104.858 10.0879C104.41 10.3439 104.015 10.7066 103.674 11.1759C103.354 11.6239 103.098 12.1572 102.906 12.7759C102.735 13.3946 102.65 14.0559 102.65 14.7599C102.65 15.4639 102.735 16.1359 102.906 16.7759C103.098 17.3946 103.354 17.9386 103.674 18.4079C104.015 18.8772 104.41 19.2506 104.858 19.5279C105.306 19.8052 105.796 19.9439 106.33 19.9439C106.842 19.9439 107.3 19.8159 107.706 19.5599C108.111 19.2826 108.452 18.9199 108.73 18.4719C109.007 18.0026 109.22 17.4586 109.37 16.8399C109.519 16.1999 109.594 15.5279 109.594 14.8239V14.5679ZM119.904 15.7519C119.989 16.2852 120.138 16.8079 120.352 17.3199C120.586 17.8106 120.864 18.2586 121.184 18.6639C121.504 19.0479 121.866 19.3572 122.272 19.5919C122.698 19.8266 123.146 19.9439 123.616 19.9439C125.344 19.9439 126.549 18.9519 127.232 16.9679H130.656C130.464 17.9279 130.133 18.7812 129.664 19.5279C129.216 20.2746 128.672 20.9146 128.032 21.4479C127.413 21.9599 126.72 22.3546 125.952 22.6319C125.205 22.8879 124.426 23.0159 123.616 23.0159C122.464 23.0159 121.429 22.7919 120.512 22.3439C119.594 21.8746 118.805 21.2559 118.144 20.4879C117.482 19.7199 116.97 18.8239 116.608 17.7999C116.266 16.7759 116.096 15.6879 116.096 14.5359C116.096 13.4692 116.266 12.4559 116.608 11.4959C116.97 10.5359 117.472 9.69324 118.112 8.96791C118.773 8.22124 119.562 7.63457 120.48 7.2079C121.397 6.7599 122.432 6.5359 123.584 6.5359C124.693 6.5359 125.696 6.73857 126.592 7.1439C127.488 7.5279 128.245 8.0719 128.864 8.7759C129.504 9.45857 129.994 10.2799 130.336 11.2399C130.677 12.1786 130.848 13.2026 130.848 14.3119V15.7519H119.904ZM127.04 12.9039C126.912 11.9439 126.528 11.1652 125.888 10.5679C125.269 9.97057 124.448 9.6719 123.424 9.6719C122.976 9.6719 122.549 9.75724 122.144 9.92791C121.76 10.0986 121.418 10.3332 121.12 10.6319C120.821 10.9306 120.565 11.2719 120.352 11.6559C120.16 12.0399 120.021 12.4559 119.936 12.9039H127.04Z" fill="white"/>
</svg>
