<svg width="251" height="25" viewBox="0 0 251 25" fill="none" xmlns="http://www.w3.org/2000/svg">
<path d="M14.232 24H12.12C11.8 24 11.576 23.8507 11.448 23.552L5.24 7.776V21.472H7.256C7.576 21.472 7.736 21.632 7.736 21.952V23.52C7.736 23.84 7.576 24 7.256 24H0.76C0.44 24 0.28 23.84 0.28 23.52V21.952C0.28 21.632 0.44 21.472 0.76 21.472H2.456V4.864H0.76C0.44 4.864 0.28 4.704 0.28 4.384V2.752C0.28 2.432 0.44 2.272 0.76 2.272H6.36C6.70133 2.272 6.91467 2.42133 7 2.72L13.592 19.904L20.344 2.72C20.4293 2.42133 20.6427 2.272 20.984 2.272H26.328C26.648 2.272 26.808 2.432 26.808 2.752V4.384C26.808 4.704 26.648 4.864 26.328 4.864H24.632V21.472H26.328C26.648 21.472 26.808 21.632 26.808 21.952V23.52C26.808 23.84 26.648 24 26.328 24H19.288C18.968 24 18.808 23.84 18.808 23.52V21.952C18.808 21.632 18.968 21.472 19.288 21.472H21.208V7.808L14.904 23.552C14.776 23.8507 14.552 24 14.232 24ZM44.4138 21.472H45.8218C46.1418 21.472 46.3018 21.632 46.3018 21.952V23.52C46.3018 23.84 46.1418 24 45.8218 24H42.2378C41.9818 24 41.8218 23.84 41.7578 23.52L41.4698 21.728C40.1044 23.4987 38.3124 24.384 36.0938 24.384C32.6378 24.384 30.9098 22.5707 30.9098 18.944V10.784H29.2138C28.8938 10.784 28.7338 10.624 28.7338 10.304V8.64C28.7338 8.32 28.8938 8.16 29.2138 8.16H34.0138C34.3338 8.16 34.4938 8.32 34.4938 8.64V17.984C34.4938 19.264 34.6538 20.1813 34.9738 20.736C35.3151 21.2693 36.0191 21.536 37.0858 21.536C38.1738 21.536 39.0698 21.216 39.7738 20.576C40.4778 19.936 40.8298 19.2107 40.8298 18.4V10.784H38.8138C38.4938 10.784 38.3338 10.624 38.3338 10.304V8.64C38.3338 8.32 38.4938 8.16 38.8138 8.16H43.9338C44.2538 8.16 44.4138 8.32 44.4138 8.64V21.472ZM53.842 0.608V21.472H55.858C56.178 21.472 56.338 21.632 56.338 21.952V23.52C56.338 23.84 56.178 24 55.858 24H48.242C47.922 24 47.762 23.84 47.762 23.52V21.952C47.762 21.632 47.922 21.472 48.242 21.472H50.258V2.752H48.53C48.21 2.752 48.05 2.592 48.05 2.272V0.608C48.05 0.287999 48.21 0.127998 48.53 0.127998H53.362C53.682 0.127998 53.842 0.287999 53.842 0.608ZM63.0243 10.784V18.848C63.0243 19.8507 63.1523 20.576 63.4083 21.024C63.6643 21.472 64.1443 21.696 64.8483 21.696C65.5523 21.696 66.2349 21.5467 66.8963 21.248C67.1309 21.1627 67.3016 21.248 67.4083 21.504L67.9843 22.976C68.0056 23.04 68.0163 23.136 68.0163 23.264C68.0163 23.3707 67.9096 23.488 67.6963 23.616C66.6723 24.128 65.4563 24.384 64.0483 24.384C62.1496 24.384 60.9016 23.8933 60.3043 22.912C59.8776 22.272 59.6323 21.6533 59.5683 21.056C59.4829 20.2453 59.4403 19.392 59.4403 18.496V10.784H57.6163C57.2963 10.784 57.1363 10.624 57.1363 10.304V8.64C57.1363 8.32 57.2963 8.16 57.6163 8.16H59.4403V3.84C59.4403 3.52 59.6003 3.36 59.9203 3.36H62.5443C62.8643 3.36 63.0243 3.52 63.0243 3.84V8.16H66.2563C66.5763 8.16 66.7363 8.32 66.7363 8.64V10.304C66.7363 10.624 66.5763 10.784 66.2563 10.784H63.0243ZM75.0608 21.472H77.0768C77.3968 21.472 77.5568 21.632 77.5568 21.952V23.52C77.5568 23.84 77.3968 24 77.0768 24H69.4608C69.1408 24 68.9808 23.84 68.9808 23.52V21.952C68.9808 21.632 69.1408 21.472 69.4608 21.472C69.4608 21.472 70.1328 21.472 71.4768 21.472V10.784H69.7488C69.4288 10.784 69.2688 10.624 69.2688 10.304V8.64C69.2688 8.32 69.4288 8.16 69.7488 8.16H74.5808C74.9008 8.16 75.0608 8.32 75.0608 8.64V21.472ZM71.1888 5.312C70.7834 4.88533 70.5807 4.34133 70.5807 3.68C70.5807 3.01867 70.7834 2.47467 71.1888 2.048C71.6154 1.6 72.1701 1.376 72.8528 1.376C73.5568 1.376 74.1114 1.6 74.5168 2.048C74.9434 2.47467 75.1568 3.01867 75.1568 3.68C75.1568 4.34133 74.9434 4.88533 74.5168 5.312C74.0901 5.73867 73.5248 5.952 72.8208 5.952C72.1381 5.952 71.5941 5.73867 71.1888 5.312ZM85.331 17.024H79.443C79.2083 17.024 79.0483 16.9813 78.963 16.896C78.8777 16.8107 78.835 16.6507 78.835 16.416V14.528C78.835 14.2933 78.8777 14.1333 78.963 14.048C79.0483 13.9627 79.2083 13.92 79.443 13.92H85.331C85.5657 13.92 85.7257 13.9627 85.811 14.048C85.8963 14.1333 85.939 14.2933 85.939 14.528V16.416C85.939 16.6507 85.8963 16.8107 85.811 16.896C85.7257 16.9813 85.5657 17.024 85.331 17.024ZM88.1863 23.52V21.952C88.1863 21.632 88.3463 21.472 88.6663 21.472H90.3303V4.832H88.6663C88.3463 4.832 88.1863 4.672 88.1863 4.352V2.752C88.1863 2.432 88.3463 2.272 88.6663 2.272C91.3969 2.144 93.6263 2.08 95.3542 2.08C101.029 2.08 103.866 4.16 103.866 8.32C103.866 10.4747 103.173 12.1813 101.786 13.44C100.4 14.6987 98.5116 15.328 96.1223 15.328C95.1836 15.328 94.4476 15.296 93.9143 15.232V21.472H96.5703C96.8903 21.472 97.0503 21.632 97.0503 21.952V23.52C97.0503 23.84 96.8903 24 96.5703 24H88.6663C88.3463 24 88.1863 23.84 88.1863 23.52ZM93.9143 4.736V12.768C94.1063 12.7893 94.5969 12.8 95.3863 12.8C98.5863 12.8 100.186 11.3813 100.186 8.544C100.186 7.52 99.9196 6.72 99.3863 6.144C98.8743 5.54667 98.2663 5.16267 97.5623 4.992C96.8796 4.82133 96.0476 4.736 95.0663 4.736H93.9143ZM106.12 16.32C106.12 14.72 106.365 13.3333 106.856 12.16C107.347 10.9867 107.987 10.1013 108.776 9.504C110.291 8.37333 111.933 7.808 113.704 7.808C115.005 7.808 116.104 8.01067 117 8.416C117.896 8.82133 118.589 9.29067 119.08 9.824C119.592 10.3573 120.019 11.1253 120.36 12.128C120.723 13.1307 120.904 14.304 120.904 15.648C120.904 18.5067 120.179 20.6827 118.728 22.176C117.299 23.648 115.464 24.384 113.224 24.384C110.984 24.384 109.235 23.712 107.976 22.368C106.739 21.0027 106.12 18.9867 106.12 16.32ZM113.48 21.76C114.76 21.76 115.688 21.2907 116.264 20.352C116.861 19.392 117.16 17.9733 117.16 16.096C117.16 14.2187 116.861 12.8107 116.264 11.872C115.688 10.912 114.739 10.432 113.416 10.432C110.963 10.432 109.736 12.16 109.736 15.616C109.736 19.712 110.984 21.76 113.48 21.76ZM123.261 12.736C123.261 11.328 123.805 10.1547 124.893 9.216C125.981 8.27733 127.357 7.808 129.021 7.808C130.685 7.808 132.125 8 133.341 8.384C133.639 8.46933 133.789 8.66133 133.789 8.96V12.352C133.789 12.672 133.629 12.832 133.309 12.832H131.453C131.111 12.832 130.973 12.672 131.037 12.352L131.197 10.72C130.557 10.3787 129.853 10.208 129.085 10.208C127.378 10.208 126.525 10.8053 126.525 12C126.525 12.6187 126.802 13.1093 127.357 13.472C127.911 13.8347 128.583 14.1333 129.373 14.368C130.162 14.5813 130.951 14.8373 131.741 15.136C132.551 15.4133 133.234 15.904 133.789 16.608C134.343 17.2907 134.621 18.1653 134.621 19.232C134.621 20.8533 134.055 22.1227 132.925 23.04C131.794 23.936 130.205 24.384 128.157 24.384C126.727 24.384 125.223 24.1707 123.645 23.744C123.367 23.6587 123.229 23.456 123.229 23.136V19.744C123.229 19.424 123.389 19.264 123.709 19.264H125.565C125.885 19.264 126.034 19.424 126.013 19.744L125.917 21.408C126.493 21.8347 127.314 22.048 128.381 22.048C130.279 22.048 131.229 21.376 131.229 20.032C131.229 19.3493 130.951 18.816 130.397 18.432C129.863 18.0267 129.202 17.7173 128.413 17.504C127.645 17.2907 126.866 17.056 126.077 16.8C125.287 16.5227 124.615 16.0533 124.061 15.392C123.527 14.7093 123.261 13.824 123.261 12.736ZM141.649 10.784V18.848C141.649 19.8507 141.777 20.576 142.033 21.024C142.289 21.472 142.769 21.696 143.473 21.696C144.177 21.696 144.86 21.5467 145.521 21.248C145.756 21.1627 145.927 21.248 146.033 21.504L146.609 22.976C146.631 23.04 146.641 23.136 146.641 23.264C146.641 23.3707 146.535 23.488 146.321 23.616C145.297 24.128 144.081 24.384 142.673 24.384C140.775 24.384 139.527 23.8933 138.929 22.912C138.503 22.272 138.257 21.6533 138.193 21.056C138.108 20.2453 138.065 19.392 138.065 18.496V10.784H136.241C135.921 10.784 135.761 10.624 135.761 10.304V8.64C135.761 8.32 135.921 8.16 136.241 8.16H138.065V3.84C138.065 3.52 138.225 3.36 138.545 3.36H141.169C141.489 3.36 141.649 3.52 141.649 3.84V8.16H144.881C145.201 8.16 145.361 8.32 145.361 8.64V10.304C145.361 10.624 145.201 10.784 144.881 10.784H141.649ZM162.556 1.728C164.135 1.728 165.713 1.96267 167.292 2.432C167.591 2.51733 167.74 2.70933 167.74 3.008V7.424C167.74 7.744 167.58 7.904 167.26 7.904H165.468C165.148 7.904 164.999 7.744 165.02 7.424L165.116 5.28C164.263 4.768 163.313 4.512 162.268 4.512C161.223 4.512 160.38 4.768 159.74 5.28C159.121 5.77067 158.812 6.464 158.812 7.36C158.812 8.256 159.1 8.992 159.676 9.568C160.252 10.1227 161.073 10.6027 162.14 11.008C163.207 11.4133 163.921 11.6907 164.284 11.84C164.647 11.9893 165.169 12.2667 165.852 12.672C166.556 13.0773 167.068 13.4827 167.388 13.888C167.729 14.272 168.039 14.7947 168.316 15.456C168.615 16.1173 168.764 16.8533 168.764 17.664C168.764 19.776 168.092 21.4293 166.748 22.624C165.425 23.7973 163.537 24.384 161.084 24.384C159.271 24.384 157.479 24.1067 155.708 23.552C155.409 23.4667 155.26 23.2747 155.26 22.976V17.888C155.26 17.568 155.42 17.408 155.74 17.408H157.532C157.852 17.408 158.001 17.568 157.98 17.888L157.852 20.544C158.129 20.8 158.588 21.0453 159.228 21.28C159.889 21.4933 160.561 21.6 161.244 21.6C163.889 21.6 165.212 20.5227 165.212 18.368C165.212 17.3227 164.86 16.5013 164.156 15.904C163.452 15.2853 162.535 14.7947 161.404 14.432C160.295 14.048 159.452 13.7173 158.876 13.44C158.3 13.1413 157.713 12.7573 157.116 12.288C155.921 11.392 155.324 10.016 155.324 8.16C155.324 6.304 155.964 4.768 157.244 3.552C158.524 2.336 160.295 1.728 162.556 1.728ZM175.774 10.784V18.848C175.774 19.8507 175.902 20.576 176.158 21.024C176.414 21.472 176.894 21.696 177.598 21.696C178.302 21.696 178.985 21.5467 179.646 21.248C179.881 21.1627 180.052 21.248 180.158 21.504L180.734 22.976C180.756 23.04 180.766 23.136 180.766 23.264C180.766 23.3707 180.66 23.488 180.446 23.616C179.422 24.128 178.206 24.384 176.798 24.384C174.9 24.384 173.652 23.8933 173.054 22.912C172.628 22.272 172.382 21.6533 172.318 21.056C172.233 20.2453 172.19 19.392 172.19 18.496V10.784H170.366C170.046 10.784 169.886 10.624 169.886 10.304V8.64C169.886 8.32 170.046 8.16 170.366 8.16H172.19V3.84C172.19 3.52 172.35 3.36 172.67 3.36H175.294C175.614 3.36 175.774 3.52 175.774 3.84V8.16H179.006C179.326 8.16 179.486 8.32 179.486 8.64V10.304C179.486 10.624 179.326 10.784 179.006 10.784H175.774ZM182.339 16.32C182.339 14.72 182.584 13.3333 183.075 12.16C183.565 10.9867 184.205 10.1013 184.995 9.504C186.509 8.37333 188.152 7.808 189.923 7.808C191.224 7.808 192.323 8.01067 193.219 8.416C194.115 8.82133 194.808 9.29067 195.299 9.824C195.811 10.3573 196.237 11.1253 196.579 12.128C196.941 13.1307 197.123 14.304 197.123 15.648C197.123 18.5067 196.397 20.6827 194.947 22.176C193.517 23.648 191.683 24.384 189.443 24.384C187.203 24.384 185.453 23.712 184.195 22.368C182.957 21.0027 182.339 18.9867 182.339 16.32ZM189.699 21.76C190.979 21.76 191.907 21.2907 192.483 20.352C193.08 19.392 193.379 17.9733 193.379 16.096C193.379 14.2187 193.08 12.8107 192.483 11.872C191.907 10.912 190.957 10.432 189.635 10.432C187.181 10.432 185.955 12.16 185.955 15.616C185.955 19.712 187.203 21.76 189.699 21.76ZM204.65 10.912C205.013 10.0587 205.599 9.33333 206.41 8.736C207.221 8.11733 208.106 7.808 209.066 7.808C210.026 7.808 210.762 7.89333 211.274 8.064C211.53 8.14933 211.658 8.34133 211.658 8.64V12.96C211.658 13.28 211.498 13.44 211.178 13.44H209.098C208.778 13.44 208.629 13.28 208.65 12.96L208.778 11.104C208.671 11.0827 208.49 11.072 208.234 11.072C207.253 11.072 206.442 11.4773 205.802 12.288C205.162 13.0773 204.842 14.144 204.842 15.488V21.472H208.362C208.682 21.472 208.842 21.632 208.842 21.952V23.52C208.842 23.84 208.682 24 208.362 24H199.562C199.242 24 199.082 23.84 199.082 23.52V21.952C199.082 21.632 199.242 21.472 199.562 21.472H201.258V10.784H199.53C199.21 10.784 199.05 10.624 199.05 10.304V8.64C199.05 8.32 199.21 8.16 199.53 8.16H203.754C204.053 8.16 204.234 8.32 204.298 8.64L204.65 10.912ZM219.28 21.472H221.296C221.616 21.472 221.776 21.632 221.776 21.952V23.52C221.776 23.84 221.616 24 221.296 24H213.68C213.36 24 213.2 23.84 213.2 23.52V21.952C213.2 21.632 213.36 21.472 213.68 21.472C213.68 21.472 214.352 21.472 215.696 21.472V10.784H213.968C213.648 10.784 213.488 10.624 213.488 10.304V8.64C213.488 8.32 213.648 8.16 213.968 8.16H218.8C219.12 8.16 219.28 8.32 219.28 8.64V21.472ZM215.408 5.312C215.002 4.88533 214.799 4.34133 214.799 3.68C214.799 3.01867 215.002 2.47467 215.408 2.048C215.834 1.6 216.389 1.376 217.072 1.376C217.776 1.376 218.33 1.6 218.736 2.048C219.162 2.47467 219.376 3.01867 219.376 3.68C219.376 4.34133 219.162 4.88533 218.736 5.312C218.309 5.73867 217.744 5.952 217.04 5.952C216.357 5.952 215.813 5.73867 215.408 5.312ZM230.574 24.384C228.035 24.384 226.168 23.648 224.974 22.176C223.8 20.6827 223.214 18.72 223.214 16.288C223.214 13.8347 223.843 11.808 225.102 10.208C226.36 8.608 228.174 7.808 230.542 7.808C231.715 7.808 232.718 8.032 233.55 8.48C234.403 8.90667 235.054 9.49333 235.502 10.24C236.355 11.6907 236.782 13.3653 236.782 15.264C236.782 16.16 236.739 16.6507 236.654 16.736C236.568 16.8213 236.408 16.864 236.174 16.864H226.766C226.872 18.4 227.246 19.5947 227.886 20.448C228.547 21.28 229.678 21.696 231.278 21.696C232.451 21.696 233.656 21.4187 234.894 20.864C235.192 20.7147 235.406 20.8 235.534 21.12L236.142 22.592C236.248 22.848 236.152 23.0613 235.854 23.232C234.446 24 232.686 24.384 230.574 24.384ZM226.766 14.496H233.422C233.464 11.8293 232.419 10.496 230.286 10.496C229.027 10.496 228.131 10.9013 227.598 11.712C227.086 12.5013 226.808 13.4293 226.766 14.496ZM239.23 12.736C239.23 11.328 239.774 10.1547 240.862 9.216C241.95 8.27733 243.326 7.808 244.99 7.808C246.654 7.808 248.094 8 249.31 8.384C249.608 8.46933 249.758 8.66133 249.758 8.96V12.352C249.758 12.672 249.598 12.832 249.278 12.832H247.422C247.08 12.832 246.942 12.672 247.006 12.352L247.166 10.72C246.526 10.3787 245.822 10.208 245.054 10.208C243.347 10.208 242.494 10.8053 242.494 12C242.494 12.6187 242.771 13.1093 243.326 13.472C243.88 13.8347 244.552 14.1333 245.342 14.368C246.131 14.5813 246.92 14.8373 247.71 15.136C248.52 15.4133 249.203 15.904 249.758 16.608C250.312 17.2907 250.59 18.1653 250.59 19.232C250.59 20.8533 250.024 22.1227 248.894 23.04C247.763 23.936 246.174 24.384 244.126 24.384C242.696 24.384 241.192 24.1707 239.614 23.744C239.336 23.6587 239.198 23.456 239.198 23.136V19.744C239.198 19.424 239.358 19.264 239.678 19.264H241.534C241.854 19.264 242.003 19.424 241.982 19.744L241.886 21.408C242.462 21.8347 243.283 22.048 244.35 22.048C246.248 22.048 247.198 21.376 247.198 20.032C247.198 19.3493 246.92 18.816 246.366 18.432C245.832 18.0267 245.171 17.7173 244.382 17.504C243.614 17.2907 242.835 17.056 242.046 16.8C241.256 16.5227 240.584 16.0533 240.03 15.392C239.496 14.7093 239.23 13.824 239.23 12.736Z" fill="#091E42"/>
</svg>
