<svg width="313" height="134" viewBox="0 0 313 134" fill="none" xmlns="http://www.w3.org/2000/svg">
<path d="M1.88636 13L3.05682 9.70455H7.76136L8.93182 13H10.4091L6.13636 1.36364H4.68182L0.409091 13H1.88636ZM3.5 8.45455L5.36364 3.20455H5.45455L7.31818 8.45455H3.5ZM19.8352 13.1818C21.517 13.1818 22.0852 12.1364 22.3807 11.6591H22.5398V13H23.8352V1.36364H22.4943V5.65909H22.3807C22.0852 5.20455 21.5625 4.15909 19.858 4.15909C17.6534 4.15909 16.1307 5.90909 16.1307 8.65909C16.1307 11.4318 17.6534 13.1818 19.8352 13.1818ZM20.017 11.9773C18.3352 11.9773 17.4716 10.5 17.4716 8.63636C17.4716 6.79545 18.3125 5.36364 20.017 5.36364C21.6534 5.36364 22.517 6.68182 22.517 8.63636C22.517 10.6136 21.6307 11.9773 20.017 11.9773ZM29.0455 13.2045C30.5682 13.2045 31.3636 12.3864 31.6364 11.8182H31.7045V13H33.0455V7.25C33.0455 4.47727 30.9318 4.15909 29.8182 4.15909C28.5 4.15909 27 4.61364 26.3182 6.20455L27.5909 6.65909C27.8864 6.02273 28.5852 5.34091 29.8636 5.34091C31.0966 5.34091 31.7045 5.99432 31.7045 7.11364V7.15909C31.7045 7.80682 31.0455 7.75 29.4545 7.95455C27.8352 8.16477 26.0682 8.52273 26.0682 10.5227C26.0682 12.2273 27.3864 13.2045 29.0455 13.2045ZM29.25 12C28.1818 12 27.4091 11.5227 27.4091 10.5909C27.4091 9.56818 28.3409 9.25 29.3864 9.11364C29.9545 9.04545 31.4773 8.88636 31.7045 8.61364V9.84091C31.7045 10.9318 30.8409 12 29.25 12ZM35.4929 13H36.8338V4.27273H35.4929V13ZM36.1747 2.81818C36.6974 2.81818 37.1293 2.40909 37.1293 1.90909C37.1293 1.40909 36.6974 1 36.1747 1C35.652 1 35.2202 1.40909 35.2202 1.90909C35.2202 2.40909 35.652 2.81818 36.1747 2.81818ZM40.6307 1.36364H39.2898V13H40.6307V1.36364ZM43.9503 16.25C45.1605 16.25 46.0185 15.608 46.5185 14.2727L50.2344 4.29545L48.7685 4.27273L46.3594 11.2273H46.2685L43.8594 4.27273H42.4048L45.6321 13.0455L45.3821 13.7273C44.9048 15.0341 44.2912 15.1591 43.3139 14.9091L42.973 16.0909C43.1094 16.1591 43.4957 16.25 43.9503 16.25ZM62.6903 6.22727C62.2699 4.98864 61.3267 4.15909 59.5994 4.15909C57.7585 4.15909 56.3949 5.20455 56.3949 6.68182C56.3949 7.88636 57.1108 8.69318 58.7131 9.06818L60.1676 9.40909C61.0483 9.61364 61.4631 10.0341 61.4631 10.6364C61.4631 11.3864 60.6676 12 59.4176 12C58.321 12 57.6335 11.5284 57.3949 10.5909L56.1222 10.9091C56.4347 12.392 57.6562 13.1818 59.4403 13.1818C61.4688 13.1818 62.8494 12.0739 62.8494 10.5682C62.8494 9.35227 62.0881 8.58523 60.5312 8.20455L59.2358 7.88636C58.2017 7.63068 57.7358 7.28409 57.7358 6.61364C57.7358 5.86364 58.5312 5.31818 59.5994 5.31818C60.7699 5.31818 61.2528 5.96591 61.4858 6.56818L62.6903 6.22727ZM68.527 13.1818C70.2997 13.1818 71.5952 12.2955 72.0043 10.9773L70.7088 10.6136C70.3679 11.5227 69.5781 11.9773 68.527 11.9773C66.9531 11.9773 65.8679 10.9602 65.8054 9.09091H72.1406V8.52273C72.1406 5.27273 70.2088 4.15909 68.3906 4.15909C66.027 4.15909 64.4588 6.02273 64.4588 8.70455C64.4588 11.3864 66.0043 13.1818 68.527 13.1818ZM65.8054 7.93182C65.8963 6.57386 66.8565 5.36364 68.3906 5.36364C69.8452 5.36364 70.777 6.45455 70.777 7.93182H65.8054ZM75.5213 1.36364H74.1804V13H75.5213V1.36364ZM81.6364 13.1818C83.4091 13.1818 84.7045 12.2955 85.1136 10.9773L83.8182 10.6136C83.4773 11.5227 82.6875 11.9773 81.6364 11.9773C80.0625 11.9773 78.9773 10.9602 78.9148 9.09091H85.25V8.52273C85.25 5.27273 83.3182 4.15909 81.5 4.15909C79.1364 4.15909 77.5682 6.02273 77.5682 8.70455C77.5682 11.3864 79.1136 13.1818 81.6364 13.1818ZM78.9148 7.93182C79.0057 6.57386 79.9659 5.36364 81.5 5.36364C82.9545 5.36364 83.8864 6.45455 83.8864 7.93182H78.9148ZM90.8352 13.1818C92.767 13.1818 94.0398 12 94.267 10.4545H92.9261C92.6761 11.4091 91.8807 11.9773 90.8352 11.9773C89.2443 11.9773 88.2216 10.6591 88.2216 8.63636C88.2216 6.65909 89.267 5.36364 90.8352 5.36364C92.017 5.36364 92.7216 6.09091 92.9261 6.88636H94.267C94.0398 5.25 92.6534 4.15909 90.8125 4.15909C88.4489 4.15909 86.8807 6.02273 86.8807 8.68182C86.8807 11.2955 88.3807 13.1818 90.8352 13.1818ZM100.023 4.27273H98.1591V2.18182H96.8182V4.27273H95.5V5.40909H96.8182V10.8636C96.8182 12.3864 98.0455 13.1136 99.1818 13.1136C99.6818 13.1136 100 13.0227 100.182 12.9545L99.9091 11.75C99.7955 11.7727 99.6136 11.8182 99.3182 11.8182C98.7273 11.8182 98.1591 11.6364 98.1591 10.5V5.40909H100.023V4.27273ZM102.04 13H103.381V4.27273H102.04V13ZM102.722 2.81818C103.244 2.81818 103.676 2.40909 103.676 1.90909C103.676 1.40909 103.244 1 102.722 1C102.199 1 101.767 1.40909 101.767 1.90909C101.767 2.40909 102.199 2.81818 102.722 2.81818ZM109.382 13.1818C111.746 13.1818 113.337 11.3864 113.337 8.68182C113.337 5.95455 111.746 4.15909 109.382 4.15909C107.018 4.15909 105.428 5.95455 105.428 8.68182C105.428 11.3864 107.018 13.1818 109.382 13.1818ZM109.382 11.9773C107.587 11.9773 106.768 10.4318 106.768 8.68182C106.768 6.93182 107.587 5.36364 109.382 5.36364C111.178 5.36364 111.996 6.93182 111.996 8.68182C111.996 10.4318 111.178 11.9773 109.382 11.9773ZM116.724 7.75C116.724 6.22727 117.668 5.36364 118.952 5.36364C120.196 5.36364 120.952 6.17614 120.952 7.54545V13H122.293V7.45455C122.293 5.22727 121.105 4.15909 119.338 4.15909C118.02 4.15909 117.202 4.75 116.793 5.63636H116.679V4.27273H115.384V13H116.724V7.75ZM132.788 13.1818C135.152 13.1818 136.743 11.3864 136.743 8.68182C136.743 5.95455 135.152 4.15909 132.788 4.15909C130.425 4.15909 128.834 5.95455 128.834 8.68182C128.834 11.3864 130.425 13.1818 132.788 13.1818ZM132.788 11.9773C130.993 11.9773 130.175 10.4318 130.175 8.68182C130.175 6.93182 130.993 5.36364 132.788 5.36364C134.584 5.36364 135.402 6.93182 135.402 8.68182C135.402 10.4318 134.584 11.9773 132.788 11.9773ZM142.676 4.27273H140.722V3.38636C140.722 2.52273 141.085 2.06818 141.972 2.06818C142.358 2.06818 142.585 2.15909 142.722 2.20455L143.108 1.04545C142.903 0.954545 142.494 0.818181 141.835 0.818181C140.585 0.818181 139.381 1.56818 139.381 3.06818V4.27273H137.972V5.40909H139.381V13H140.722V5.40909H142.676V4.27273ZM149.055 16.2727H150.396V11.6591H150.51C150.805 12.1364 151.374 13.1818 153.055 13.1818C155.237 13.1818 156.76 11.4318 156.76 8.65909C156.76 5.90909 155.237 4.15909 153.033 4.15909C151.328 4.15909 150.805 5.20455 150.51 5.65909H150.351V4.27273H149.055V16.2727ZM150.374 8.63636C150.374 6.68182 151.237 5.36364 152.874 5.36364C154.578 5.36364 155.419 6.79545 155.419 8.63636C155.419 10.5 154.555 11.9773 152.874 11.9773C151.26 11.9773 150.374 10.6136 150.374 8.63636ZM158.805 13H160.146V7.47727C160.146 6.29545 161.078 5.43182 162.351 5.43182C162.709 5.43182 163.078 5.5 163.169 5.52273V4.15909C163.016 4.14773 162.663 4.13636 162.464 4.13636C161.419 4.13636 160.51 4.72727 160.192 5.59091H160.101V4.27273H158.805V13ZM164.759 13H166.099V4.27273H164.759V13ZM165.44 2.81818C165.963 2.81818 166.395 2.40909 166.395 1.90909C166.395 1.40909 165.963 1 165.44 1C164.918 1 164.486 1.40909 164.486 1.90909C164.486 2.40909 164.918 2.81818 165.44 2.81818ZM175.692 4.27273H174.237L171.828 11.2273H171.737L169.328 4.27273H167.874L171.101 13H172.464L175.692 4.27273ZM179.764 13.2045C181.287 13.2045 182.082 12.3864 182.355 11.8182H182.423V13H183.764V7.25C183.764 4.47727 181.651 4.15909 180.537 4.15909C179.219 4.15909 177.719 4.61364 177.037 6.20455L178.31 6.65909C178.605 6.02273 179.304 5.34091 180.582 5.34091C181.815 5.34091 182.423 5.99432 182.423 7.11364V7.15909C182.423 7.80682 181.764 7.75 180.173 7.95455C178.554 8.16477 176.787 8.52273 176.787 10.5227C176.787 12.2273 178.105 13.2045 179.764 13.2045ZM179.969 12C178.901 12 178.128 11.5227 178.128 10.5909C178.128 9.56818 179.06 9.25 180.105 9.11364C180.673 9.04545 182.196 8.88636 182.423 8.61364V9.84091C182.423 10.9318 181.56 12 179.969 12ZM190.007 4.27273H188.143V2.18182H186.803V4.27273H185.484V5.40909H186.803V10.8636C186.803 12.3864 188.03 13.1136 189.166 13.1136C189.666 13.1136 189.984 13.0227 190.166 12.9545L189.893 11.75C189.78 11.7727 189.598 11.8182 189.303 11.8182C188.712 11.8182 188.143 11.6364 188.143 10.5V5.40909H190.007V4.27273ZM195.589 13.1818C197.362 13.1818 198.658 12.2955 199.067 10.9773L197.771 10.6136C197.43 11.5227 196.641 11.9773 195.589 11.9773C194.016 11.9773 192.93 10.9602 192.868 9.09091H199.203V8.52273C199.203 5.27273 197.271 4.15909 195.453 4.15909C193.089 4.15909 191.521 6.02273 191.521 8.70455C191.521 11.3864 193.067 13.1818 195.589 13.1818ZM192.868 7.93182C192.959 6.57386 193.919 5.36364 195.453 5.36364C196.908 5.36364 197.839 6.45455 197.839 7.93182H192.868ZM202.584 1.36364H201.243V13H202.584V1.36364ZM205.903 16.25C207.114 16.25 207.972 15.608 208.472 14.2727L212.188 4.29545L210.722 4.27273L208.312 11.2273H208.222L205.812 4.27273H204.358L207.585 13.0455L207.335 13.7273C206.858 15.0341 206.244 15.1591 205.267 14.9091L204.926 16.0909C205.062 16.1591 205.449 16.25 205.903 16.25ZM218.462 16.2727H219.803V11.6591H219.916C220.212 12.1364 220.78 13.1818 222.462 13.1818C224.643 13.1818 226.166 11.4318 226.166 8.65909C226.166 5.90909 224.643 4.15909 222.439 4.15909C220.734 4.15909 220.212 5.20455 219.916 5.65909H219.757V4.27273H218.462V16.2727ZM219.78 8.63636C219.78 6.68182 220.643 5.36364 222.28 5.36364C223.984 5.36364 224.825 6.79545 224.825 8.63636C224.825 10.5 223.962 11.9773 222.28 11.9773C220.666 11.9773 219.78 10.6136 219.78 8.63636ZM231.871 13.1818C233.643 13.1818 234.939 12.2955 235.348 10.9773L234.053 10.6136C233.712 11.5227 232.922 11.9773 231.871 11.9773C230.297 11.9773 229.212 10.9602 229.149 9.09091H235.484V8.52273C235.484 5.27273 233.553 4.15909 231.734 4.15909C229.371 4.15909 227.803 6.02273 227.803 8.70455C227.803 11.3864 229.348 13.1818 231.871 13.1818ZM229.149 7.93182C229.24 6.57386 230.2 5.36364 231.734 5.36364C233.189 5.36364 234.121 6.45455 234.121 7.93182H229.149ZM237.524 13H238.865V7.47727C238.865 6.29545 239.797 5.43182 241.07 5.43182C241.428 5.43182 241.797 5.5 241.888 5.52273V4.15909C241.734 4.14773 241.382 4.13636 241.183 4.13636C240.138 4.13636 239.229 4.72727 238.911 5.59091H238.82V4.27273H237.524V13ZM249.659 6.22727C249.239 4.98864 248.295 4.15909 246.568 4.15909C244.727 4.15909 243.364 5.20455 243.364 6.68182C243.364 7.88636 244.08 8.69318 245.682 9.06818L247.136 9.40909C248.017 9.61364 248.432 10.0341 248.432 10.6364C248.432 11.3864 247.636 12 246.386 12C245.29 12 244.602 11.5284 244.364 10.5909L243.091 10.9091C243.403 12.392 244.625 13.1818 246.409 13.1818C248.438 13.1818 249.818 12.0739 249.818 10.5682C249.818 9.35227 249.057 8.58523 247.5 8.20455L246.205 7.88636C245.17 7.63068 244.705 7.28409 244.705 6.61364C244.705 5.86364 245.5 5.31818 246.568 5.31818C247.739 5.31818 248.222 5.96591 248.455 6.56818L249.659 6.22727ZM255.382 13.1818C257.746 13.1818 259.337 11.3864 259.337 8.68182C259.337 5.95455 257.746 4.15909 255.382 4.15909C253.018 4.15909 251.428 5.95455 251.428 8.68182C251.428 11.3864 253.018 13.1818 255.382 13.1818ZM255.382 11.9773C253.587 11.9773 252.768 10.4318 252.768 8.68182C252.768 6.93182 253.587 5.36364 255.382 5.36364C257.178 5.36364 257.996 6.93182 257.996 8.68182C257.996 10.4318 257.178 11.9773 255.382 11.9773ZM262.724 7.75C262.724 6.22727 263.668 5.36364 264.952 5.36364C266.196 5.36364 266.952 6.17614 266.952 7.54545V13H268.293V7.45455C268.293 5.22727 267.105 4.15909 265.338 4.15909C264.02 4.15909 263.202 4.75 262.793 5.63636H262.679V4.27273H261.384V13H262.724V7.75ZM273.311 13.2045C274.834 13.2045 275.629 12.3864 275.902 11.8182H275.97V13H277.311V7.25C277.311 4.47727 275.197 4.15909 274.084 4.15909C272.766 4.15909 271.266 4.61364 270.584 6.20455L271.857 6.65909C272.152 6.02273 272.851 5.34091 274.129 5.34091C275.362 5.34091 275.97 5.99432 275.97 7.11364V7.15909C275.97 7.80682 275.311 7.75 273.72 7.95455C272.101 8.16477 270.334 8.52273 270.334 10.5227C270.334 12.2273 271.652 13.2045 273.311 13.2045ZM273.516 12C272.447 12 271.675 11.5227 271.675 10.5909C271.675 9.56818 272.607 9.25 273.652 9.11364C274.22 9.04545 275.743 8.88636 275.97 8.61364V9.84091C275.97 10.9318 275.107 12 273.516 12ZM281.099 1.36364H279.759V13H281.099V1.36364ZM283.555 13H284.896V4.27273H283.555V13ZM284.237 2.81818C284.76 2.81818 285.192 2.40909 285.192 1.90909C285.192 1.40909 284.76 1 284.237 1C283.714 1 283.283 1.40909 283.283 1.90909C283.283 2.40909 283.714 2.81818 284.237 2.81818ZM287.102 13H293.943V11.75H288.966V11.6591L293.784 5.34091V4.27273H287.261V5.52273H292.057V5.61364L287.102 11.9773V13ZM299.418 13.1818C301.19 13.1818 302.486 12.2955 302.895 10.9773L301.599 10.6136C301.259 11.5227 300.469 11.9773 299.418 11.9773C297.844 11.9773 296.759 10.9602 296.696 9.09091H303.031V8.52273C303.031 5.27273 301.099 4.15909 299.281 4.15909C296.918 4.15909 295.349 6.02273 295.349 8.70455C295.349 11.3864 296.895 13.1818 299.418 13.1818ZM296.696 7.93182C296.787 6.57386 297.747 5.36364 299.281 5.36364C300.736 5.36364 301.668 6.45455 301.668 7.93182H296.696ZM308.366 13.1818C310.048 13.1818 310.616 12.1364 310.912 11.6591H311.071V13H312.366V1.36364H311.026V5.65909H310.912C310.616 5.20455 310.094 4.15909 308.389 4.15909C306.185 4.15909 304.662 5.90909 304.662 8.65909C304.662 11.4318 306.185 13.1818 308.366 13.1818ZM308.548 11.9773C306.866 11.9773 306.003 10.5 306.003 8.63636C306.003 6.79545 306.844 5.36364 308.548 5.36364C310.185 5.36364 311.048 6.68182 311.048 8.63636C311.048 10.6136 310.162 11.9773 308.548 11.9773ZM1.22727 37H2.56818V31.4773C2.56818 30.2955 3.5 29.4318 4.77273 29.4318C5.13068 29.4318 5.5 29.5 5.59091 29.5227V28.1591C5.4375 28.1477 5.08523 28.1364 4.88636 28.1364C3.84091 28.1364 2.93182 28.7273 2.61364 29.5909H2.52273V28.2727H1.22727V37ZM10.5739 37.1818C12.3466 37.1818 13.642 36.2955 14.0511 34.9773L12.7557 34.6136C12.4148 35.5227 11.625 35.9773 10.5739 35.9773C9 35.9773 7.91477 34.9602 7.85227 33.0909H14.1875V32.5227C14.1875 29.2727 12.2557 28.1591 10.4375 28.1591C8.07386 28.1591 6.50568 30.0227 6.50568 32.7045C6.50568 35.3864 8.05114 37.1818 10.5739 37.1818ZM7.85227 31.9318C7.94318 30.5739 8.90341 29.3636 10.4375 29.3636C11.892 29.3636 12.8239 30.4545 12.8239 31.9318H7.85227ZM18.7955 37.2045C20.3182 37.2045 21.1136 36.3864 21.3864 35.8182H21.4545V37H22.7955V31.25C22.7955 28.4773 20.6818 28.1591 19.5682 28.1591C18.25 28.1591 16.75 28.6136 16.0682 30.2045L17.3409 30.6591C17.6364 30.0227 18.3352 29.3409 19.6136 29.3409C20.8466 29.3409 21.4545 29.9943 21.4545 31.1136V31.1591C21.4545 31.8068 20.7955 31.75 19.2045 31.9545C17.5852 32.1648 15.8182 32.5227 15.8182 34.5227C15.8182 36.2273 17.1364 37.2045 18.7955 37.2045ZM19 36C17.9318 36 17.1591 35.5227 17.1591 34.5909C17.1591 33.5682 18.0909 33.25 19.1364 33.1136C19.7045 33.0455 21.2273 32.8864 21.4545 32.6136V33.8409C21.4545 34.9318 20.5909 36 19 36ZM28.5384 37.1818C30.2202 37.1818 30.7884 36.1364 31.0838 35.6591H31.2429V37H32.5384V25.3636H31.1974V29.6591H31.0838C30.7884 29.2045 30.2656 28.1591 28.5611 28.1591C26.3565 28.1591 24.8338 29.9091 24.8338 32.6591C24.8338 35.4318 26.3565 37.1818 28.5384 37.1818ZM28.7202 35.9773C27.0384 35.9773 26.1747 34.5 26.1747 32.6364C26.1747 30.7955 27.0156 29.3636 28.7202 29.3636C30.3565 29.3636 31.2202 30.6818 31.2202 32.6364C31.2202 34.6136 30.3338 35.9773 28.7202 35.9773ZM41.3622 30.2273C40.9418 28.9886 39.9986 28.1591 38.2713 28.1591C36.4304 28.1591 35.0668 29.2045 35.0668 30.6818C35.0668 31.8864 35.7827 32.6932 37.3849 33.0682L38.8395 33.4091C39.7202 33.6136 40.1349 34.0341 40.1349 34.6364C40.1349 35.3864 39.3395 36 38.0895 36C36.9929 36 36.3054 35.5284 36.0668 34.5909L34.794 34.9091C35.1065 36.392 36.3281 37.1818 38.1122 37.1818C40.1406 37.1818 41.5213 36.0739 41.5213 34.5682C41.5213 33.3523 40.7599 32.5852 39.2031 32.2045L37.9077 31.8864C36.8736 31.6307 36.4077 31.2841 36.4077 30.6136C36.4077 29.8636 37.2031 29.3182 38.2713 29.3182C39.4418 29.3182 39.9247 29.9659 40.1577 30.5682L41.3622 30.2273ZM45.5398 35.4091H44.0852L44.017 36.0455C43.8523 37.5852 43.5284 39.1193 43.3807 39.8409H44.4034C44.6761 39.0682 45.2557 37.3182 45.4489 36.0227L45.5398 35.4091ZM44.7216 30.6136C45.2841 30.6136 45.7443 30.1534 45.7443 29.5909C45.7443 29.0284 45.2841 28.5682 44.7216 28.5682C44.1591 28.5682 43.6989 29.0284 43.6989 29.5909C43.6989 30.1534 44.1591 30.6136 44.7216 30.6136ZM53.8651 31.75C53.8651 30.2273 54.8082 29.3636 56.0923 29.3636C57.3366 29.3636 58.0923 30.1761 58.0923 31.5455V37H59.4332V31.4545C59.4332 29.2273 58.2457 28.1591 56.4787 28.1591C55.1605 28.1591 54.3423 28.75 53.9332 29.6364H53.8196V28.2727H52.5241V37H53.8651V31.75ZM65.429 37.1818C67.7926 37.1818 69.3835 35.3864 69.3835 32.6818C69.3835 29.9545 67.7926 28.1591 65.429 28.1591C63.0653 28.1591 61.4744 29.9545 61.4744 32.6818C61.4744 35.3864 63.0653 37.1818 65.429 37.1818ZM65.429 35.9773C63.6335 35.9773 62.8153 34.4318 62.8153 32.6818C62.8153 30.9318 63.6335 29.3636 65.429 29.3636C67.2244 29.3636 68.0426 30.9318 68.0426 32.6818C68.0426 34.4318 67.2244 35.9773 65.429 35.9773ZM78.4986 37.2045C80.0213 37.2045 80.8168 36.3864 81.0895 35.8182H81.1577V37H82.4986V31.25C82.4986 28.4773 80.3849 28.1591 79.2713 28.1591C77.9531 28.1591 76.4531 28.6136 75.7713 30.2045L77.044 30.6591C77.3395 30.0227 78.0384 29.3409 79.3168 29.3409C80.5497 29.3409 81.1577 29.9943 81.1577 31.1136V31.1591C81.1577 31.8068 80.4986 31.75 78.9077 31.9545C77.2884 32.1648 75.5213 32.5227 75.5213 34.5227C75.5213 36.2273 76.8395 37.2045 78.4986 37.2045ZM78.7031 36C77.6349 36 76.8622 35.5227 76.8622 34.5909C76.8622 33.5682 77.794 33.25 78.8395 33.1136C79.4077 33.0455 80.9304 32.8864 81.1577 32.6136V33.8409C81.1577 34.9318 80.294 36 78.7031 36ZM88.4915 37.1818C90.4233 37.1818 91.696 36 91.9233 34.4545H90.5824C90.3324 35.4091 89.5369 35.9773 88.4915 35.9773C86.9006 35.9773 85.8778 34.6591 85.8778 32.6364C85.8778 30.6591 86.9233 29.3636 88.4915 29.3636C89.6733 29.3636 90.3778 30.0909 90.5824 30.8864H91.9233C91.696 29.25 90.3097 28.1591 88.4688 28.1591C86.1051 28.1591 84.5369 30.0227 84.5369 32.6818C84.5369 35.2955 86.0369 37.1818 88.4915 37.1818ZM97.429 37.1818C99.3608 37.1818 100.634 36 100.861 34.4545H99.5199C99.2699 35.4091 98.4744 35.9773 97.429 35.9773C95.8381 35.9773 94.8153 34.6591 94.8153 32.6364C94.8153 30.6591 95.8608 29.3636 97.429 29.3636C98.6108 29.3636 99.3153 30.0909 99.5199 30.8864H100.861C100.634 29.25 99.2472 28.1591 97.4062 28.1591C95.0426 28.1591 93.4744 30.0227 93.4744 32.6818C93.4744 35.2955 94.9744 37.1818 97.429 37.1818ZM106.366 37.1818C108.73 37.1818 110.321 35.3864 110.321 32.6818C110.321 29.9545 108.73 28.1591 106.366 28.1591C104.003 28.1591 102.412 29.9545 102.412 32.6818C102.412 35.3864 104.003 37.1818 106.366 37.1818ZM106.366 35.9773C104.571 35.9773 103.753 34.4318 103.753 32.6818C103.753 30.9318 104.571 29.3636 106.366 29.3636C108.162 29.3636 108.98 30.9318 108.98 32.6818C108.98 34.4318 108.162 35.9773 106.366 35.9773ZM117.868 33.4318C117.868 35.0682 116.618 35.8182 115.618 35.8182C114.504 35.8182 113.709 35 113.709 33.7273V28.2727H112.368V33.8182C112.368 36.0455 113.55 37.1136 115.186 37.1136C116.504 37.1136 117.368 36.4091 117.777 35.5227H117.868V37H119.209V28.2727H117.868V33.4318ZM123.006 31.75C123.006 30.2273 123.949 29.3636 125.233 29.3636C126.477 29.3636 127.233 30.1761 127.233 31.5455V37H128.574V31.4545C128.574 29.2273 127.386 28.1591 125.619 28.1591C124.301 28.1591 123.483 28.75 123.074 29.6364H122.96V28.2727H121.665V37H123.006V31.75ZM134.82 28.2727H132.956V26.1818H131.615V28.2727H130.297V29.4091H131.615V34.8636C131.615 36.3864 132.842 37.1136 133.979 37.1136C134.479 37.1136 134.797 37.0227 134.979 36.9545L134.706 35.75C134.592 35.7727 134.411 35.8182 134.115 35.8182C133.524 35.8182 132.956 35.6364 132.956 34.5V29.4091H134.82V28.2727ZM142.862 30.2273C142.442 28.9886 141.499 28.1591 139.771 28.1591C137.93 28.1591 136.567 29.2045 136.567 30.6818C136.567 31.8864 137.283 32.6932 138.885 33.0682L140.339 33.4091C141.22 33.6136 141.635 34.0341 141.635 34.6364C141.635 35.3864 140.839 36 139.589 36C138.493 36 137.805 35.5284 137.567 34.5909L136.294 34.9091C136.607 36.392 137.828 37.1818 139.612 37.1818C141.641 37.1818 143.021 36.0739 143.021 34.5682C143.021 33.3523 142.26 32.5852 140.703 32.2045L139.408 31.8864C138.374 31.6307 137.908 31.2841 137.908 30.6136C137.908 29.8636 138.703 29.3182 139.771 29.3182C140.942 29.3182 141.425 29.9659 141.658 30.5682L142.862 30.2273ZM153.085 37.1818C155.449 37.1818 157.04 35.3864 157.04 32.6818C157.04 29.9545 155.449 28.1591 153.085 28.1591C150.722 28.1591 149.131 29.9545 149.131 32.6818C149.131 35.3864 150.722 37.1818 153.085 37.1818ZM153.085 35.9773C151.29 35.9773 150.472 34.4318 150.472 32.6818C150.472 30.9318 151.29 29.3636 153.085 29.3636C154.881 29.3636 155.699 30.9318 155.699 32.6818C155.699 34.4318 154.881 35.9773 153.085 35.9773ZM159.087 37H160.428V31.4773C160.428 30.2955 161.359 29.4318 162.632 29.4318C162.99 29.4318 163.359 29.5 163.45 29.5227V28.1591C163.297 28.1477 162.945 28.1364 162.746 28.1364C161.7 28.1364 160.791 28.7273 160.473 29.5909H160.382V28.2727H159.087V37ZM175.722 30.2273C175.301 28.9886 174.358 28.1591 172.631 28.1591C170.79 28.1591 169.426 29.2045 169.426 30.6818C169.426 31.8864 170.142 32.6932 171.744 33.0682L173.199 33.4091C174.08 33.6136 174.494 34.0341 174.494 34.6364C174.494 35.3864 173.699 36 172.449 36C171.352 36 170.665 35.5284 170.426 34.5909L169.153 34.9091C169.466 36.392 170.688 37.1818 172.472 37.1818C174.5 37.1818 175.881 36.0739 175.881 34.5682C175.881 33.3523 175.119 32.5852 173.562 32.2045L172.267 31.8864C171.233 31.6307 170.767 31.2841 170.767 30.6136C170.767 29.8636 171.562 29.3182 172.631 29.3182C173.801 29.3182 174.284 29.9659 174.517 30.5682L175.722 30.2273ZM177.899 37H179.24V28.2727H177.899V37ZM178.581 26.8182C179.104 26.8182 179.536 26.4091 179.536 25.9091C179.536 25.4091 179.104 25 178.581 25C178.058 25 177.626 25.4091 177.626 25.9091C177.626 26.4091 178.058 26.8182 178.581 26.8182ZM185.219 40.4545C187.31 40.4545 188.991 39.5 188.991 37.25V28.2727H187.696V29.6591H187.56C187.264 29.2045 186.719 28.1591 185.014 28.1591C182.81 28.1591 181.287 29.9091 181.287 32.5909C181.287 35.3182 182.878 36.8636 184.991 36.8636C186.696 36.8636 187.241 35.8636 187.537 35.3864H187.651V37.1591C187.651 38.6136 186.628 39.2727 185.219 39.2727C183.634 39.2727 183.077 38.4375 182.719 37.9545L181.651 38.7045C182.196 39.6193 183.27 40.4545 185.219 40.4545ZM185.173 35.6591C183.491 35.6591 182.628 34.3864 182.628 32.5682C182.628 30.7955 183.469 29.3636 185.173 29.3636C186.81 29.3636 187.673 30.6818 187.673 32.5682C187.673 34.5 186.787 35.6591 185.173 35.6591ZM192.787 31.75C192.787 30.2273 193.73 29.3636 195.014 29.3636C196.259 29.3636 197.014 30.1761 197.014 31.5455V37H198.355V31.4545C198.355 29.2273 197.168 28.1591 195.401 28.1591C194.082 28.1591 193.264 28.75 192.855 29.6364H192.741V28.2727H191.446V37H192.787V31.75ZM205.805 31.3864H200.714V32.6364H205.805V31.3864ZM213.665 33.4318C213.665 35.0682 212.415 35.8182 211.415 35.8182C210.301 35.8182 209.506 35 209.506 33.7273V28.2727H208.165V33.8182C208.165 36.0455 209.347 37.1136 210.983 37.1136C212.301 37.1136 213.165 36.4091 213.574 35.5227H213.665V37H215.006V28.2727H213.665V33.4318ZM217.462 40.2727H218.803V35.6591H218.916C219.212 36.1364 219.78 37.1818 221.462 37.1818C223.643 37.1818 225.166 35.4318 225.166 32.6591C225.166 29.9091 223.643 28.1591 221.439 28.1591C219.734 28.1591 219.212 29.2045 218.916 29.6591H218.757V28.2727H217.462V40.2727ZM218.78 32.6364C218.78 30.6818 219.643 29.3636 221.28 29.3636C222.984 29.3636 223.825 30.7955 223.825 32.6364C223.825 34.5 222.962 35.9773 221.28 35.9773C219.666 35.9773 218.78 34.6136 218.78 32.6364ZM233.393 30.2273C232.973 28.9886 232.03 28.1591 230.303 28.1591C228.462 28.1591 227.098 29.2045 227.098 30.6818C227.098 31.8864 227.814 32.6932 229.416 33.0682L230.871 33.4091C231.751 33.6136 232.166 34.0341 232.166 34.6364C232.166 35.3864 231.371 36 230.121 36C229.024 36 228.337 35.5284 228.098 34.5909L226.825 34.9091C227.138 36.392 228.359 37.1818 230.143 37.1818C232.172 37.1818 233.553 36.0739 233.553 34.5682C233.553 33.3523 232.791 32.5852 231.234 32.2045L229.939 31.8864C228.905 31.6307 228.439 31.2841 228.439 30.6136C228.439 29.8636 229.234 29.3182 230.303 29.3182C231.473 29.3182 231.956 29.9659 232.189 30.5682L233.393 30.2273ZM240.071 37H241.412V31.4773C241.412 30.2955 242.344 29.4318 243.616 29.4318C243.974 29.4318 244.344 29.5 244.435 29.5227V28.1591C244.281 28.1477 243.929 28.1364 243.73 28.1364C242.685 28.1364 241.776 28.7273 241.457 29.5909H241.366V28.2727H240.071V37ZM249.418 37.1818C251.19 37.1818 252.486 36.2955 252.895 34.9773L251.599 34.6136C251.259 35.5227 250.469 35.9773 249.418 35.9773C247.844 35.9773 246.759 34.9602 246.696 33.0909H253.031V32.5227C253.031 29.2727 251.099 28.1591 249.281 28.1591C246.918 28.1591 245.349 30.0227 245.349 32.7045C245.349 35.3864 246.895 37.1818 249.418 37.1818ZM246.696 31.9318C246.787 30.5739 247.747 29.3636 249.281 29.3636C250.736 29.3636 251.668 30.4545 251.668 31.9318H246.696ZM262.366 40.2727V28.2727H261.071V29.6591H260.912C260.616 29.2045 260.094 28.1591 258.389 28.1591C256.185 28.1591 254.662 29.9091 254.662 32.6591C254.662 35.4318 256.185 37.1818 258.366 37.1818C260.048 37.1818 260.616 36.1364 260.912 35.6591H261.026V40.2727H262.366ZM261.048 32.6364C261.048 34.6136 260.162 35.9773 258.548 35.9773C256.866 35.9773 256.003 34.5 256.003 32.6364C256.003 30.7955 256.844 29.3636 258.548 29.3636C260.185 29.3636 261.048 30.6818 261.048 32.6364ZM270.321 33.4318C270.321 35.0682 269.071 35.8182 268.071 35.8182C266.957 35.8182 266.162 35 266.162 33.7273V28.2727H264.821V33.8182C264.821 36.0455 266.003 37.1136 267.639 37.1136C268.957 37.1136 269.821 36.4091 270.23 35.5227H270.321V37H271.662V28.2727H270.321V33.4318ZM274.118 37H275.459V28.2727H274.118V37ZM274.8 26.8182C275.322 26.8182 275.754 26.4091 275.754 25.9091C275.754 25.4091 275.322 25 274.8 25C274.277 25 273.845 25.4091 273.845 25.9091C273.845 26.4091 274.277 26.8182 274.8 26.8182ZM277.915 37H279.256V31.4773C279.256 30.2955 280.188 29.4318 281.46 29.4318C281.818 29.4318 282.188 29.5 282.278 29.5227V28.1591C282.125 28.1477 281.773 28.1364 281.574 28.1364C280.528 28.1364 279.619 28.7273 279.301 29.5909H279.21V28.2727H277.915V37ZM287.261 37.1818C289.034 37.1818 290.33 36.2955 290.739 34.9773L289.443 34.6136C289.102 35.5227 288.312 35.9773 287.261 35.9773C285.688 35.9773 284.602 34.9602 284.54 33.0909H290.875V32.5227C290.875 29.2727 288.943 28.1591 287.125 28.1591C284.761 28.1591 283.193 30.0227 283.193 32.7045C283.193 35.3864 284.739 37.1818 287.261 37.1818ZM284.54 31.9318C284.631 30.5739 285.591 29.3636 287.125 29.3636C288.58 29.3636 289.511 30.4545 289.511 31.9318H284.54ZM296.21 37.1818C297.892 37.1818 298.46 36.1364 298.756 35.6591H298.915V37H300.21V25.3636H298.869V29.6591H298.756C298.46 29.2045 297.938 28.1591 296.233 28.1591C294.028 28.1591 292.506 29.9091 292.506 32.6591C292.506 35.4318 294.028 37.1818 296.21 37.1818ZM296.392 35.9773C294.71 35.9773 293.847 34.5 293.847 32.6364C293.847 30.7955 294.688 29.3636 296.392 29.3636C298.028 29.3636 298.892 30.6818 298.892 32.6364C298.892 34.6136 298.006 35.9773 296.392 35.9773ZM303.83 37.0909C304.392 37.0909 304.852 36.6307 304.852 36.0682C304.852 35.5057 304.392 35.0455 303.83 35.0455C303.267 35.0455 302.807 35.5057 302.807 36.0682C302.807 36.6307 303.267 37.0909 303.83 37.0909ZM2.56818 55.75C2.56818 54.2273 3.53977 53.3636 4.86364 53.3636C6.125 53.3636 6.88636 54.1591 6.88636 55.5455V61H8.22727V55.4545C8.22727 53.2102 7.03409 52.1591 5.25 52.1591C3.875 52.1591 3.09091 52.733 2.68182 53.6364H2.56818V49.3636H1.22727V61H2.56818V55.75ZM13.2486 61.2045C14.7713 61.2045 15.5668 60.3864 15.8395 59.8182H15.9077V61H17.2486V55.25C17.2486 52.4773 15.1349 52.1591 14.0213 52.1591C12.7031 52.1591 11.2031 52.6136 10.5213 54.2045L11.794 54.6591C12.0895 54.0227 12.7884 53.3409 14.0668 53.3409C15.2997 53.3409 15.9077 53.9943 15.9077 55.1136V55.1591C15.9077 55.8068 15.2486 55.75 13.6577 55.9545C12.0384 56.1648 10.2713 56.5227 10.2713 58.5227C10.2713 60.2273 11.5895 61.2045 13.2486 61.2045ZM13.4531 60C12.3849 60 11.6122 59.5227 11.6122 58.5909C11.6122 57.5682 12.544 57.25 13.5895 57.1136C14.1577 57.0455 15.6804 56.8864 15.9077 56.6136V57.8409C15.9077 58.9318 15.044 60 13.4531 60ZM25.8778 54.2273C25.4574 52.9886 24.5142 52.1591 22.7869 52.1591C20.946 52.1591 19.5824 53.2045 19.5824 54.6818C19.5824 55.8864 20.2983 56.6932 21.9006 57.0682L23.3551 57.4091C24.2358 57.6136 24.6506 58.0341 24.6506 58.6364C24.6506 59.3864 23.8551 60 22.6051 60C21.5085 60 20.821 59.5284 20.5824 58.5909L19.3097 58.9091C19.6222 60.392 20.8438 61.1818 22.6278 61.1818C24.6562 61.1818 26.0369 60.0739 26.0369 58.5682C26.0369 57.3523 25.2756 56.5852 23.7188 56.2045L22.4233 55.8864C21.3892 55.6307 20.9233 55.2841 20.9233 54.6136C20.9233 53.8636 21.7188 53.3182 22.7869 53.3182C23.9574 53.3182 24.4403 53.9659 24.6733 54.5682L25.8778 54.2273ZM32.7372 61H34.0327V59.6591H34.1918C34.4872 60.1364 35.0554 61.1818 36.7372 61.1818C38.919 61.1818 40.4418 59.4318 40.4418 56.6591C40.4418 53.9091 38.919 52.1591 36.7145 52.1591C35.0099 52.1591 34.4872 53.2045 34.1918 53.6591H34.0781V49.3636H32.7372V61ZM34.0554 56.6364C34.0554 54.6818 34.919 53.3636 36.5554 53.3636C38.2599 53.3636 39.1009 54.7955 39.1009 56.6364C39.1009 58.5 38.2372 59.9773 36.5554 59.9773C34.9418 59.9773 34.0554 58.6136 34.0554 56.6364ZM46.152 61.1818C47.9247 61.1818 49.2202 60.2955 49.6293 58.9773L48.3338 58.6136C47.9929 59.5227 47.2031 59.9773 46.152 59.9773C44.5781 59.9773 43.4929 58.9602 43.4304 57.0909H49.7656V56.5227C49.7656 53.2727 47.8338 52.1591 46.0156 52.1591C43.652 52.1591 42.0838 54.0227 42.0838 56.7045C42.0838 59.3864 43.6293 61.1818 46.152 61.1818ZM43.4304 55.9318C43.5213 54.5739 44.4815 53.3636 46.0156 53.3636C47.4702 53.3636 48.402 54.4545 48.402 55.9318H43.4304ZM55.4645 61.1818C57.2372 61.1818 58.5327 60.2955 58.9418 58.9773L57.6463 58.6136C57.3054 59.5227 56.5156 59.9773 55.4645 59.9773C53.8906 59.9773 52.8054 58.9602 52.7429 57.0909H59.0781V56.5227C59.0781 53.2727 57.1463 52.1591 55.3281 52.1591C52.9645 52.1591 51.3963 54.0227 51.3963 56.7045C51.3963 59.3864 52.9418 61.1818 55.4645 61.1818ZM52.7429 55.9318C52.8338 54.5739 53.794 53.3636 55.3281 53.3636C56.7827 53.3636 57.7145 54.4545 57.7145 55.9318H52.7429ZM62.4588 55.75C62.4588 54.2273 63.402 53.3636 64.6861 53.3636C65.9304 53.3636 66.6861 54.1761 66.6861 55.5455V61H68.027V55.4545C68.027 53.2273 66.8395 52.1591 65.0724 52.1591C63.7543 52.1591 62.9361 52.75 62.527 53.6364H62.4134V52.2727H61.1179V61H62.4588V55.75ZM78.7727 52.2727H76.9091V50.1818H75.5682V52.2727H74.25V53.4091H75.5682V58.8636C75.5682 60.3864 76.7955 61.1136 77.9318 61.1136C78.4318 61.1136 78.75 61.0227 78.9318 60.9545L78.6591 59.75C78.5455 59.7727 78.3636 59.8182 78.0682 59.8182C77.4773 59.8182 76.9091 59.6364 76.9091 58.5V53.4091H78.7727V52.2727ZM82.3182 55.75C82.3182 54.2273 83.2898 53.3636 84.6136 53.3636C85.875 53.3636 86.6364 54.1591 86.6364 55.5455V61H87.9773V55.4545C87.9773 53.2102 86.7841 52.1591 85 52.1591C83.625 52.1591 82.8409 52.733 82.4318 53.6364H82.3182V49.3636H80.9773V61H82.3182V55.75ZM94.0895 61.1818C95.8622 61.1818 97.1577 60.2955 97.5668 58.9773L96.2713 58.6136C95.9304 59.5227 95.1406 59.9773 94.0895 59.9773C92.5156 59.9773 91.4304 58.9602 91.3679 57.0909H97.7031V56.5227C97.7031 53.2727 95.7713 52.1591 93.9531 52.1591C91.5895 52.1591 90.0213 54.0227 90.0213 56.7045C90.0213 59.3864 91.5668 61.1818 94.0895 61.1818ZM91.3679 55.9318C91.4588 54.5739 92.419 53.3636 93.9531 53.3636C95.4077 53.3636 96.3395 54.4545 96.3395 55.9318H91.3679ZM104.243 61H105.584V52.2727H104.243V61ZM104.925 50.8182C105.447 50.8182 105.879 50.4091 105.879 49.9091C105.879 49.4091 105.447 49 104.925 49C104.402 49 103.97 49.4091 103.97 49.9091C103.97 50.4091 104.402 50.8182 104.925 50.8182ZM109.381 55.75C109.381 54.2273 110.324 53.3636 111.608 53.3636C112.852 53.3636 113.608 54.1761 113.608 55.5455V61H114.949V55.4545C114.949 53.2273 113.761 52.1591 111.994 52.1591C110.676 52.1591 109.858 52.75 109.449 53.6364H109.335V52.2727H108.04V61H109.381V55.75ZM120.695 61.1818C122.376 61.1818 122.945 60.1364 123.24 59.6591H123.399V61H124.695V49.3636H123.354V53.6591H123.24C122.945 53.2045 122.422 52.1591 120.717 52.1591C118.513 52.1591 116.99 53.9091 116.99 56.6591C116.99 59.4318 118.513 61.1818 120.695 61.1818ZM120.876 59.9773C119.195 59.9773 118.331 58.5 118.331 56.6364C118.331 54.7955 119.172 53.3636 120.876 53.3636C122.513 53.3636 123.376 54.6818 123.376 56.6364C123.376 58.6136 122.49 59.9773 120.876 59.9773ZM132.837 57.4318C132.837 59.0682 131.587 59.8182 130.587 59.8182C129.473 59.8182 128.678 59 128.678 57.7273V52.2727H127.337V57.8182C127.337 60.0455 128.518 61.1136 130.155 61.1136C131.473 61.1136 132.337 60.4091 132.746 59.5227H132.837V61H134.178V52.2727H132.837V57.4318ZM142.815 54.2273C142.395 52.9886 141.452 52.1591 139.724 52.1591C137.884 52.1591 136.52 53.2045 136.52 54.6818C136.52 55.8864 137.236 56.6932 138.838 57.0682L140.293 57.4091C141.173 57.6136 141.588 58.0341 141.588 58.6364C141.588 59.3864 140.793 60 139.543 60C138.446 60 137.759 59.5284 137.52 58.5909L136.247 58.9091C136.56 60.392 137.781 61.1818 139.565 61.1818C141.594 61.1818 142.974 60.0739 142.974 58.5682C142.974 57.3523 142.213 56.5852 140.656 56.2045L139.361 55.8864C138.327 55.6307 137.861 55.2841 137.861 54.6136C137.861 53.8636 138.656 53.3182 139.724 53.3182C140.895 53.3182 141.378 53.9659 141.611 54.5682L142.815 54.2273ZM148.788 52.2727H146.925V50.1818H145.584V52.2727H144.266V53.4091H145.584V58.8636C145.584 60.3864 146.811 61.1136 147.947 61.1136C148.447 61.1136 148.766 61.0227 148.947 60.9545L148.675 59.75C148.561 59.7727 148.379 59.8182 148.084 59.8182C147.493 59.8182 146.925 59.6364 146.925 58.5V53.4091H148.788V52.2727ZM150.805 61H152.146V55.4773C152.146 54.2955 153.078 53.4318 154.351 53.4318C154.709 53.4318 155.078 53.5 155.169 53.5227V52.1591C155.016 52.1477 154.663 52.1364 154.464 52.1364C153.419 52.1364 152.51 52.7273 152.192 53.5909H152.101V52.2727H150.805V61ZM157.888 64.25C159.098 64.25 159.956 63.608 160.456 62.2727L164.172 52.2955L162.706 52.2727L160.297 59.2273H160.206L157.797 52.2727H156.342L159.57 61.0455L159.32 61.7273C158.842 63.0341 158.229 63.1591 157.251 62.9091L156.911 64.0909C157.047 64.1591 157.433 64.25 157.888 64.25ZM167.105 49.3636H165.855V53.3636H167.105V49.3636ZM175.675 54.2273C175.254 52.9886 174.311 52.1591 172.584 52.1591C170.743 52.1591 169.379 53.2045 169.379 54.6818C169.379 55.8864 170.095 56.6932 171.697 57.0682L173.152 57.4091C174.033 57.6136 174.447 58.0341 174.447 58.6364C174.447 59.3864 173.652 60 172.402 60C171.305 60 170.618 59.5284 170.379 58.5909L169.107 58.9091C169.419 60.392 170.641 61.1818 172.425 61.1818C174.453 61.1818 175.834 60.0739 175.834 58.5682C175.834 57.3523 175.072 56.5852 173.516 56.2045L172.22 55.8864C171.186 55.6307 170.72 55.2841 170.72 54.6136C170.72 53.8636 171.516 53.3182 172.584 53.3182C173.754 53.3182 174.237 53.9659 174.47 54.5682L175.675 54.2273ZM188.534 54.2273C188.114 52.9886 187.17 52.1591 185.443 52.1591C183.602 52.1591 182.239 53.2045 182.239 54.6818C182.239 55.8864 182.955 56.6932 184.557 57.0682L186.011 57.4091C186.892 57.6136 187.307 58.0341 187.307 58.6364C187.307 59.3864 186.511 60 185.261 60C184.165 60 183.477 59.5284 183.239 58.5909L181.966 58.9091C182.278 60.392 183.5 61.1818 185.284 61.1818C187.312 61.1818 188.693 60.0739 188.693 58.5682C188.693 57.3523 187.932 56.5852 186.375 56.2045L185.08 55.8864C184.045 55.6307 183.58 55.2841 183.58 54.6136C183.58 53.8636 184.375 53.3182 185.443 53.3182C186.614 53.3182 187.097 53.9659 187.33 54.5682L188.534 54.2273ZM194.507 52.2727H192.643V50.1818H191.303V52.2727H189.984V53.4091H191.303V58.8636C191.303 60.3864 192.53 61.1136 193.666 61.1136C194.166 61.1136 194.484 61.0227 194.666 60.9545L194.393 59.75C194.28 59.7727 194.098 59.8182 193.803 59.8182C193.212 59.8182 192.643 59.6364 192.643 58.5V53.4091H194.507V52.2727ZM199.092 61.2045C200.615 61.2045 201.411 60.3864 201.683 59.8182H201.751V61H203.092V55.25C203.092 52.4773 200.979 52.1591 199.865 52.1591C198.547 52.1591 197.047 52.6136 196.365 54.2045L197.638 54.6591C197.933 54.0227 198.632 53.3409 199.911 53.3409C201.143 53.3409 201.751 53.9943 201.751 55.1136V55.1591C201.751 55.8068 201.092 55.75 199.501 55.9545C197.882 56.1648 196.115 56.5227 196.115 58.5227C196.115 60.2273 197.433 61.2045 199.092 61.2045ZM199.297 60C198.229 60 197.456 59.5227 197.456 58.5909C197.456 57.5682 198.388 57.25 199.433 57.1136C200.001 57.0455 201.524 56.8864 201.751 56.6136V57.8409C201.751 58.9318 200.888 60 199.297 60ZM206.881 55.75C206.881 54.2273 207.824 53.3636 209.108 53.3636C210.352 53.3636 211.108 54.1761 211.108 55.5455V61H212.449V55.4545C212.449 53.2273 211.261 52.1591 209.494 52.1591C208.176 52.1591 207.358 52.75 206.949 53.6364H206.835V52.2727H205.54V61H206.881V55.75ZM218.195 61.1818C219.876 61.1818 220.445 60.1364 220.74 59.6591H220.899V61H222.195V49.3636H220.854V53.6591H220.74C220.445 53.2045 219.922 52.1591 218.217 52.1591C216.013 52.1591 214.49 53.9091 214.49 56.6591C214.49 59.4318 216.013 61.1818 218.195 61.1818ZM218.376 59.9773C216.695 59.9773 215.831 58.5 215.831 56.6364C215.831 54.7955 216.672 53.3636 218.376 53.3636C220.013 53.3636 220.876 54.6818 220.876 56.6364C220.876 58.6136 219.99 59.9773 218.376 59.9773ZM227.405 61.2045C228.928 61.2045 229.723 60.3864 229.996 59.8182H230.064V61H231.405V55.25C231.405 52.4773 229.291 52.1591 228.178 52.1591C226.859 52.1591 225.359 52.6136 224.678 54.2045L225.95 54.6591C226.246 54.0227 226.945 53.3409 228.223 53.3409C229.456 53.3409 230.064 53.9943 230.064 55.1136V55.1591C230.064 55.8068 229.405 55.75 227.814 55.9545C226.195 56.1648 224.428 56.5227 224.428 58.5227C224.428 60.2273 225.746 61.2045 227.405 61.2045ZM227.609 60C226.541 60 225.768 59.5227 225.768 58.5909C225.768 57.5682 226.7 57.25 227.746 57.1136C228.314 57.0455 229.837 56.8864 230.064 56.6136V57.8409C230.064 58.9318 229.2 60 227.609 60ZM233.852 61H235.193V55.4773C235.193 54.2955 236.125 53.4318 237.398 53.4318C237.756 53.4318 238.125 53.5 238.216 53.5227V52.1591C238.062 52.1477 237.71 52.1364 237.511 52.1364C236.466 52.1364 235.557 52.7273 235.239 53.5909H235.148V52.2727H233.852V61ZM242.835 61.1818C244.517 61.1818 245.085 60.1364 245.381 59.6591H245.54V61H246.835V49.3636H245.494V53.6591H245.381C245.085 53.2045 244.562 52.1591 242.858 52.1591C240.653 52.1591 239.131 53.9091 239.131 56.6591C239.131 59.4318 240.653 61.1818 242.835 61.1818ZM243.017 59.9773C241.335 59.9773 240.472 58.5 240.472 56.6364C240.472 54.7955 241.312 53.3636 243.017 53.3636C244.653 53.3636 245.517 54.6818 245.517 56.6364C245.517 58.6136 244.631 59.9773 243.017 59.9773ZM257.273 61.1818C258.955 61.1818 259.523 60.1364 259.818 59.6591H259.977V61H261.273V49.3636H259.932V53.6591H259.818C259.523 53.2045 259 52.1591 257.295 52.1591C255.091 52.1591 253.568 53.9091 253.568 56.6591C253.568 59.4318 255.091 61.1818 257.273 61.1818ZM257.455 59.9773C255.773 59.9773 254.909 58.5 254.909 56.6364C254.909 54.7955 255.75 53.3636 257.455 53.3636C259.091 53.3636 259.955 54.6818 259.955 56.6364C259.955 58.6136 259.068 59.9773 257.455 59.9773ZM269.415 57.4318C269.415 59.0682 268.165 59.8182 267.165 59.8182C266.051 59.8182 265.256 59 265.256 57.7273V52.2727H263.915V57.8182C263.915 60.0455 265.097 61.1136 266.733 61.1136C268.051 61.1136 268.915 60.4091 269.324 59.5227H269.415V61H270.756V52.2727H269.415V57.4318ZM273.212 61H274.553V55.5455C274.553 54.267 275.484 53.3636 276.53 53.3636C277.547 53.3636 278.257 54.0284 278.257 55.0227V61H279.621V55.3182C279.621 54.1932 280.325 53.3636 281.553 53.3636C282.507 53.3636 283.325 53.8693 283.325 55.1591V61H284.666V55.1591C284.666 53.108 283.564 52.1591 282.007 52.1591C280.757 52.1591 279.842 52.733 279.393 53.6364H279.303C278.871 52.7045 278.109 52.1591 276.962 52.1591C275.825 52.1591 274.984 52.7045 274.621 53.6364H274.507V52.2727H273.212V61ZM287.118 61H288.459V55.5455C288.459 54.267 289.391 53.3636 290.436 53.3636C291.453 53.3636 292.163 54.0284 292.163 55.0227V61H293.527V55.3182C293.527 54.1932 294.232 53.3636 295.459 53.3636C296.413 53.3636 297.232 53.8693 297.232 55.1591V61H298.572V55.1591C298.572 53.108 297.47 52.1591 295.913 52.1591C294.663 52.1591 293.749 52.733 293.3 53.6364H293.209C292.777 52.7045 292.016 52.1591 290.868 52.1591C289.732 52.1591 288.891 52.7045 288.527 53.6364H288.413V52.2727H287.118V61ZM301.575 64.25C302.786 64.25 303.643 63.608 304.143 62.2727L307.859 52.2955L306.393 52.2727L303.984 59.2273H303.893L301.484 52.2727H300.03L303.257 61.0455L303.007 61.7273C302.53 63.0341 301.916 63.1591 300.939 62.9091L300.598 64.0909C300.734 64.1591 301.121 64.25 301.575 64.25ZM5.02273 76.2727H3.15909V74.1818H1.81818V76.2727H0.5V77.4091H1.81818V82.8636C1.81818 84.3864 3.04545 85.1136 4.18182 85.1136C4.68182 85.1136 5 85.0227 5.18182 84.9545L4.90909 83.75C4.79545 83.7727 4.61364 83.8182 4.31818 83.8182C3.72727 83.8182 3.15909 83.6364 3.15909 82.5V77.4091H5.02273V76.2727ZM10.6051 85.1818C12.3778 85.1818 13.6733 84.2955 14.0824 82.9773L12.7869 82.6136C12.446 83.5227 11.6562 83.9773 10.6051 83.9773C9.03125 83.9773 7.94602 82.9602 7.88352 81.0909H14.2188V80.5227C14.2188 77.2727 12.2869 76.1591 10.4688 76.1591C8.10511 76.1591 6.53693 78.0227 6.53693 80.7045C6.53693 83.3864 8.08239 85.1818 10.6051 85.1818ZM7.88352 79.9318C7.97443 78.5739 8.93466 77.3636 10.4688 77.3636C11.9233 77.3636 12.8551 78.4545 12.8551 79.9318H7.88352ZM17.0241 76.2727H15.4787L18.2514 80.6364L15.4787 85H17.0241L19.1151 81.6136L21.206 85H22.7514L19.9332 80.6364L22.7514 76.2727H21.206L19.1151 79.8409L17.0241 76.2727ZM28.4602 76.2727H26.5966V74.1818H25.2557V76.2727H23.9375V77.4091H25.2557V82.8636C25.2557 84.3864 26.483 85.1136 27.6193 85.1136C28.1193 85.1136 28.4375 85.0227 28.6193 84.9545L28.3466 83.75C28.233 83.7727 28.0511 83.8182 27.7557 83.8182C27.1648 83.8182 26.5966 83.6364 26.5966 82.5V77.4091H28.4602V76.2727ZM38.6364 85.1818C40.4091 85.1818 41.7045 84.2955 42.1136 82.9773L40.8182 82.6136C40.4773 83.5227 39.6875 83.9773 38.6364 83.9773C37.0625 83.9773 35.9773 82.9602 35.9148 81.0909H42.25V80.5227C42.25 77.2727 40.3182 76.1591 38.5 76.1591C36.1364 76.1591 34.5682 78.0227 34.5682 80.7045C34.5682 83.3864 36.1136 85.1818 38.6364 85.1818ZM35.9148 79.9318C36.0057 78.5739 36.9659 77.3636 38.5 77.3636C39.9545 77.3636 40.8864 78.4545 40.8864 79.9318H35.9148ZM51.4261 76.2727H49.9716L47.5625 83.2273H47.4716L45.0625 76.2727H43.608L46.8352 85H48.1989L51.4261 76.2727ZM56.5426 85.1818C58.3153 85.1818 59.6108 84.2955 60.0199 82.9773L58.7244 82.6136C58.3835 83.5227 57.5938 83.9773 56.5426 83.9773C54.9688 83.9773 53.8835 82.9602 53.821 81.0909H60.1562V80.5227C60.1562 77.2727 58.2244 76.1591 56.4062 76.1591C54.0426 76.1591 52.4744 78.0227 52.4744 80.7045C52.4744 83.3864 54.0199 85.1818 56.5426 85.1818ZM53.821 79.9318C53.9119 78.5739 54.8722 77.3636 56.4062 77.3636C57.8608 77.3636 58.7926 78.4545 58.7926 79.9318H53.821ZM62.196 85H63.5369V79.4773C63.5369 78.2955 64.4688 77.4318 65.7415 77.4318C66.0994 77.4318 66.4688 77.5 66.5597 77.5227V76.1591C66.4062 76.1477 66.054 76.1364 65.8551 76.1364C64.8097 76.1364 63.9006 76.7273 63.5824 77.5909H63.4915V76.2727H62.196V85ZM78.831 78.2273C78.4105 76.9886 77.4673 76.1591 75.7401 76.1591C73.8991 76.1591 72.5355 77.2045 72.5355 78.6818C72.5355 79.8864 73.2514 80.6932 74.8537 81.0682L76.3082 81.4091C77.1889 81.6136 77.6037 82.0341 77.6037 82.6364C77.6037 83.3864 76.8082 84 75.5582 84C74.4616 84 73.7741 83.5284 73.5355 82.5909L72.2628 82.9091C72.5753 84.392 73.7969 85.1818 75.581 85.1818C77.6094 85.1818 78.9901 84.0739 78.9901 82.5682C78.9901 81.3523 78.2287 80.5852 76.6719 80.2045L75.3764 79.8864C74.3423 79.6307 73.8764 79.2841 73.8764 78.6136C73.8764 77.8636 74.6719 77.3182 75.7401 77.3182C76.9105 77.3182 77.3935 77.9659 77.6264 78.5682L78.831 78.2273ZM81.0085 85H82.3494V76.2727H81.0085V85ZM81.6903 74.8182C82.2131 74.8182 82.6449 74.4091 82.6449 73.9091C82.6449 73.4091 82.2131 73 81.6903 73C81.1676 73 80.7358 73.4091 80.7358 73.9091C80.7358 74.4091 81.1676 74.8182 81.6903 74.8182ZM86.1463 79.75C86.1463 78.2273 87.0895 77.3636 88.3736 77.3636C89.6179 77.3636 90.3736 78.1761 90.3736 79.5455V85H91.7145V79.4545C91.7145 77.2273 90.527 76.1591 88.7599 76.1591C87.4418 76.1591 86.6236 76.75 86.2145 77.6364H86.1009V76.2727H84.8054V85H86.1463V79.75ZM97.7102 85.1818C99.642 85.1818 100.915 84 101.142 82.4545H99.8011C99.5511 83.4091 98.7557 83.9773 97.7102 83.9773C96.1193 83.9773 95.0966 82.6591 95.0966 80.6364C95.0966 78.6591 96.142 77.3636 97.7102 77.3636C98.892 77.3636 99.5966 78.0909 99.8011 78.8864H101.142C100.915 77.25 99.5284 76.1591 97.6875 76.1591C95.3239 76.1591 93.7557 78.0227 93.7557 80.6818C93.7557 83.2955 95.2557 85.1818 97.7102 85.1818ZM106.761 85.1818C108.534 85.1818 109.83 84.2955 110.239 82.9773L108.943 82.6136C108.602 83.5227 107.812 83.9773 106.761 83.9773C105.188 83.9773 104.102 82.9602 104.04 81.0909H110.375V80.5227C110.375 77.2727 108.443 76.1591 106.625 76.1591C104.261 76.1591 102.693 78.0227 102.693 80.7045C102.693 83.3864 104.239 85.1818 106.761 85.1818ZM104.04 79.9318C104.131 78.5739 105.091 77.3636 106.625 77.3636C108.08 77.3636 109.011 78.4545 109.011 79.9318H104.04ZM120.71 76.2727H118.847V74.1818H117.506V76.2727H116.188V77.4091H117.506V82.8636C117.506 84.3864 118.733 85.1136 119.869 85.1136C120.369 85.1136 120.688 85.0227 120.869 84.9545L120.597 83.75C120.483 83.7727 120.301 83.8182 120.006 83.8182C119.415 83.8182 118.847 83.6364 118.847 82.5V77.4091H120.71V76.2727ZM124.256 79.75C124.256 78.2273 125.227 77.3636 126.551 77.3636C127.812 77.3636 128.574 78.1591 128.574 79.5455V85H129.915V79.4545C129.915 77.2102 128.722 76.1591 126.938 76.1591C125.562 76.1591 124.778 76.733 124.369 77.6364H124.256V73.3636H122.915V85H124.256V79.75ZM136.027 85.1818C137.8 85.1818 139.095 84.2955 139.504 82.9773L138.209 82.6136C137.868 83.5227 137.078 83.9773 136.027 83.9773C134.453 83.9773 133.368 82.9602 133.305 81.0909H139.641V80.5227C139.641 77.2727 137.709 76.1591 135.891 76.1591C133.527 76.1591 131.959 78.0227 131.959 80.7045C131.959 83.3864 133.504 85.1818 136.027 85.1818ZM133.305 79.9318C133.396 78.5739 134.357 77.3636 135.891 77.3636C137.345 77.3636 138.277 78.4545 138.277 79.9318H133.305ZM150.249 73.3636H148.839L145.93 75.2955V76.7273L148.771 74.8409H148.839V85H150.249V73.3636ZM157.232 85.1591C159.447 85.1591 161.072 83.5227 161.072 81.2955C161.072 79.0398 159.504 77.3864 157.368 77.3864C156.584 77.3864 155.822 77.6648 155.345 78.0455H155.277L155.686 74.6136H160.55V73.3636H154.504L153.8 79.0909L155.118 79.25C155.601 78.9034 156.425 78.6534 157.141 78.6591C158.624 78.6705 159.709 79.7955 159.709 81.3182C159.709 82.8125 158.663 83.9091 157.232 83.9091C156.038 83.9091 155.089 83.142 154.982 82.0909H153.618C153.703 83.8636 155.232 85.1591 157.232 85.1591ZM167.125 85.1591C169.693 85.1591 171.17 82.983 171.17 79.1818C171.17 75.4091 169.67 73.2045 167.125 73.2045C164.58 73.2045 163.08 75.4091 163.08 79.1818C163.08 82.983 164.557 85.1591 167.125 85.1591ZM167.125 83.9091C165.432 83.9091 164.443 82.2102 164.443 79.1818C164.443 76.1591 165.443 74.4318 167.125 74.4318C168.807 74.4318 169.807 76.1591 169.807 79.1818C169.807 82.2102 168.818 83.9091 167.125 83.9091ZM177.125 85.1591C179.693 85.1591 181.17 82.983 181.17 79.1818C181.17 75.4091 179.67 73.2045 177.125 73.2045C174.58 73.2045 173.08 75.4091 173.08 79.1818C173.08 82.983 174.557 85.1591 177.125 85.1591ZM177.125 83.9091C175.432 83.9091 174.443 82.2102 174.443 79.1818C174.443 76.1591 175.443 74.4318 177.125 74.4318C178.807 74.4318 179.807 76.1591 179.807 79.1818C179.807 82.2102 178.818 83.9091 177.125 83.9091ZM189.534 78.2273C189.114 76.9886 188.17 76.1591 186.443 76.1591C184.602 76.1591 183.239 77.2045 183.239 78.6818C183.239 79.8864 183.955 80.6932 185.557 81.0682L187.011 81.4091C187.892 81.6136 188.307 82.0341 188.307 82.6364C188.307 83.3864 187.511 84 186.261 84C185.165 84 184.477 83.5284 184.239 82.5909L182.966 82.9091C183.278 84.392 184.5 85.1818 186.284 85.1818C188.312 85.1818 189.693 84.0739 189.693 82.5682C189.693 81.3523 188.932 80.5852 187.375 80.2045L186.08 79.8864C185.045 79.6307 184.58 79.2841 184.58 78.6136C184.58 77.8636 185.375 77.3182 186.443 77.3182C187.614 77.3182 188.097 77.9659 188.33 78.5682L189.534 78.2273ZM193.712 83.4091H192.257L192.189 84.0455C192.024 85.5852 191.7 87.1193 191.553 87.8409H192.575C192.848 87.0682 193.428 85.3182 193.621 84.0227L193.712 83.4091ZM202.673 85H203.991L205.901 78.2955H206.037L207.946 85H209.264L211.923 76.2727H210.514L208.628 82.9318H208.537L206.696 76.2727H205.264L203.401 82.9545H203.31L201.423 76.2727H200.014L202.673 85ZM215.037 79.75C215.037 78.2273 216.009 77.3636 217.332 77.3636C218.594 77.3636 219.355 78.1591 219.355 79.5455V85H220.696V79.4545C220.696 77.2102 219.503 76.1591 217.719 76.1591C216.344 76.1591 215.56 76.733 215.151 77.6364H215.037V73.3636H213.696V85H215.037V79.75ZM226.808 85.1818C228.581 85.1818 229.876 84.2955 230.286 82.9773L228.99 82.6136C228.649 83.5227 227.859 83.9773 226.808 83.9773C225.234 83.9773 224.149 82.9602 224.087 81.0909H230.422V80.5227C230.422 77.2727 228.49 76.1591 226.672 76.1591C224.308 76.1591 222.74 78.0227 222.74 80.7045C222.74 83.3864 224.286 85.1818 226.808 85.1818ZM224.087 79.9318C224.178 78.5739 225.138 77.3636 226.672 77.3636C228.126 77.3636 229.058 78.4545 229.058 79.9318H224.087ZM233.803 79.75C233.803 78.2273 234.746 77.3636 236.03 77.3636C237.274 77.3636 238.03 78.1761 238.03 79.5455V85H239.371V79.4545C239.371 77.2273 238.183 76.1591 236.416 76.1591C235.098 76.1591 234.28 76.75 233.871 77.6364H233.757V76.2727H232.462V85H233.803V79.75ZM248.889 85.2045C250.412 85.2045 251.207 84.3864 251.48 83.8182H251.548V85H252.889V79.25C252.889 76.4773 250.776 76.1591 249.662 76.1591C248.344 76.1591 246.844 76.6136 246.162 78.2045L247.435 78.6591C247.73 78.0227 248.429 77.3409 249.707 77.3409C250.94 77.3409 251.548 77.9943 251.548 79.1136V79.1591C251.548 79.8068 250.889 79.75 249.298 79.9545C247.679 80.1648 245.912 80.5227 245.912 82.5227C245.912 84.2273 247.23 85.2045 248.889 85.2045ZM249.094 84C248.026 84 247.253 83.5227 247.253 82.5909C247.253 81.5682 248.185 81.25 249.23 81.1136C249.798 81.0455 251.321 80.8864 251.548 80.6136V81.8409C251.548 82.9318 250.685 84 249.094 84ZM256.678 79.75C256.678 78.2273 257.621 77.3636 258.905 77.3636C260.149 77.3636 260.905 78.1761 260.905 79.5455V85H262.246V79.4545C262.246 77.2273 261.058 76.1591 259.291 76.1591C257.973 76.1591 257.155 76.75 256.746 77.6364H256.632V76.2727H255.337V85H256.678V79.75ZM6.72727 105.432C6.72727 107.068 5.47727 107.818 4.47727 107.818C3.36364 107.818 2.56818 107 2.56818 105.727V100.273H1.22727V105.818C1.22727 108.045 2.40909 109.114 4.04545 109.114C5.36364 109.114 6.22727 108.409 6.63636 107.523H6.72727V109H8.06818V100.273H6.72727V105.432ZM11.8651 103.75C11.8651 102.227 12.8082 101.364 14.0923 101.364C15.3366 101.364 16.0923 102.176 16.0923 103.545V109H17.4332V103.455C17.4332 101.227 16.2457 100.159 14.4787 100.159C13.1605 100.159 12.3423 100.75 11.9332 101.636H11.8196V100.273H10.5241V109H11.8651V103.75ZM19.8835 109H21.2244V105.733L22.1619 104.864L25.429 109H27.1335L23.1733 104L26.8608 100.273H25.2017L21.3835 104.159H21.2244V97.3636H19.8835V109ZM29.9276 103.75C29.9276 102.227 30.8707 101.364 32.1548 101.364C33.3991 101.364 34.1548 102.176 34.1548 103.545V109H35.4957V103.455C35.4957 101.227 34.3082 100.159 32.5412 100.159C31.223 100.159 30.4048 100.75 29.9957 101.636H29.8821V100.273H28.5866V109H29.9276V103.75ZM41.4915 109.182C43.8551 109.182 45.446 107.386 45.446 104.682C45.446 101.955 43.8551 100.159 41.4915 100.159C39.1278 100.159 37.5369 101.955 37.5369 104.682C37.5369 107.386 39.1278 109.182 41.4915 109.182ZM41.4915 107.977C39.696 107.977 38.8778 106.432 38.8778 104.682C38.8778 102.932 39.696 101.364 41.4915 101.364C43.2869 101.364 44.1051 102.932 44.1051 104.682C44.1051 106.432 43.2869 107.977 41.4915 107.977ZM49.1733 109H50.4915L52.4006 102.295H52.5369L54.446 109H55.7642L58.4233 100.273H57.0142L55.1278 106.932H55.0369L53.196 100.273H51.7642L49.9006 106.955H49.8097L47.9233 100.273H46.5142L49.1733 109ZM61.5369 103.75C61.5369 102.227 62.4801 101.364 63.7642 101.364C65.0085 101.364 65.7642 102.176 65.7642 103.545V109H67.1051V103.455C67.1051 101.227 65.9176 100.159 64.1506 100.159C62.8324 100.159 62.0142 100.75 61.6051 101.636H61.4915V100.273H60.196V109H61.5369V103.75ZM74.0554 112.273H75.3963V107.659H75.5099C75.8054 108.136 76.3736 109.182 78.0554 109.182C80.2372 109.182 81.7599 107.432 81.7599 104.659C81.7599 101.909 80.2372 100.159 78.0327 100.159C76.3281 100.159 75.8054 101.205 75.5099 101.659H75.3509V100.273H74.0554V112.273ZM75.3736 104.636C75.3736 102.682 76.2372 101.364 77.8736 101.364C79.5781 101.364 80.419 102.795 80.419 104.636C80.419 106.5 79.5554 107.977 77.8736 107.977C76.2599 107.977 75.3736 106.614 75.3736 104.636ZM83.8054 109H85.1463V103.477C85.1463 102.295 86.0781 101.432 87.3509 101.432C87.7088 101.432 88.0781 101.5 88.169 101.523V100.159C88.0156 100.148 87.6634 100.136 87.4645 100.136C86.419 100.136 85.5099 100.727 85.1918 101.591H85.1009V100.273H83.8054V109ZM89.7585 109H91.0994V100.273H89.7585V109ZM90.4403 98.8182C90.9631 98.8182 91.3949 98.4091 91.3949 97.9091C91.3949 97.4091 90.9631 97 90.4403 97C89.9176 97 89.4858 97.4091 89.4858 97.9091C89.4858 98.4091 89.9176 98.8182 90.4403 98.8182ZM94.8963 103.75C94.8963 102.227 95.8395 101.364 97.1236 101.364C98.3679 101.364 99.1236 102.176 99.1236 103.545V109H100.464V103.455C100.464 101.227 99.277 100.159 97.5099 100.159C96.1918 100.159 95.3736 100.75 94.9645 101.636H94.8509V100.273H93.5554V109H94.8963V103.75ZM106.71 100.273H104.847V98.1818H103.506V100.273H102.188V101.409H103.506V106.864C103.506 108.386 104.733 109.114 105.869 109.114C106.369 109.114 106.688 109.023 106.869 108.955L106.597 107.75C106.483 107.773 106.301 107.818 106.006 107.818C105.415 107.818 104.847 107.636 104.847 106.5V101.409H106.71V100.273ZM112.293 109.182C114.065 109.182 115.361 108.295 115.77 106.977L114.474 106.614C114.134 107.523 113.344 107.977 112.293 107.977C110.719 107.977 109.634 106.96 109.571 105.091H115.906V104.523C115.906 101.273 113.974 100.159 112.156 100.159C109.793 100.159 108.224 102.023 108.224 104.705C108.224 107.386 109.77 109.182 112.293 109.182ZM109.571 103.932C109.662 102.574 110.622 101.364 112.156 101.364C113.611 101.364 114.543 102.455 114.543 103.932H109.571ZM117.946 109H119.287V103.477C119.287 102.295 120.219 101.432 121.491 101.432C121.849 101.432 122.219 101.5 122.31 101.523V100.159C122.156 100.148 121.804 100.136 121.605 100.136C120.56 100.136 119.651 100.727 119.332 101.591H119.241V100.273H117.946V109ZM132.195 100.273H130.331V98.1818H128.99V100.273H127.672V101.409H128.99V106.864C128.99 108.386 130.217 109.114 131.354 109.114C131.854 109.114 132.172 109.023 132.354 108.955L132.081 107.75C131.967 107.773 131.786 107.818 131.49 107.818C130.899 107.818 130.331 107.636 130.331 106.5V101.409H132.195V100.273ZM137.663 109.182C140.027 109.182 141.618 107.386 141.618 104.682C141.618 101.955 140.027 100.159 137.663 100.159C135.3 100.159 133.709 101.955 133.709 104.682C133.709 107.386 135.3 109.182 137.663 109.182ZM137.663 107.977C135.868 107.977 135.05 106.432 135.05 104.682C135.05 102.932 135.868 101.364 137.663 101.364C139.459 101.364 140.277 102.932 140.277 104.682C140.277 106.432 139.459 107.977 137.663 107.977ZM147.21 109.182C149.574 109.182 151.165 107.386 151.165 104.682C151.165 101.955 149.574 100.159 147.21 100.159C144.847 100.159 143.256 101.955 143.256 104.682C143.256 107.386 144.847 109.182 147.21 109.182ZM147.21 107.977C145.415 107.977 144.597 106.432 144.597 104.682C144.597 102.932 145.415 101.364 147.21 101.364C149.006 101.364 149.824 102.932 149.824 104.682C149.824 106.432 149.006 107.977 147.21 107.977ZM153.212 109H154.553V105.733L155.49 104.864L158.757 109H160.462L156.501 104L160.189 100.273H158.53L154.712 104.159H154.553V97.3636H153.212V109ZM168.983 109.205C170.506 109.205 171.301 108.386 171.574 107.818H171.642V109H172.983V103.25C172.983 100.477 170.869 100.159 169.756 100.159C168.438 100.159 166.938 100.614 166.256 102.205L167.528 102.659C167.824 102.023 168.523 101.341 169.801 101.341C171.034 101.341 171.642 101.994 171.642 103.114V103.159C171.642 103.807 170.983 103.75 169.392 103.955C167.773 104.165 166.006 104.523 166.006 106.523C166.006 108.227 167.324 109.205 168.983 109.205ZM169.188 108C168.119 108 167.347 107.523 167.347 106.591C167.347 105.568 168.278 105.25 169.324 105.114C169.892 105.045 171.415 104.886 171.642 104.614V105.841C171.642 106.932 170.778 108 169.188 108ZM186.112 102.227C185.692 100.989 184.749 100.159 183.021 100.159C181.18 100.159 179.817 101.205 179.817 102.682C179.817 103.886 180.533 104.693 182.135 105.068L183.589 105.409C184.47 105.614 184.885 106.034 184.885 106.636C184.885 107.386 184.089 108 182.839 108C181.743 108 181.055 107.528 180.817 106.591L179.544 106.909C179.857 108.392 181.078 109.182 182.862 109.182C184.891 109.182 186.271 108.074 186.271 106.568C186.271 105.352 185.51 104.585 183.953 104.205L182.658 103.886C181.624 103.631 181.158 103.284 181.158 102.614C181.158 101.864 181.953 101.318 183.021 101.318C184.192 101.318 184.675 101.966 184.908 102.568L186.112 102.227ZM192.085 100.273H190.222V98.1818H188.881V100.273H187.562V101.409H188.881V106.864C188.881 108.386 190.108 109.114 191.244 109.114C191.744 109.114 192.062 109.023 192.244 108.955L191.972 107.75C191.858 107.773 191.676 107.818 191.381 107.818C190.79 107.818 190.222 107.636 190.222 106.5V101.409H192.085V100.273ZM196.67 109.205C198.193 109.205 198.989 108.386 199.261 107.818H199.33V109H200.67V103.25C200.67 100.477 198.557 100.159 197.443 100.159C196.125 100.159 194.625 100.614 193.943 102.205L195.216 102.659C195.511 102.023 196.21 101.341 197.489 101.341C198.722 101.341 199.33 101.994 199.33 103.114V103.159C199.33 103.807 198.67 103.75 197.08 103.955C195.46 104.165 193.693 104.523 193.693 106.523C193.693 108.227 195.011 109.205 196.67 109.205ZM196.875 108C195.807 108 195.034 107.523 195.034 106.591C195.034 105.568 195.966 105.25 197.011 105.114C197.58 105.045 199.102 104.886 199.33 104.614V105.841C199.33 106.932 198.466 108 196.875 108ZM204.459 103.75C204.459 102.227 205.402 101.364 206.686 101.364C207.93 101.364 208.686 102.176 208.686 103.545V109H210.027V103.455C210.027 101.227 208.839 100.159 207.072 100.159C205.754 100.159 204.936 100.75 204.527 101.636H204.413V100.273H203.118V109H204.459V103.75ZM215.773 109.182C217.455 109.182 218.023 108.136 218.318 107.659H218.477V109H219.773V97.3636H218.432V101.659H218.318C218.023 101.205 217.5 100.159 215.795 100.159C213.591 100.159 212.068 101.909 212.068 104.659C212.068 107.432 213.591 109.182 215.773 109.182ZM215.955 107.977C214.273 107.977 213.409 106.5 213.409 104.636C213.409 102.795 214.25 101.364 215.955 101.364C217.591 101.364 218.455 102.682 218.455 104.636C218.455 106.614 217.568 107.977 215.955 107.977ZM224.983 109.205C226.506 109.205 227.301 108.386 227.574 107.818H227.642V109H228.983V103.25C228.983 100.477 226.869 100.159 225.756 100.159C224.438 100.159 222.938 100.614 222.256 102.205L223.528 102.659C223.824 102.023 224.523 101.341 225.801 101.341C227.034 101.341 227.642 101.994 227.642 103.114V103.159C227.642 103.807 226.983 103.75 225.392 103.955C223.773 104.165 222.006 104.523 222.006 106.523C222.006 108.227 223.324 109.205 224.983 109.205ZM225.188 108C224.119 108 223.347 107.523 223.347 106.591C223.347 105.568 224.278 105.25 225.324 105.114C225.892 105.045 227.415 104.886 227.642 104.614V105.841C227.642 106.932 226.778 108 225.188 108ZM231.43 109H232.771V103.477C232.771 102.295 233.703 101.432 234.976 101.432C235.334 101.432 235.703 101.5 235.794 101.523V100.159C235.641 100.148 235.288 100.136 235.089 100.136C234.044 100.136 233.135 100.727 232.817 101.591H232.726V100.273H231.43V109ZM240.413 109.182C242.095 109.182 242.663 108.136 242.959 107.659H243.118V109H244.413V97.3636H243.072V101.659H242.959C242.663 101.205 242.141 100.159 240.436 100.159C238.232 100.159 236.709 101.909 236.709 104.659C236.709 107.432 238.232 109.182 240.413 109.182ZM240.595 107.977C238.913 107.977 238.05 106.5 238.05 104.636C238.05 102.795 238.891 101.364 240.595 101.364C242.232 101.364 243.095 102.682 243.095 104.636C243.095 106.614 242.209 107.977 240.595 107.977ZM254.851 109.182C256.533 109.182 257.101 108.136 257.396 107.659H257.555V109H258.851V97.3636H257.51V101.659H257.396C257.101 101.205 256.578 100.159 254.874 100.159C252.669 100.159 251.146 101.909 251.146 104.659C251.146 107.432 252.669 109.182 254.851 109.182ZM255.033 107.977C253.351 107.977 252.487 106.5 252.487 104.636C252.487 102.795 253.328 101.364 255.033 101.364C256.669 101.364 257.533 102.682 257.533 104.636C257.533 106.614 256.646 107.977 255.033 107.977ZM266.993 105.432C266.993 107.068 265.743 107.818 264.743 107.818C263.629 107.818 262.834 107 262.834 105.727V100.273H261.493V105.818C261.493 108.045 262.675 109.114 264.311 109.114C265.629 109.114 266.493 108.409 266.902 107.523H266.993V109H268.334V100.273H266.993V105.432ZM270.79 109H272.131V103.545C272.131 102.267 273.062 101.364 274.108 101.364C275.125 101.364 275.835 102.028 275.835 103.023V109H277.199V103.318C277.199 102.193 277.903 101.364 279.131 101.364C280.085 101.364 280.903 101.869 280.903 103.159V109H282.244V103.159C282.244 101.108 281.142 100.159 279.585 100.159C278.335 100.159 277.42 100.733 276.972 101.636H276.881C276.449 100.705 275.688 100.159 274.54 100.159C273.403 100.159 272.562 100.705 272.199 101.636H272.085V100.273H270.79V109ZM284.696 109H286.037V103.545C286.037 102.267 286.969 101.364 288.014 101.364C289.031 101.364 289.741 102.028 289.741 103.023V109H291.105V103.318C291.105 102.193 291.81 101.364 293.037 101.364C293.991 101.364 294.81 101.869 294.81 103.159V109H296.151V103.159C296.151 101.108 295.048 100.159 293.491 100.159C292.241 100.159 291.327 100.733 290.878 101.636H290.787C290.355 100.705 289.594 100.159 288.446 100.159C287.31 100.159 286.469 100.705 286.105 101.636H285.991V100.273H284.696V109ZM299.153 112.25C300.364 112.25 301.222 111.608 301.722 110.273L305.438 100.295L303.972 100.273L301.562 107.227H301.472L299.062 100.273H297.608L300.835 109.045L300.585 109.727C300.108 111.034 299.494 111.159 298.517 110.909L298.176 112.091C298.312 112.159 298.699 112.25 299.153 112.25ZM5.02273 124.273H3.15909V122.182H1.81818V124.273H0.5V125.409H1.81818V130.864C1.81818 132.386 3.04545 133.114 4.18182 133.114C4.68182 133.114 5 133.023 5.18182 132.955L4.90909 131.75C4.79545 131.773 4.61364 131.818 4.31818 131.818C3.72727 131.818 3.15909 131.636 3.15909 130.5V125.409H5.02273V124.273ZM10.6051 133.182C12.3778 133.182 13.6733 132.295 14.0824 130.977L12.7869 130.614C12.446 131.523 11.6562 131.977 10.6051 131.977C9.03125 131.977 7.94602 130.96 7.88352 129.091H14.2188V128.523C14.2188 125.273 12.2869 124.159 10.4688 124.159C8.10511 124.159 6.53693 126.023 6.53693 128.705C6.53693 131.386 8.08239 133.182 10.6051 133.182ZM7.88352 127.932C7.97443 126.574 8.93466 125.364 10.4688 125.364C11.9233 125.364 12.8551 126.455 12.8551 127.932H7.88352ZM17.0241 124.273H15.4787L18.2514 128.636L15.4787 133H17.0241L19.1151 129.614L21.206 133H22.7514L19.9332 128.636L22.7514 124.273H21.206L19.1151 127.841L17.0241 124.273ZM28.4602 124.273H26.5966V122.182H25.2557V124.273H23.9375V125.409H25.2557V130.864C25.2557 132.386 26.483 133.114 27.6193 133.114C28.1193 133.114 28.4375 133.023 28.6193 132.955L28.3466 131.75C28.233 131.773 28.0511 131.818 27.7557 131.818C27.1648 131.818 26.5966 131.636 26.5966 130.5V125.409H28.4602V124.273ZM31.4545 133.091C32.017 133.091 32.4773 132.631 32.4773 132.068C32.4773 131.506 32.017 131.045 31.4545 131.045C30.892 131.045 30.4318 131.506 30.4318 132.068C30.4318 132.631 30.892 133.091 31.4545 133.091Z" fill="#091E42"/>
</svg>
