<svg width="321" height="206" viewBox="0 0 321 206" fill="none" xmlns="http://www.w3.org/2000/svg">
<path d="M86.7401 0.727272H81.8196V24H86.7401V0.727272ZM93.8111 0.727272H90.3565V9.56818H93.8111V0.727272ZM97.3849 24H102.226V13.5227C102.226 11.5909 103.453 10.3068 105.067 10.3068C106.658 10.3068 107.726 11.3977 107.726 13.1136V24H112.419V13.3409C112.419 11.5341 113.453 10.3068 115.214 10.3068C116.76 10.3068 117.919 11.2727 117.919 13.2159V24H122.749V12.2614C122.749 8.47727 120.499 6.31818 117.249 6.31818C114.692 6.31818 112.703 7.625 111.987 9.625H111.805C111.249 7.60227 109.464 6.31818 107.067 6.31818C104.714 6.31818 102.93 7.56818 102.203 9.625H101.999V6.54545H97.3849V24ZM138.956 24.3295C141.536 24.3295 143.206 23.2045 144.058 21.5795H144.195V24H148.786V12.2273C148.786 8.06818 145.263 6.31818 141.376 6.31818C137.195 6.31818 134.445 8.31818 133.774 11.5L138.251 11.8636C138.581 10.7045 139.615 9.85227 141.354 9.85227C143.001 9.85227 143.945 10.6818 143.945 12.1136V12.1818C143.945 13.3068 142.751 13.4545 139.717 13.75C136.263 14.0682 133.161 15.2273 133.161 19.125C133.161 22.5795 135.626 24.3295 138.956 24.3295ZM140.342 20.9886C138.854 20.9886 137.786 20.2955 137.786 18.9659C137.786 17.6023 138.911 16.9318 140.615 16.6932C141.672 16.5455 143.399 16.2955 143.979 15.9091V17.7614C143.979 19.5909 142.467 20.9886 140.342 20.9886ZM157.382 0.727272H152.541V24H157.382V0.727272ZM164.703 24H169.817L172.817 13.0227H173.033L176.033 24H181.158L185.896 6.54545H181.01L178.351 18.2045H178.203L175.339 6.54545H170.533L167.714 18.2727H167.555L164.851 6.54545H159.953L164.703 24ZM193.456 24.3295C196.036 24.3295 197.706 23.2045 198.558 21.5795H198.695V24H203.286V12.2273C203.286 8.06818 199.763 6.31818 195.876 6.31818C191.695 6.31818 188.945 8.31818 188.274 11.5L192.751 11.8636C193.081 10.7045 194.115 9.85227 195.854 9.85227C197.501 9.85227 198.445 10.6818 198.445 12.1136V12.1818C198.445 13.3068 197.251 13.4545 194.217 13.75C190.763 14.0682 187.661 15.2273 187.661 19.125C187.661 22.5795 190.126 24.3295 193.456 24.3295ZM194.842 20.9886C193.354 20.9886 192.286 20.2955 192.286 18.9659C192.286 17.6023 193.411 16.9318 195.115 16.6932C196.172 16.5455 197.899 16.2955 198.479 15.9091V17.7614C198.479 19.5909 196.967 20.9886 194.842 20.9886ZM209.405 30.5114C213.007 30.5114 214.928 28.6818 215.905 25.8864L222.689 6.56818L217.564 6.54545L213.916 19.3636H213.734L210.121 6.54545H205.03L211.291 24.5L211.007 25.2386C210.325 26.8182 209.155 26.9318 207.45 26.3977L206.359 30.0227C207.053 30.3068 208.178 30.5114 209.405 30.5114ZM239.689 11.5227C239.257 8.30682 236.666 6.31818 232.257 6.31818C227.791 6.31818 224.848 8.38636 224.859 11.75C224.848 14.3636 226.496 16.0568 229.905 16.7386L232.928 17.3409C234.45 17.6477 235.143 18.2045 235.166 19.0795C235.143 20.1136 234.018 20.8523 232.325 20.8523C230.598 20.8523 229.45 20.1136 229.155 18.6932L224.393 18.9432C224.848 22.2841 227.689 24.3409 232.314 24.3409C236.837 24.3409 240.075 22.0341 240.087 18.5909C240.075 16.0682 238.428 14.5568 235.041 13.8636L231.882 13.2273C230.257 12.875 229.655 12.3182 229.666 11.4773C229.655 10.4318 230.837 9.75 232.337 9.75C234.018 9.75 235.018 10.6705 235.257 11.7955L239.689 11.5227ZM0.353693 68H5.1946V50.5455H0.353693V68ZM2.78551 48.2955C4.22869 48.2955 5.41051 47.1932 5.41051 45.8409C5.41051 44.5 4.22869 43.3977 2.78551 43.3977C1.35369 43.3977 0.171875 44.5 0.171875 45.8409C0.171875 47.1932 1.35369 48.2955 2.78551 48.2955ZM13.9134 57.9091C13.9247 55.6591 15.2656 54.3409 17.2202 54.3409C19.1634 54.3409 20.3338 55.6136 20.3224 57.75V68H25.1634V56.8864C25.1634 52.8182 22.777 50.3182 19.1406 50.3182C16.5497 50.3182 14.6747 51.5909 13.8906 53.625H13.6861V50.5455H9.07244V68H13.9134V57.9091ZM38.2628 50.5455H34.9787V46.3636H30.1378V50.5455H27.7514V54.1818H30.1378V63.2727C30.1151 66.6932 32.4446 68.3864 35.956 68.2386C37.206 68.1932 38.0923 67.9432 38.581 67.7841L37.8196 64.1818C37.581 64.2273 37.0696 64.3409 36.6151 64.3409C35.6491 64.3409 34.9787 63.9773 34.9787 62.6364V54.1818H38.2628V50.5455ZM49.1832 68.3409C53.5014 68.3409 56.4105 66.2386 57.0923 63L52.6151 62.7045C52.1264 64.0341 50.8764 64.7273 49.2628 64.7273C46.8423 64.7273 45.3082 63.125 45.3082 60.5227V60.5114H57.1946V59.1818C57.1946 53.25 53.6037 50.3182 48.9901 50.3182C43.8537 50.3182 40.5241 53.9659 40.5241 59.3523C40.5241 64.8864 43.8082 68.3409 49.1832 68.3409ZM45.3082 57.5114C45.4105 55.5227 46.9219 53.9318 49.0696 53.9318C51.1719 53.9318 52.6264 55.4318 52.6378 57.5114H45.3082ZM60.3537 68H65.1946V58.125C65.1946 55.9773 66.7628 54.5 68.8991 54.5C69.5696 54.5 70.4901 54.6136 70.9446 54.7614V50.4659C70.5128 50.3636 69.9105 50.2955 69.4219 50.2955C67.4673 50.2955 65.8651 51.4318 65.2287 53.5909H65.0469V50.5455H60.3537V68ZM80.5895 68.3409C84.9077 68.3409 87.8168 66.2386 88.4986 63L84.0213 62.7045C83.5327 64.0341 82.2827 64.7273 80.669 64.7273C78.2486 64.7273 76.7145 63.125 76.7145 60.5227V60.5114H88.6009V59.1818C88.6009 53.25 85.0099 50.3182 80.3963 50.3182C75.2599 50.3182 71.9304 53.9659 71.9304 59.3523C71.9304 64.8864 75.2145 68.3409 80.5895 68.3409ZM76.7145 57.5114C76.8168 55.5227 78.3281 53.9318 80.4759 53.9318C82.5781 53.9318 84.0327 55.4318 84.044 57.5114H76.7145ZM106.283 55.5227C105.851 52.3068 103.26 50.3182 98.8509 50.3182C94.3849 50.3182 91.4418 52.3864 91.4531 55.75C91.4418 58.3636 93.0895 60.0568 96.4986 60.7386L99.5213 61.3409C101.044 61.6477 101.737 62.2045 101.76 63.0795C101.737 64.1136 100.612 64.8523 98.919 64.8523C97.1918 64.8523 96.044 64.1136 95.7486 62.6932L90.9872 62.9432C91.4418 66.2841 94.2827 68.3409 98.9077 68.3409C103.43 68.3409 106.669 66.0341 106.68 62.5909C106.669 60.0682 105.021 58.5568 101.635 57.8636L98.4759 57.2273C96.8509 56.875 96.2486 56.3182 96.2599 55.4773C96.2486 54.4318 97.4304 53.75 98.9304 53.75C100.612 53.75 101.612 54.6705 101.851 55.7955L106.283 55.5227ZM119.013 50.5455H115.729V46.3636H110.888V50.5455H108.501V54.1818H110.888V63.2727C110.865 66.6932 113.195 68.3864 116.706 68.2386C117.956 68.1932 118.842 67.9432 119.331 67.7841L118.57 64.1818C118.331 64.2273 117.82 64.3409 117.365 64.3409C116.399 64.3409 115.729 63.9773 115.729 62.6364V54.1818H119.013V50.5455ZM129.933 68.3409C134.251 68.3409 137.161 66.2386 137.842 63L133.365 62.7045C132.876 64.0341 131.626 64.7273 130.013 64.7273C127.592 64.7273 126.058 63.125 126.058 60.5227V60.5114H137.945V59.1818C137.945 53.25 134.354 50.3182 129.74 50.3182C124.604 50.3182 121.274 53.9659 121.274 59.3523C121.274 64.8864 124.558 68.3409 129.933 68.3409ZM126.058 57.5114C126.161 55.5227 127.672 53.9318 129.82 53.9318C131.922 53.9318 133.376 55.4318 133.388 57.5114H126.058ZM147.536 68.2841C150.354 68.2841 151.82 66.6591 152.49 65.2045H152.695V68H157.467V44.7273H152.638V53.4773H152.49C151.842 52.0568 150.445 50.3182 147.524 50.3182C143.695 50.3182 140.456 53.2955 140.456 59.2955C140.456 65.1364 143.558 68.2841 147.536 68.2841ZM149.07 64.4318C146.695 64.4318 145.399 62.3182 145.399 59.2727C145.399 56.25 146.672 54.1705 149.07 54.1705C151.422 54.1705 152.74 56.1591 152.74 59.2727C152.74 62.3864 151.399 64.4318 149.07 64.4318ZM168.854 68H173.695V50.5455H168.854V68ZM171.286 48.2955C172.729 48.2955 173.911 47.1932 173.911 45.8409C173.911 44.5 172.729 43.3977 171.286 43.3977C169.854 43.3977 168.672 44.5 168.672 45.8409C168.672 47.1932 169.854 48.2955 171.286 48.2955ZM182.413 57.9091C182.425 55.6591 183.766 54.3409 185.72 54.3409C187.663 54.3409 188.834 55.6136 188.822 57.75V68H193.663V56.8864C193.663 52.8182 191.277 50.3182 187.641 50.3182C185.05 50.3182 183.175 51.5909 182.391 53.625H182.186V50.5455H177.572V68H182.413V57.9091ZM209.726 57.9091C209.737 55.6591 211.112 54.3409 213.089 54.3409C215.055 54.3409 216.214 55.6023 216.203 57.75V68H221.044V56.8864C221.055 52.7955 218.646 50.3182 215.01 50.3182C212.362 50.3182 210.589 51.5682 209.794 53.625H209.589V44.7273H204.885V68H209.726V57.9091ZM232.808 68.3409C237.126 68.3409 240.036 66.2386 240.717 63L236.24 62.7045C235.751 64.0341 234.501 64.7273 232.888 64.7273C230.467 64.7273 228.933 63.125 228.933 60.5227V60.5114H240.82V59.1818C240.82 53.25 237.229 50.3182 232.615 50.3182C227.479 50.3182 224.149 53.9659 224.149 59.3523C224.149 64.8864 227.433 68.3409 232.808 68.3409ZM228.933 57.5114C229.036 55.5227 230.547 53.9318 232.695 53.9318C234.797 53.9318 236.251 55.4318 236.263 57.5114H228.933ZM248.956 68.3295C251.536 68.3295 253.206 67.2045 254.058 65.5795H254.195V68H258.786V56.2273C258.786 52.0682 255.263 50.3182 251.376 50.3182C247.195 50.3182 244.445 52.3182 243.774 55.5L248.251 55.8636C248.581 54.7045 249.615 53.8523 251.354 53.8523C253.001 53.8523 253.945 54.6818 253.945 56.1136V56.1818C253.945 57.3068 252.751 57.4545 249.717 57.75C246.263 58.0682 243.161 59.2273 243.161 63.125C243.161 66.5795 245.626 68.3295 248.956 68.3295ZM250.342 64.9886C248.854 64.9886 247.786 64.2955 247.786 62.9659C247.786 61.6023 248.911 60.9318 250.615 60.6932C251.672 60.5455 253.399 60.2955 253.979 59.9091V61.7614C253.979 63.5909 252.467 64.9886 250.342 64.9886ZM262.541 68H267.382V58.125C267.382 55.9773 268.95 54.5 271.087 54.5C271.757 54.5 272.678 54.6136 273.132 54.7614V50.4659C272.7 50.3636 272.098 50.2955 271.609 50.2955C269.655 50.2955 268.053 51.4318 267.416 53.5909H267.234V50.5455H262.541V68ZM275.635 68H280.476V50.5455H275.635V68ZM278.067 48.2955C279.51 48.2955 280.692 47.1932 280.692 45.8409C280.692 44.5 279.51 43.3977 278.067 43.3977C276.635 43.3977 275.453 44.5 275.453 45.8409C275.453 47.1932 276.635 48.2955 278.067 48.2955ZM289.195 57.9091C289.206 55.6591 290.547 54.3409 292.501 54.3409C294.445 54.3409 295.615 55.6136 295.604 57.75V68H300.445V56.8864C300.445 52.8182 298.058 50.3182 294.422 50.3182C291.831 50.3182 289.956 51.5909 289.172 53.625H288.967V50.5455H284.354V68H289.195V57.9091ZM312.124 74.7955C317.112 74.7955 320.658 72.5227 320.658 68.1705V50.5455H315.851V53.4773H315.669C315.021 52.0568 313.601 50.3182 310.68 50.3182C306.851 50.3182 303.612 53.2955 303.612 59.2386C303.612 65.0455 306.76 67.75 310.692 67.75C313.476 67.75 315.033 66.3523 315.669 64.9091H315.874V68.1023C315.874 70.3864 314.339 71.3182 312.237 71.3182C310.101 71.3182 309.021 70.3864 308.624 69.4432L304.146 70.0455C304.726 72.6818 307.419 74.7955 312.124 74.7955ZM312.226 64.1136C309.851 64.1136 308.555 62.2273 308.555 59.2159C308.555 56.25 309.828 54.1705 312.226 54.1705C314.578 54.1705 315.896 56.1591 315.896 59.2159C315.896 62.2955 314.555 64.1136 312.226 64.1136ZM12.7372 112.33C15.3168 112.33 16.9872 111.205 17.8395 109.58H17.9759V112H22.5668V100.227C22.5668 96.0682 19.044 94.3182 15.1577 94.3182C10.9759 94.3182 8.22585 96.3182 7.5554 99.5L12.0327 99.8636C12.3622 98.7045 13.3963 97.8523 15.1349 97.8523C16.7827 97.8523 17.7259 98.6818 17.7259 100.114V100.182C17.7259 101.307 16.5327 101.455 13.4986 101.75C10.044 102.068 6.94176 103.227 6.94176 107.125C6.94176 110.58 9.40767 112.33 12.7372 112.33ZM14.1236 108.989C12.6349 108.989 11.5668 108.295 11.5668 106.966C11.5668 105.602 12.6918 104.932 14.3963 104.693C15.4531 104.545 17.1804 104.295 17.7599 103.909V105.761C17.7599 107.591 16.2486 108.989 14.1236 108.989ZM26.4134 112H31.1861V109.205H31.402C32.0724 110.659 33.5384 112.284 36.3565 112.284C40.3338 112.284 43.4361 109.136 43.4361 103.295C43.4361 97.2955 40.1974 94.3182 36.3679 94.3182C33.4474 94.3182 32.0497 96.0568 31.402 97.4773H31.2543V88.7273H26.4134V112ZM31.152 103.273C31.152 100.159 32.4702 98.1705 34.8224 98.1705C37.2202 98.1705 38.4929 100.25 38.4929 103.273C38.4929 106.318 37.1974 108.432 34.8224 108.432C32.4929 108.432 31.152 106.386 31.152 103.273ZM54.5526 112.341C59.848 112.341 63.1435 108.716 63.1435 103.341C63.1435 97.9318 59.848 94.3182 54.5526 94.3182C49.2571 94.3182 45.9616 97.9318 45.9616 103.341C45.9616 108.716 49.2571 112.341 54.5526 112.341ZM54.5753 108.591C52.1321 108.591 50.8821 106.352 50.8821 103.307C50.8821 100.261 52.1321 98.0114 54.5753 98.0114C56.973 98.0114 58.223 100.261 58.223 103.307C58.223 106.352 56.973 108.591 54.5753 108.591ZM77.4844 104.568C77.4957 106.909 75.8935 108.136 74.1548 108.136C72.3253 108.136 71.1435 106.852 71.1321 104.795V94.5455H66.2912V105.659C66.3026 109.739 68.6889 112.227 72.2003 112.227C74.8253 112.227 76.7116 110.875 77.4957 108.83H77.6776V112H82.3253V94.5455H77.4844V104.568ZM95.4815 94.5455H92.1974V90.3636H87.3565V94.5455H84.9702V98.1818H87.3565V107.273C87.3338 110.693 89.6634 112.386 93.1747 112.239C94.4247 112.193 95.3111 111.943 95.7997 111.784L95.0384 108.182C94.7997 108.227 94.2884 108.341 93.8338 108.341C92.8679 108.341 92.1974 107.977 92.1974 106.636V98.1818H95.4815V94.5455ZM110.882 101.909C110.893 99.6591 112.234 98.3409 114.189 98.3409C116.132 98.3409 117.303 99.6136 117.291 101.75V112H122.132V100.886C122.132 96.8182 119.746 94.3182 116.109 94.3182C113.518 94.3182 111.643 95.5909 110.859 97.625H110.655V94.5455H106.041V112H110.882V101.909ZM133.902 112.341C138.22 112.341 141.129 110.239 141.811 107L137.334 106.705C136.845 108.034 135.595 108.727 133.982 108.727C131.561 108.727 130.027 107.125 130.027 104.523V104.511H141.913V103.182C141.913 97.25 138.322 94.3182 133.709 94.3182C128.572 94.3182 125.243 97.9659 125.243 103.352C125.243 108.886 128.527 112.341 133.902 112.341ZM130.027 101.511C130.129 99.5227 131.641 97.9318 133.788 97.9318C135.891 97.9318 137.345 99.4318 137.357 101.511H130.027ZM148.391 112H153.504L156.504 101.023H156.72L159.72 112H164.845L169.584 94.5455H164.697L162.038 106.205H161.891L159.027 94.5455H154.22L151.402 106.273H151.243L148.538 94.5455H143.641L148.391 112ZM179.572 118.545H184.413V109.205H184.561C185.232 110.659 186.697 112.284 189.516 112.284C193.493 112.284 196.595 109.136 196.595 103.295C196.595 97.2955 193.357 94.3182 189.527 94.3182C186.607 94.3182 185.209 96.0568 184.561 97.4773H184.345V94.5455H179.572V118.545ZM184.311 103.273C184.311 100.159 185.629 98.1705 187.982 98.1705C190.379 98.1705 191.652 100.25 191.652 103.273C191.652 106.318 190.357 108.432 187.982 108.432C185.652 108.432 184.311 106.386 184.311 103.273ZM199.822 112H204.663V102.125C204.663 99.9773 206.232 98.5 208.368 98.5C209.038 98.5 209.959 98.6136 210.413 98.7614V94.4659C209.982 94.3636 209.379 94.2955 208.891 94.2955C206.936 94.2955 205.334 95.4318 204.697 97.5909H204.516V94.5455H199.822V112ZM219.99 112.341C225.286 112.341 228.581 108.716 228.581 103.341C228.581 97.9318 225.286 94.3182 219.99 94.3182C214.695 94.3182 211.399 97.9318 211.399 103.341C211.399 108.716 214.695 112.341 219.99 112.341ZM220.013 108.591C217.57 108.591 216.32 106.352 216.32 103.307C216.32 100.261 217.57 98.0114 220.013 98.0114C222.411 98.0114 223.661 100.261 223.661 103.307C223.661 106.352 222.411 108.591 220.013 108.591ZM231.729 94.5455V112.727C231.729 114.045 231.172 114.705 229.615 114.705C229.411 114.705 229.229 114.705 228.979 114.682V118.466C229.354 118.489 229.615 118.489 229.876 118.489C234.07 118.602 236.57 116.852 236.57 112.807V94.5455H231.729ZM234.138 92.2955C235.581 92.2955 236.763 91.1932 236.763 89.8409C236.763 88.5 235.581 87.3977 234.138 87.3977C232.706 87.3977 231.524 88.5 231.524 89.8409C231.524 91.1932 232.706 92.2955 234.138 92.2955ZM248.402 112.341C252.72 112.341 255.629 110.239 256.311 107L251.834 106.705C251.345 108.034 250.095 108.727 248.482 108.727C246.061 108.727 244.527 107.125 244.527 104.523V104.511H256.413V103.182C256.413 97.25 252.822 94.3182 248.209 94.3182C243.072 94.3182 239.743 97.9659 239.743 103.352C239.743 108.886 243.027 112.341 248.402 112.341ZM244.527 101.511C244.629 99.5227 246.141 97.9318 248.288 97.9318C250.391 97.9318 251.845 99.4318 251.857 101.511H244.527ZM267.459 112.341C272.107 112.341 275.027 109.614 275.254 105.602H270.686C270.402 107.466 269.175 108.511 267.516 108.511C265.254 108.511 263.788 106.614 263.788 103.273C263.788 99.9773 265.266 98.0909 267.516 98.0909C269.288 98.0909 270.425 99.2614 270.686 101H275.254C275.05 96.9659 271.993 94.3182 267.436 94.3182C262.141 94.3182 258.868 97.9886 258.868 103.341C258.868 108.648 262.084 112.341 267.459 112.341ZM287.638 94.5455H284.354V90.3636H279.513V94.5455H277.126V98.1818H279.513V107.273C279.49 110.693 281.82 112.386 285.331 112.239C286.581 112.193 287.467 111.943 287.956 111.784L287.195 108.182C286.956 108.227 286.445 108.341 285.99 108.341C285.024 108.341 284.354 107.977 284.354 106.636V98.1818H287.638V94.5455ZM305.064 99.5227C304.632 96.3068 302.041 94.3182 297.632 94.3182C293.166 94.3182 290.223 96.3864 290.234 99.75C290.223 102.364 291.871 104.057 295.28 104.739L298.303 105.341C299.825 105.648 300.518 106.205 300.541 107.08C300.518 108.114 299.393 108.852 297.7 108.852C295.973 108.852 294.825 108.114 294.53 106.693L289.768 106.943C290.223 110.284 293.064 112.341 297.689 112.341C302.212 112.341 305.45 110.034 305.462 106.591C305.45 104.068 303.803 102.557 300.416 101.864L297.257 101.227C295.632 100.875 295.03 100.318 295.041 99.4773C295.03 98.4318 296.212 97.75 297.712 97.75C299.393 97.75 300.393 98.6705 300.632 99.7955L305.064 99.5227ZM313.771 108.818H309.771L309.714 110.091C309.578 113.182 308.692 116.352 308.362 117.682H311.499C312.044 116.307 313.339 113.08 313.646 110.068L313.771 108.818ZM47.2827 143.523C46.8509 140.307 44.2599 138.318 39.8509 138.318C35.3849 138.318 32.4418 140.386 32.4531 143.75C32.4418 146.364 34.0895 148.057 37.4986 148.739L40.5213 149.341C42.044 149.648 42.7372 150.205 42.7599 151.08C42.7372 152.114 41.6122 152.852 39.919 152.852C38.1918 152.852 37.044 152.114 36.7486 150.693L31.9872 150.943C32.4418 154.284 35.2827 156.341 39.9077 156.341C44.4304 156.341 47.669 154.034 47.6804 150.591C47.669 148.068 46.0213 146.557 42.6349 145.864L39.4759 145.227C37.8509 144.875 37.2486 144.318 37.2599 143.477C37.2486 142.432 38.4304 141.75 39.9304 141.75C41.6122 141.75 42.6122 142.67 42.8509 143.795L47.2827 143.523ZM58.6151 156.341C63.9105 156.341 67.206 152.716 67.206 147.341C67.206 141.932 63.9105 138.318 58.6151 138.318C53.3196 138.318 50.0241 141.932 50.0241 147.341C50.0241 152.716 53.3196 156.341 58.6151 156.341ZM58.6378 152.591C56.1946 152.591 54.9446 150.352 54.9446 147.307C54.9446 144.261 56.1946 142.011 58.6378 142.011C61.0355 142.011 62.2855 144.261 62.2855 147.307C62.2855 150.352 61.0355 152.591 58.6378 152.591ZM77.7599 156H82.6009V138.545H77.7599V156ZM80.1918 136.295C81.6349 136.295 82.8168 135.193 82.8168 133.841C82.8168 132.5 81.6349 131.398 80.1918 131.398C78.7599 131.398 77.5781 132.5 77.5781 133.841C77.5781 135.193 78.7599 136.295 80.1918 136.295ZM95.8651 138.545H92.3991V137.375C92.3991 136.193 92.8764 135.5 94.2969 135.5C94.8764 135.5 95.4673 135.625 95.8537 135.75L96.706 132.114C96.1037 131.932 94.7741 131.636 93.2855 131.636C90.0014 131.636 87.5582 133.489 87.5582 137.284V138.545H85.0923V142.182H87.5582V156H92.3991V142.182H95.8651V138.545ZM109.217 162.511C112.82 162.511 114.74 160.682 115.717 157.886L122.501 138.568L117.376 138.545L113.729 151.364H113.547L109.933 138.545H104.842L111.104 156.5L110.82 157.239C110.138 158.818 108.967 158.932 107.263 158.398L106.172 162.023C106.865 162.307 107.99 162.511 109.217 162.511ZM132.271 156.341C137.567 156.341 140.862 152.716 140.862 147.341C140.862 141.932 137.567 138.318 132.271 138.318C126.976 138.318 123.68 141.932 123.68 147.341C123.68 152.716 126.976 156.341 132.271 156.341ZM132.294 152.591C129.851 152.591 128.601 150.352 128.601 147.307C128.601 144.261 129.851 142.011 132.294 142.011C134.692 142.011 135.942 144.261 135.942 147.307C135.942 150.352 134.692 152.591 132.294 152.591ZM155.203 148.568C155.214 150.909 153.612 152.136 151.874 152.136C150.044 152.136 148.862 150.852 148.851 148.795V138.545H144.01V149.659C144.021 153.739 146.408 156.227 149.919 156.227C152.544 156.227 154.43 154.875 155.214 152.83H155.396V156H160.044V138.545H155.203V148.568ZM167.03 132.727H163.575V141.568H167.03V132.727ZM177.036 156.284C179.854 156.284 181.32 154.659 181.99 153.205H182.195V156H186.967V132.727H182.138V141.477H181.99C181.342 140.057 179.945 138.318 177.024 138.318C173.195 138.318 169.956 141.295 169.956 147.295C169.956 153.136 173.058 156.284 177.036 156.284ZM178.57 152.432C176.195 152.432 174.899 150.318 174.899 147.273C174.899 144.25 176.172 142.17 178.57 142.17C180.922 142.17 182.24 144.159 182.24 147.273C182.24 150.386 180.899 152.432 178.57 152.432ZM203.195 132.727H198.354V156H203.195V132.727ZM207.072 156H211.913V138.545H207.072V156ZM209.504 136.295C210.947 136.295 212.129 135.193 212.129 133.841C212.129 132.5 210.947 131.398 209.504 131.398C208.072 131.398 206.891 132.5 206.891 133.841C206.891 135.193 208.072 136.295 209.504 136.295ZM215.791 156H220.632V150.455L221.939 148.966L226.7 156H232.371L225.564 146.102L232.041 138.545H226.484L220.893 145.17H220.632V132.727H215.791V156ZM241.652 156.341C245.97 156.341 248.879 154.239 249.561 151L245.084 150.705C244.595 152.034 243.345 152.727 241.732 152.727C239.311 152.727 237.777 151.125 237.777 148.523V148.511H249.663V147.182C249.663 141.25 246.072 138.318 241.459 138.318C236.322 138.318 232.993 141.966 232.993 147.352C232.993 152.886 236.277 156.341 241.652 156.341ZM237.777 145.511C237.879 143.523 239.391 141.932 241.538 141.932C243.641 141.932 245.095 143.432 245.107 145.511H237.777ZM269.513 138.545H266.229V134.364H261.388V138.545H259.001V142.182H261.388V151.273C261.365 154.693 263.695 156.386 267.206 156.239C268.456 156.193 269.342 155.943 269.831 155.784L269.07 152.182C268.831 152.227 268.32 152.341 267.865 152.341C266.899 152.341 266.229 151.977 266.229 150.636V142.182H269.513V138.545ZM280.365 156.341C285.661 156.341 288.956 152.716 288.956 147.341C288.956 141.932 285.661 138.318 280.365 138.318C275.07 138.318 271.774 141.932 271.774 147.341C271.774 152.716 275.07 156.341 280.365 156.341ZM280.388 152.591C277.945 152.591 276.695 150.352 276.695 147.307C276.695 144.261 277.945 142.011 280.388 142.011C282.786 142.011 284.036 144.261 284.036 147.307C284.036 150.352 282.786 152.591 280.388 152.591ZM32.2401 200.341C36.8878 200.341 39.8082 197.614 40.0355 193.602H35.4673C35.1832 195.466 33.956 196.511 32.2969 196.511C30.0355 196.511 28.5696 194.614 28.5696 191.273C28.5696 187.977 30.0469 186.091 32.2969 186.091C34.0696 186.091 35.206 187.261 35.4673 189H40.0355C39.831 184.966 36.7741 182.318 32.2173 182.318C26.9219 182.318 23.6491 185.989 23.6491 191.341C23.6491 196.648 26.8651 200.341 32.2401 200.341ZM47.9759 189.909C47.9872 187.659 49.3622 186.341 51.3395 186.341C53.3054 186.341 54.4645 187.602 54.4531 189.75V200H59.294V188.886C59.3054 184.795 56.8963 182.318 53.2599 182.318C50.6122 182.318 48.8395 183.568 48.044 185.625H47.8395V176.727H43.1349V200H47.9759V189.909ZM68.081 200.33C70.6605 200.33 72.331 199.205 73.1832 197.58H73.3196V200H77.9105V188.227C77.9105 184.068 74.3878 182.318 70.5014 182.318C66.3196 182.318 63.5696 184.318 62.8991 187.5L67.3764 187.864C67.706 186.705 68.7401 185.852 70.4787 185.852C72.1264 185.852 73.0696 186.682 73.0696 188.114V188.182C73.0696 189.307 71.8764 189.455 68.8423 189.75C65.3878 190.068 62.2855 191.227 62.2855 195.125C62.2855 198.58 64.7514 200.33 68.081 200.33ZM69.4673 196.989C67.9787 196.989 66.9105 196.295 66.9105 194.966C66.9105 193.602 68.0355 192.932 69.7401 192.693C70.7969 192.545 72.5241 192.295 73.1037 191.909V193.761C73.1037 195.591 71.5923 196.989 69.4673 196.989ZM90.9503 182.545H87.6662V178.364H82.8253V182.545H80.4389V186.182H82.8253V195.273C82.8026 198.693 85.1321 200.386 88.6435 200.239C89.8935 200.193 90.7798 199.943 91.2685 199.784L90.5071 196.182C90.2685 196.227 89.7571 196.341 89.3026 196.341C88.3366 196.341 87.6662 195.977 87.6662 194.636V186.182H90.9503V182.545ZM101.51 206.545H106.351V197.205H106.499C107.169 198.659 108.635 200.284 111.453 200.284C115.43 200.284 118.533 197.136 118.533 191.295C118.533 185.295 115.294 182.318 111.464 182.318C108.544 182.318 107.146 184.057 106.499 185.477H106.283V182.545H101.51V206.545ZM106.249 191.273C106.249 188.159 107.567 186.17 109.919 186.17C112.317 186.17 113.589 188.25 113.589 191.273C113.589 194.318 112.294 196.432 109.919 196.432C107.589 196.432 106.249 194.386 106.249 191.273ZM126.601 176.727H121.76V200H126.601V176.727ZM138.433 200.341C142.751 200.341 145.661 198.239 146.342 195L141.865 194.705C141.376 196.034 140.126 196.727 138.513 196.727C136.092 196.727 134.558 195.125 134.558 192.523V192.511H146.445V191.182C146.445 185.25 142.854 182.318 138.24 182.318C133.104 182.318 129.774 185.966 129.774 191.352C129.774 196.886 133.058 200.341 138.433 200.341ZM134.558 189.511C134.661 187.523 136.172 185.932 138.32 185.932C140.422 185.932 141.876 187.432 141.888 189.511H134.558ZM154.581 200.33C157.161 200.33 158.831 199.205 159.683 197.58H159.82V200H164.411V188.227C164.411 184.068 160.888 182.318 157.001 182.318C152.82 182.318 150.07 184.318 149.399 187.5L153.876 187.864C154.206 186.705 155.24 185.852 156.979 185.852C158.626 185.852 159.57 186.682 159.57 188.114V188.182C159.57 189.307 158.376 189.455 155.342 189.75C151.888 190.068 148.786 191.227 148.786 195.125C148.786 198.58 151.251 200.33 154.581 200.33ZM155.967 196.989C154.479 196.989 153.411 196.295 153.411 194.966C153.411 193.602 154.536 192.932 156.24 192.693C157.297 192.545 159.024 192.295 159.604 191.909V193.761C159.604 195.591 158.092 196.989 155.967 196.989ZM182.689 187.523C182.257 184.307 179.666 182.318 175.257 182.318C170.791 182.318 167.848 184.386 167.859 187.75C167.848 190.364 169.496 192.057 172.905 192.739L175.928 193.341C177.45 193.648 178.143 194.205 178.166 195.08C178.143 196.114 177.018 196.852 175.325 196.852C173.598 196.852 172.45 196.114 172.155 194.693L167.393 194.943C167.848 198.284 170.689 200.341 175.314 200.341C179.837 200.341 183.075 198.034 183.087 194.591C183.075 192.068 181.428 190.557 178.041 189.864L174.882 189.227C173.257 188.875 172.655 188.318 172.666 187.477C172.655 186.432 173.837 185.75 175.337 185.75C177.018 185.75 178.018 186.67 178.257 187.795L182.689 187.523ZM194.089 200.341C198.408 200.341 201.317 198.239 201.999 195L197.521 194.705C197.033 196.034 195.783 196.727 194.169 196.727C191.749 196.727 190.214 195.125 190.214 192.523V192.511H202.101V191.182C202.101 185.25 198.51 182.318 193.896 182.318C188.76 182.318 185.43 185.966 185.43 191.352C185.43 196.886 188.714 200.341 194.089 200.341ZM190.214 189.511C190.317 187.523 191.828 185.932 193.976 185.932C196.078 185.932 197.533 187.432 197.544 189.511H190.214ZM220.53 206.795C225.518 206.795 229.064 204.523 229.064 200.17V182.545H224.257V185.477H224.075C223.428 184.057 222.007 182.318 219.087 182.318C215.257 182.318 212.018 185.295 212.018 191.239C212.018 197.045 215.166 199.75 219.098 199.75C221.882 199.75 223.439 198.352 224.075 196.909H224.28V200.102C224.28 202.386 222.746 203.318 220.643 203.318C218.507 203.318 217.428 202.386 217.03 201.443L212.553 202.045C213.132 204.682 215.825 206.795 220.53 206.795ZM220.632 196.114C218.257 196.114 216.962 194.227 216.962 191.216C216.962 188.25 218.234 186.17 220.632 186.17C222.984 186.17 224.303 188.159 224.303 191.216C224.303 194.295 222.962 196.114 220.632 196.114ZM240.871 200.341C245.189 200.341 248.098 198.239 248.78 195L244.303 194.705C243.814 196.034 242.564 196.727 240.95 196.727C238.53 196.727 236.996 195.125 236.996 192.523V192.511H248.882V191.182C248.882 185.25 245.291 182.318 240.678 182.318C235.541 182.318 232.212 185.966 232.212 191.352C232.212 196.886 235.496 200.341 240.871 200.341ZM236.996 189.511C237.098 187.523 238.609 185.932 240.757 185.932C242.859 185.932 244.314 187.432 244.325 189.511H236.996ZM261.325 182.545H258.041V178.364H253.2V182.545H250.814V186.182H253.2V195.273C253.178 198.693 255.507 200.386 259.018 200.239C260.268 200.193 261.155 199.943 261.643 199.784L260.882 196.182C260.643 196.227 260.132 196.341 259.678 196.341C258.712 196.341 258.041 195.977 258.041 194.636V186.182H261.325V182.545ZM271.885 200H276.726V182.545H271.885V200ZM274.317 180.295C275.76 180.295 276.942 179.193 276.942 177.841C276.942 176.5 275.76 175.398 274.317 175.398C272.885 175.398 271.703 176.5 271.703 177.841C271.703 179.193 272.885 180.295 274.317 180.295ZM285.445 189.909C285.456 187.659 286.797 186.341 288.751 186.341C290.695 186.341 291.865 187.614 291.854 189.75V200H296.695V188.886C296.695 184.818 294.308 182.318 290.672 182.318C288.081 182.318 286.206 183.591 285.422 185.625H285.217V182.545H280.604V200H285.445V189.909ZM121.685 226.545H118.401V222.364H113.56V226.545H111.173V230.182H113.56V239.273C113.537 242.693 115.866 244.386 119.378 244.239C120.628 244.193 121.514 243.943 122.003 243.784L121.241 240.182C121.003 240.227 120.491 240.341 120.037 240.341C119.071 240.341 118.401 239.977 118.401 238.636V230.182H121.685V226.545ZM132.537 244.341C137.832 244.341 141.128 240.716 141.128 235.341C141.128 229.932 137.832 226.318 132.537 226.318C127.241 226.318 123.946 229.932 123.946 235.341C123.946 240.716 127.241 244.341 132.537 244.341ZM132.56 240.591C130.116 240.591 128.866 238.352 128.866 235.307C128.866 232.261 130.116 230.011 132.56 230.011C134.957 230.011 136.207 232.261 136.207 235.307C136.207 238.352 134.957 240.591 132.56 240.591ZM155.469 236.568C155.48 238.909 153.878 240.136 152.139 240.136C150.31 240.136 149.128 238.852 149.116 236.795V226.545H144.276V237.659C144.287 241.739 146.673 244.227 150.185 244.227C152.81 244.227 154.696 242.875 155.48 240.83H155.662V244H160.31V226.545H155.469V236.568ZM172.068 244.341C176.716 244.341 179.636 241.614 179.864 237.602H175.295C175.011 239.466 173.784 240.511 172.125 240.511C169.864 240.511 168.398 238.614 168.398 235.273C168.398 231.977 169.875 230.091 172.125 230.091C173.898 230.091 175.034 231.261 175.295 233H179.864C179.659 228.966 176.602 226.318 172.045 226.318C166.75 226.318 163.477 229.989 163.477 235.341C163.477 240.648 166.693 244.341 172.068 244.341ZM187.804 233.909C187.815 231.659 189.19 230.341 191.168 230.341C193.134 230.341 194.293 231.602 194.281 233.75V244H199.122V232.886C199.134 228.795 196.724 226.318 193.088 226.318C190.44 226.318 188.668 227.568 187.872 229.625H187.668V220.727H182.963V244H187.804V233.909ZM205.761 244.295C207.216 244.295 208.477 243.08 208.489 241.568C208.477 240.08 207.216 238.864 205.761 238.864C204.261 238.864 203.023 240.08 203.034 241.568C203.023 243.08 204.261 244.295 205.761 244.295Z" fill="#172B4D"/>
</svg>
