<svg width="216" height="77" viewBox="0 0 216 77" fill="none" xmlns="http://www.w3.org/2000/svg">
<path d="M0.28 24.52V22.952C0.28 22.632 0.44 22.472 0.76 22.472H2.424V5.832H0.76C0.44 5.832 0.28 5.672 0.28 5.352V3.752C0.28 3.432 0.44 3.272 0.76 3.272C3.49067 3.144 5.72 3.08 7.448 3.08C13.1227 3.08 15.96 5.16 15.96 9.32C15.96 11.4747 15.2667 13.1813 13.88 14.44C12.4933 15.6987 10.6053 16.328 8.216 16.328C7.27733 16.328 6.54133 16.296 6.008 16.232V22.472H8.664C8.984 22.472 9.144 22.632 9.144 22.952V24.52C9.144 24.84 8.984 25 8.664 25H0.76C0.44 25 0.28 24.84 0.28 24.52ZM6.008 5.736V13.768C6.2 13.7893 6.69067 13.8 7.48 13.8C10.68 13.8 12.28 12.3813 12.28 9.544C12.28 8.52 12.0133 7.72 11.48 7.144C10.968 6.54667 10.36 6.16267 9.656 5.992C8.97333 5.82133 8.14133 5.736 7.16 5.736H6.008ZM23.4938 11.912C23.8564 11.0587 24.4431 10.3333 25.2538 9.736C26.0644 9.11733 26.9498 8.808 27.9098 8.808C28.8698 8.808 29.6058 8.89333 30.1178 9.064C30.3738 9.14933 30.5018 9.34133 30.5018 9.64V13.96C30.5018 14.28 30.3418 14.44 30.0218 14.44H27.9418C27.6218 14.44 27.4724 14.28 27.4938 13.96L27.6218 12.104C27.5151 12.0827 27.3338 12.072 27.0778 12.072C26.0964 12.072 25.2858 12.4773 24.6458 13.288C24.0058 14.0773 23.6858 15.144 23.6858 16.488V22.472H27.2058C27.5258 22.472 27.6858 22.632 27.6858 22.952V24.52C27.6858 24.84 27.5258 25 27.2058 25H18.4058C18.0858 25 17.9258 24.84 17.9258 24.52V22.952C17.9258 22.632 18.0858 22.472 18.4058 22.472H20.1018V11.784H18.3738C18.0538 11.784 17.8938 11.624 17.8938 11.304V9.64C17.8938 9.32 18.0538 9.16 18.3738 9.16H22.5978C22.8964 9.16 23.0778 9.32 23.1418 9.64L23.4938 11.912ZM32.6513 17.32C32.6513 15.72 32.8966 14.3333 33.3873 13.16C33.8779 11.9867 34.5179 11.1013 35.3073 10.504C36.8219 9.37333 38.4646 8.808 40.2353 8.808C41.5366 8.808 42.6353 9.01067 43.5313 9.416C44.4273 9.82133 45.1206 10.2907 45.6113 10.824C46.1233 11.3573 46.5499 12.1253 46.8913 13.128C47.2539 14.1307 47.4353 15.304 47.4353 16.648C47.4353 19.5067 46.7099 21.6827 45.2593 23.176C43.8299 24.648 41.9953 25.384 39.7552 25.384C37.5153 25.384 35.7659 24.712 34.5073 23.368C33.2699 22.0027 32.6513 19.9867 32.6513 17.32ZM40.0113 22.76C41.2913 22.76 42.2193 22.2907 42.7953 21.352C43.3926 20.392 43.6913 18.9733 43.6913 17.096C43.6913 15.2187 43.3926 13.8107 42.7953 12.872C42.2193 11.912 41.2699 11.432 39.9473 11.432C37.4939 11.432 36.2673 13.16 36.2673 16.616C36.2673 20.712 37.5153 22.76 40.0113 22.76ZM55.2505 11.752V22.472H58.6425C58.9625 22.472 59.1225 22.632 59.1225 22.952V24.52C59.1225 24.84 58.9625 25 58.6425 25H49.6825C49.3625 25 49.2025 24.84 49.2025 24.52V22.952C49.2025 22.632 49.3625 22.472 49.6825 22.472H51.6665V11.752H49.6825C49.3625 11.752 49.2025 11.592 49.2025 11.272V9.64C49.2025 9.32 49.3625 9.16 49.6825 9.16H51.6665V6.056C51.6665 3.496 52.4665 1.864 54.0665 1.16C54.7278 0.861331 55.6345 0.711998 56.7865 0.711998C57.9385 0.711998 59.1118 0.978665 60.3065 1.512C60.4985 1.59733 60.5945 1.704 60.5945 1.832C60.5945 1.96 60.5838 2.056 60.5625 2.12L60.0825 3.72C59.9758 3.976 59.7945 4.05066 59.5385 3.944C58.6852 3.56 57.8745 3.368 57.1065 3.368C56.3385 3.368 55.8372 3.624 55.6025 4.136C55.3678 4.62667 55.2505 5.52267 55.2505 6.824V9.16H59.1225C59.4425 9.16 59.6025 9.32 59.6025 9.64V11.272C59.6025 11.592 59.4425 11.752 59.1225 11.752H55.2505ZM68.5113 25.384C65.9726 25.384 64.1059 24.648 62.9113 23.176C61.7379 21.6827 61.1513 19.72 61.1513 17.288C61.1513 14.8347 61.7806 12.808 63.0393 11.208C64.2979 9.608 66.1113 8.808 68.4792 8.808C69.6526 8.808 70.6553 9.032 71.4873 9.48C72.3406 9.90667 72.9913 10.4933 73.4393 11.24C74.2926 12.6907 74.7193 14.3653 74.7193 16.264C74.7193 17.16 74.6766 17.6507 74.5913 17.736C74.5059 17.8213 74.3459 17.864 74.1113 17.864H64.7033C64.8099 19.4 65.1833 20.5947 65.8233 21.448C66.4846 22.28 67.6153 22.696 69.2153 22.696C70.3886 22.696 71.5939 22.4187 72.8313 21.864C73.1299 21.7147 73.3433 21.8 73.4713 22.12L74.0793 23.592C74.1859 23.848 74.0899 24.0613 73.7913 24.232C72.3833 25 70.6233 25.384 68.5113 25.384ZM64.7033 15.496H71.3593C71.4019 12.8293 70.3566 11.496 68.2233 11.496C66.9646 11.496 66.0686 11.9013 65.5353 12.712C65.0233 13.5013 64.7459 14.4293 64.7033 15.496ZM77.167 13.736C77.167 12.328 77.711 11.1547 78.799 10.216C79.887 9.27733 81.263 8.808 82.927 8.808C84.591 8.808 86.031 9 87.247 9.384C87.5457 9.46933 87.695 9.66133 87.695 9.96V13.352C87.695 13.672 87.535 13.832 87.215 13.832H85.359C85.0177 13.832 84.879 13.672 84.943 13.352L85.103 11.72C84.463 11.3787 83.759 11.208 82.991 11.208C81.2843 11.208 80.431 11.8053 80.431 13C80.431 13.6187 80.7083 14.1093 81.263 14.472C81.8177 14.8347 82.4897 15.1333 83.279 15.368C84.0683 15.5813 84.8577 15.8373 85.647 16.136C86.4577 16.4133 87.1403 16.904 87.695 17.608C88.2497 18.2907 88.527 19.1653 88.527 20.232C88.527 21.8533 87.9617 23.1227 86.831 24.04C85.7003 24.936 84.111 25.384 82.063 25.384C80.6337 25.384 79.1297 25.1707 77.551 24.744C77.2737 24.6587 77.135 24.456 77.135 24.136V20.744C77.135 20.424 77.295 20.264 77.615 20.264H79.471C79.791 20.264 79.9403 20.424 79.919 20.744L79.823 22.408C80.399 22.8347 81.2203 23.048 82.287 23.048C84.1857 23.048 85.135 22.376 85.135 21.032C85.135 20.3493 84.8577 19.816 84.303 19.432C83.7697 19.0267 83.1083 18.7173 82.319 18.504C81.551 18.2907 80.7723 18.056 79.983 17.8C79.1937 17.5227 78.5217 17.0533 77.967 16.392C77.4337 15.7093 77.167 14.824 77.167 13.736ZM96.092 22.472H98.108C98.428 22.472 98.588 22.632 98.588 22.952V24.52C98.588 24.84 98.428 25 98.108 25H90.492C90.172 25 90.012 24.84 90.012 24.52V22.952C90.012 22.632 90.172 22.472 90.492 22.472C90.492 22.472 91.164 22.472 92.508 22.472V11.784H90.78C90.46 11.784 90.3 11.624 90.3 11.304V9.64C90.3 9.32 90.46 9.16 90.78 9.16H95.612C95.932 9.16 96.092 9.32 96.092 9.64V22.472ZM92.22 6.312C91.8147 5.88533 91.612 5.34133 91.612 4.68C91.612 4.01867 91.8147 3.47467 92.22 3.048C92.6467 2.6 93.2013 2.376 93.884 2.376C94.588 2.376 95.1427 2.6 95.548 3.048C95.9747 3.47467 96.188 4.01867 96.188 4.68C96.188 5.34133 95.9747 5.88533 95.548 6.312C95.1213 6.73867 94.556 6.952 93.852 6.952C93.1693 6.952 92.6253 6.73867 92.22 6.312ZM100.026 17.32C100.026 15.72 100.272 14.3333 100.762 13.16C101.253 11.9867 101.893 11.1013 102.682 10.504C104.197 9.37333 105.84 8.808 107.61 8.808C108.912 8.808 110.01 9.01067 110.906 9.416C111.802 9.82133 112.496 10.2907 112.986 10.824C113.498 11.3573 113.925 12.1253 114.266 13.128C114.629 14.1307 114.81 15.304 114.81 16.648C114.81 19.5067 114.085 21.6827 112.634 23.176C111.205 24.648 109.37 25.384 107.13 25.384C104.89 25.384 103.141 24.712 101.882 23.368C100.645 22.0027 100.026 19.9867 100.026 17.32ZM107.386 22.76C108.666 22.76 109.594 22.2907 110.17 21.352C110.768 20.392 111.066 18.9733 111.066 17.096C111.066 15.2187 110.768 13.8107 110.17 12.872C109.594 11.912 108.645 11.432 107.322 11.432C104.869 11.432 103.642 13.16 103.642 16.616C103.642 20.712 104.89 22.76 107.386 22.76ZM116.738 11.336V9.64C116.738 9.32 116.898 9.16 117.218 9.16H121.57C121.847 9.16 122.018 9.32 122.082 9.64L122.37 11.496C123.564 9.704 125.271 8.808 127.49 8.808C130.796 8.808 132.45 10.6213 132.45 14.248V22.472H134.306C134.626 22.472 134.786 22.632 134.786 22.952V24.52C134.786 24.84 134.626 25 134.306 25H127.33C127.01 25 126.85 24.84 126.85 24.52V22.952C126.85 22.632 127.01 22.472 127.33 22.472H128.866V15.848C128.866 14.504 128.695 13.5227 128.354 12.904C128.012 12.2853 127.308 11.976 126.242 11.976C125.175 11.976 124.29 12.296 123.586 12.936C122.882 13.576 122.53 14.3013 122.53 15.112V22.472H124.514C124.834 22.472 124.994 22.632 124.994 22.952V24.52C124.994 24.84 124.834 25 124.514 25H117.25C116.93 25 116.77 24.84 116.77 24.52V22.952C116.77 22.632 116.93 22.472 117.25 22.472H118.946V11.784H117.218C116.898 11.784 116.738 11.6347 116.738 11.336ZM145.746 15.496V14.376C145.746 12.8613 145.319 11.912 144.466 11.528C144.061 11.3573 143.474 11.272 142.706 11.272C141.255 11.272 140.381 11.9547 140.082 13.32C140.018 13.64 139.858 13.8 139.602 13.8H137.554C137.213 13.8 137.063 13.64 137.106 13.32C137.191 11.7627 137.821 10.6213 138.994 9.896C140.167 9.17067 141.661 8.808 143.474 8.808C147.293 8.808 149.202 10.5573 149.202 14.056V22.472H150.578C150.898 22.472 151.058 22.632 151.058 22.952V24.52C151.058 24.84 150.898 25 150.578 25H146.802C146.525 25 146.365 24.84 146.322 24.52L146.098 23.048C144.946 24.6053 143.282 25.384 141.106 25.384C139.741 25.384 138.61 25.032 137.714 24.328C136.818 23.6027 136.37 22.4507 136.37 20.872C136.37 18.8027 137.234 17.384 138.962 16.616C140.391 15.9547 142.098 15.592 144.082 15.528C144.487 15.528 145.042 15.5173 145.746 15.496ZM145.81 20.168V17.704C143.762 17.704 142.503 17.8 142.034 17.992C141.565 18.184 141.149 18.376 140.786 18.568C140.103 18.9307 139.762 19.592 139.762 20.552C139.762 22.024 140.605 22.76 142.29 22.76C143.399 22.76 144.263 22.504 144.882 21.992C145.501 21.4587 145.81 20.8507 145.81 20.168ZM158.623 1.608V22.472H160.639C160.959 22.472 161.119 22.632 161.119 22.952V24.52C161.119 24.84 160.959 25 160.639 25H153.023C152.703 25 152.543 24.84 152.543 24.52V22.952C152.543 22.632 152.703 22.472 153.023 22.472H155.039V3.752H153.311C152.991 3.752 152.831 3.592 152.831 3.272V1.608C152.831 1.288 152.991 1.128 153.311 1.128H158.143C158.463 1.128 158.623 1.288 158.623 1.608ZM174.692 18.152L173.22 22.472H175.14C175.46 22.472 175.62 22.632 175.62 22.952V24.52C175.62 24.84 175.46 25 175.14 25H168.324C168.004 25 167.844 24.84 167.844 24.52V22.952C167.844 22.632 168.004 22.472 168.324 22.472H170.212L176.612 3.72C176.74 3.42133 176.953 3.272 177.252 3.272H180.356C180.654 3.272 180.868 3.42133 180.996 3.72L187.46 22.472H189.636C189.956 22.472 190.116 22.632 190.116 22.952V24.52C190.116 24.84 189.956 25 189.636 25H181.604C181.284 25 181.124 24.84 181.124 24.52V22.952C181.124 22.632 181.284 22.472 181.604 22.472H183.588L182.084 18.152H174.692ZM178.372 6.344L175.332 15.752H181.38L178.372 6.344ZM196.525 11.912C196.888 11.0587 197.474 10.3333 198.285 9.736C199.096 9.11733 199.981 8.808 200.941 8.808C201.901 8.808 202.637 8.89333 203.149 9.064C203.405 9.14933 203.533 9.34133 203.533 9.64V13.96C203.533 14.28 203.373 14.44 203.053 14.44H200.973C200.653 14.44 200.504 14.28 200.525 13.96L200.653 12.104C200.546 12.0827 200.365 12.072 200.109 12.072C199.128 12.072 198.317 12.4773 197.677 13.288C197.037 14.0773 196.717 15.144 196.717 16.488V22.472H200.237C200.557 22.472 200.717 22.632 200.717 22.952V24.52C200.717 24.84 200.557 25 200.237 25H191.437C191.117 25 190.957 24.84 190.957 24.52V22.952C190.957 22.632 191.117 22.472 191.437 22.472H193.133V11.784H191.405C191.085 11.784 190.925 11.624 190.925 11.304V9.64C190.925 9.32 191.085 9.16 191.405 9.16H195.629C195.928 9.16 196.109 9.32 196.173 9.64L196.525 11.912ZM210.931 11.784V19.848C210.931 20.8507 211.059 21.576 211.315 22.024C211.571 22.472 212.051 22.696 212.755 22.696C213.459 22.696 214.141 22.5467 214.803 22.248C215.037 22.1627 215.208 22.248 215.315 22.504L215.891 23.976C215.912 24.04 215.923 24.136 215.923 24.264C215.923 24.3707 215.816 24.488 215.603 24.616C214.579 25.128 213.363 25.384 211.955 25.384C210.056 25.384 208.808 24.8933 208.211 23.912C207.784 23.272 207.539 22.6533 207.475 22.056C207.389 21.2453 207.347 20.392 207.347 19.496V11.784H205.523C205.203 11.784 205.043 11.624 205.043 11.304V9.64C205.043 9.32 205.203 9.16 205.523 9.16H207.347V4.84C207.347 4.52 207.507 4.36 207.827 4.36H210.451C210.771 4.36 210.931 4.52 210.931 4.84V9.16H214.163C214.483 9.16 214.643 9.32 214.643 9.64V11.304C214.643 11.624 214.483 11.784 214.163 11.784H210.931ZM0.28 68.52V66.952C0.28 66.632 0.44 66.472 0.76 66.472H2.424V49.832H0.76C0.44 49.832 0.28 49.672 0.28 49.352V47.752C0.28 47.432 0.44 47.272 0.76 47.272C3.49067 47.144 5.72 47.08 7.448 47.08C13.1227 47.08 15.96 49.16 15.96 53.32C15.96 55.4747 15.2667 57.1813 13.88 58.44C12.4933 59.6987 10.6053 60.328 8.216 60.328C7.27733 60.328 6.54133 60.296 6.008 60.232V66.472H8.664C8.984 66.472 9.144 66.632 9.144 66.952V68.52C9.144 68.84 8.984 69 8.664 69H0.76C0.44 69 0.28 68.84 0.28 68.52ZM6.008 49.736V57.768C6.2 57.7893 6.69067 57.8 7.48 57.8C10.68 57.8 12.28 56.3813 12.28 53.544C12.28 52.52 12.0133 51.72 11.48 51.144C10.968 50.5467 10.36 50.1627 9.656 49.992C8.97333 49.8213 8.14133 49.736 7.16 49.736H6.008ZM23.4938 55.912C23.8564 55.0587 24.4431 54.3333 25.2538 53.736C26.0644 53.1173 26.9498 52.808 27.9098 52.808C28.8698 52.808 29.6058 52.8933 30.1178 53.064C30.3738 53.1493 30.5018 53.3413 30.5018 53.64V57.96C30.5018 58.28 30.3418 58.44 30.0218 58.44H27.9418C27.6218 58.44 27.4724 58.28 27.4938 57.96L27.6218 56.104C27.5151 56.0827 27.3338 56.072 27.0778 56.072C26.0964 56.072 25.2858 56.4773 24.6458 57.288C24.0058 58.0773 23.6858 59.144 23.6858 60.488V66.472H27.2058C27.5258 66.472 27.6858 66.632 27.6858 66.952V68.52C27.6858 68.84 27.5258 69 27.2058 69H18.4058C18.0858 69 17.9258 68.84 17.9258 68.52V66.952C17.9258 66.632 18.0858 66.472 18.4058 66.472H20.1018V55.784H18.3738C18.0538 55.784 17.8938 55.624 17.8938 55.304V53.64C17.8938 53.32 18.0538 53.16 18.3738 53.16H22.5978C22.8964 53.16 23.0778 53.32 23.1418 53.64L23.4938 55.912ZM38.1233 66.472H40.1393C40.4593 66.472 40.6193 66.632 40.6193 66.952V68.52C40.6193 68.84 40.4593 69 40.1393 69H32.5233C32.2033 69 32.0433 68.84 32.0433 68.52V66.952C32.0433 66.632 32.2033 66.472 32.5233 66.472C32.5233 66.472 33.1953 66.472 34.5393 66.472V55.784H32.8113C32.4913 55.784 32.3313 55.624 32.3313 55.304V53.64C32.3313 53.32 32.4913 53.16 32.8113 53.16H37.6433C37.9633 53.16 38.1233 53.32 38.1233 53.64V66.472ZM34.2513 50.312C33.8459 49.8853 33.6432 49.3413 33.6432 48.68C33.6432 48.0187 33.8459 47.4747 34.2513 47.048C34.6779 46.6 35.2326 46.376 35.9153 46.376C36.6193 46.376 37.1739 46.6 37.5793 47.048C38.0059 47.4747 38.2193 48.0187 38.2193 48.68C38.2193 49.3413 38.0059 49.8853 37.5793 50.312C37.1526 50.7387 36.5873 50.952 35.8833 50.952C35.2006 50.952 34.6566 50.7387 34.2513 50.312ZM41.7375 55.336V53.64C41.7375 53.32 41.8975 53.16 42.2175 53.16H46.5695C46.8468 53.16 47.0175 53.32 47.0815 53.64L47.3695 55.496C48.5642 53.704 50.2708 52.808 52.4895 52.808C55.7962 52.808 57.4495 54.6213 57.4495 58.248V66.472H59.3055C59.6255 66.472 59.7855 66.632 59.7855 66.952V68.52C59.7855 68.84 59.6255 69 59.3055 69H52.3295C52.0095 69 51.8495 68.84 51.8495 68.52V66.952C51.8495 66.632 52.0095 66.472 52.3295 66.472H53.8655V59.848C53.8655 58.504 53.6948 57.5227 53.3535 56.904C53.0122 56.2853 52.3082 55.976 51.2415 55.976C50.1748 55.976 49.2895 56.296 48.5855 56.936C47.8815 57.576 47.5295 58.3013 47.5295 59.112V66.472H49.5135C49.8335 66.472 49.9935 66.632 49.9935 66.952V68.52C49.9935 68.84 49.8335 69 49.5135 69H42.2495C41.9295 69 41.7695 68.84 41.7695 68.52V66.952C41.7695 66.632 41.9295 66.472 42.2495 66.472H43.9455V55.784H42.2175C41.8975 55.784 41.7375 55.6347 41.7375 55.336ZM66.618 55.784V63.848C66.618 64.8507 66.746 65.576 67.002 66.024C67.258 66.472 67.738 66.696 68.442 66.696C69.146 66.696 69.8287 66.5467 70.49 66.248C70.7247 66.1627 70.8953 66.248 71.002 66.504L71.578 67.976C71.5993 68.04 71.61 68.136 71.61 68.264C71.61 68.3707 71.5033 68.488 71.29 68.616C70.266 69.128 69.05 69.384 67.642 69.384C65.7433 69.384 64.4953 68.8933 63.898 67.912C63.4713 67.272 63.226 66.6533 63.162 66.056C63.0767 65.2453 63.034 64.392 63.034 63.496V55.784H61.21C60.89 55.784 60.73 55.624 60.73 55.304V53.64C60.73 53.32 60.89 53.16 61.21 53.16H63.034V48.84C63.034 48.52 63.194 48.36 63.514 48.36H66.138C66.458 48.36 66.618 48.52 66.618 48.84V53.16H69.85C70.17 53.16 70.33 53.32 70.33 53.64V55.304C70.33 55.624 70.17 55.784 69.85 55.784H66.618ZM78.6545 66.472H80.6705C80.9905 66.472 81.1505 66.632 81.1505 66.952V68.52C81.1505 68.84 80.9905 69 80.6705 69H73.0545C72.7345 69 72.5745 68.84 72.5745 68.52V66.952C72.5745 66.632 72.7345 66.472 73.0545 66.472C73.0545 66.472 73.7265 66.472 75.0705 66.472V55.784H73.3425C73.0225 55.784 72.8625 55.624 72.8625 55.304V53.64C72.8625 53.32 73.0225 53.16 73.3425 53.16H78.1745C78.4945 53.16 78.6545 53.32 78.6545 53.64V66.472ZM74.7825 50.312C74.3772 49.8853 74.1745 49.3413 74.1745 48.68C74.1745 48.0187 74.3772 47.4747 74.7825 47.048C75.2092 46.6 75.7638 46.376 76.4465 46.376C77.1505 46.376 77.7052 46.6 78.1105 47.048C78.5372 47.4747 78.7505 48.0187 78.7505 48.68C78.7505 49.3413 78.5372 49.8853 78.1105 50.312C77.6838 50.7387 77.1185 50.952 76.4145 50.952C75.7318 50.952 75.1878 50.7387 74.7825 50.312ZM82.2688 55.336V53.64C82.2688 53.32 82.4288 53.16 82.7488 53.16H87.1008C87.3781 53.16 87.5488 53.32 87.6128 53.64L87.9008 55.496C89.0954 53.704 90.8021 52.808 93.0208 52.808C96.3274 52.808 97.9808 54.6213 97.9808 58.248V66.472H99.8368C100.157 66.472 100.317 66.632 100.317 66.952V68.52C100.317 68.84 100.157 69 99.8368 69H92.8608C92.5408 69 92.3808 68.84 92.3808 68.52V66.952C92.3808 66.632 92.5408 66.472 92.8608 66.472H94.3968V59.848C94.3968 58.504 94.2261 57.5227 93.8848 56.904C93.5434 56.2853 92.8394 55.976 91.7728 55.976C90.7061 55.976 89.8208 56.296 89.1168 56.936C88.4128 57.576 88.0608 58.3013 88.0608 59.112V66.472H90.0448C90.3648 66.472 90.5248 66.632 90.5248 66.952V68.52C90.5248 68.84 90.3648 69 90.0448 69H82.7808C82.4608 69 82.3008 68.84 82.3008 68.52V66.952C82.3008 66.632 82.4608 66.472 82.7808 66.472H84.4768V55.784H82.7488C82.4288 55.784 82.2688 55.6347 82.2688 55.336ZM116.461 55.784V67.144C116.461 68.5093 116.408 69.7787 116.301 70.952C116.131 72.7653 115.459 74.1733 114.285 75.176C113.133 76.1787 111.491 76.68 109.357 76.68C107.224 76.68 105.432 76.36 103.981 75.72C103.725 75.6133 103.64 75.4 103.725 75.08L104.301 73.384C104.387 73.0853 104.6 73 104.941 73.128C106.243 73.6613 107.555 73.928 108.877 73.928C110.221 73.928 111.224 73.608 111.885 72.968C112.547 72.328 112.877 71.1973 112.877 69.576V67.08C111.939 68.616 110.424 69.384 108.333 69.384C106.243 69.384 104.643 68.712 103.533 67.368C102.445 66.024 101.901 63.9867 101.901 61.256C101.901 58.504 102.541 56.4133 103.821 54.984C105.123 53.5333 106.744 52.808 108.685 52.808C110.648 52.808 112.227 53.5013 113.421 54.888L113.741 53.64C113.848 53.32 114.04 53.16 114.317 53.16H118.221C118.541 53.16 118.701 53.32 118.701 53.64V55.304C118.701 55.624 118.541 55.784 118.221 55.784H116.461ZM112.877 63.016V57.32C112.792 57.192 112.653 57.032 112.461 56.84C112.291 56.648 111.896 56.4027 111.277 56.104C110.68 55.784 110.029 55.624 109.325 55.624C108.195 55.624 107.277 56.0507 106.573 56.904C105.869 57.736 105.517 59.08 105.517 60.936C105.517 62.792 105.773 64.2107 106.285 65.192C106.797 66.152 107.789 66.632 109.261 66.632C110.2 66.632 111.032 66.3013 111.757 65.64C112.504 64.9787 112.877 64.104 112.877 63.016ZM127.198 47.272C129.928 47.144 131.955 47.08 133.278 47.08C134.6 47.08 135.582 47.112 136.222 47.176C136.883 47.2187 137.63 47.3253 138.462 47.496C139.294 47.6667 140.03 47.9013 140.67 48.2C141.331 48.4773 141.992 48.8827 142.654 49.416C143.315 49.9493 143.87 50.568 144.318 51.272C145.299 52.8933 145.79 54.984 145.79 57.544C145.79 61.4053 144.723 64.2853 142.59 66.184C140.456 68.0613 137.544 69 133.854 69H127.198C126.878 69 126.718 68.84 126.718 68.52V66.952C126.718 66.632 126.878 66.472 127.198 66.472H128.862V49.864H127.198C126.878 49.864 126.718 49.704 126.718 49.384V47.752C126.718 47.432 126.878 47.272 127.198 47.272ZM134.558 66.504C136.904 66.504 138.718 65.736 139.998 64.2C141.299 62.664 141.95 60.5627 141.95 57.896C141.95 55.2293 141.342 53.2027 140.126 51.816C138.931 50.4293 137.054 49.736 134.494 49.736H132.446V66.504H134.558ZM157.027 59.496V58.376C157.027 56.8613 156.601 55.912 155.747 55.528C155.342 55.3573 154.755 55.272 153.987 55.272C152.537 55.272 151.662 55.9547 151.363 57.32C151.299 57.64 151.139 57.8 150.883 57.8H148.835C148.494 57.8 148.345 57.64 148.387 57.32C148.473 55.7627 149.102 54.6213 150.275 53.896C151.449 53.1707 152.942 52.808 154.755 52.808C158.574 52.808 160.483 54.5573 160.483 58.056V66.472H161.859C162.179 66.472 162.339 66.632 162.339 66.952V68.52C162.339 68.84 162.179 69 161.859 69H158.083C157.806 69 157.646 68.84 157.603 68.52L157.379 67.048C156.227 68.6053 154.563 69.384 152.387 69.384C151.022 69.384 149.891 69.032 148.995 68.328C148.099 67.6027 147.651 66.4507 147.651 64.872C147.651 62.8027 148.515 61.384 150.243 60.616C151.673 59.9547 153.379 59.592 155.363 59.528C155.769 59.528 156.323 59.5173 157.027 59.496ZM157.091 64.168V61.704C155.043 61.704 153.785 61.8 153.315 61.992C152.846 62.184 152.43 62.376 152.067 62.568C151.385 62.9307 151.043 63.592 151.043 64.552C151.043 66.024 151.886 66.76 153.571 66.76C154.681 66.76 155.545 66.504 156.163 65.992C156.782 65.4587 157.091 64.8507 157.091 64.168ZM169.056 55.784V63.848C169.056 64.8507 169.184 65.576 169.44 66.024C169.696 66.472 170.176 66.696 170.88 66.696C171.584 66.696 172.266 66.5467 172.928 66.248C173.162 66.1627 173.333 66.248 173.44 66.504L174.016 67.976C174.037 68.04 174.048 68.136 174.048 68.264C174.048 68.3707 173.941 68.488 173.728 68.616C172.704 69.128 171.488 69.384 170.08 69.384C168.181 69.384 166.933 68.8933 166.336 67.912C165.909 67.272 165.664 66.6533 165.6 66.056C165.514 65.2453 165.472 64.392 165.472 63.496V55.784H163.648C163.328 55.784 163.168 55.624 163.168 55.304V53.64C163.168 53.32 163.328 53.16 163.648 53.16H165.472V48.84C165.472 48.52 165.632 48.36 165.952 48.36H168.576C168.896 48.36 169.056 48.52 169.056 48.84V53.16H172.288C172.608 53.16 172.768 53.32 172.768 53.64V55.304C172.768 55.624 172.608 55.784 172.288 55.784H169.056ZM184.684 59.496V58.376C184.684 56.8613 184.257 55.912 183.404 55.528C182.998 55.3573 182.412 55.272 181.644 55.272C180.193 55.272 179.318 55.9547 179.02 57.32C178.956 57.64 178.796 57.8 178.54 57.8H176.492C176.15 57.8 176.001 57.64 176.044 57.32C176.129 55.7627 176.758 54.6213 177.932 53.896C179.105 53.1707 180.598 52.808 182.411 52.808C186.23 52.808 188.14 54.5573 188.14 58.056V66.472H189.516C189.836 66.472 189.996 66.632 189.996 66.952V68.52C189.996 68.84 189.836 69 189.516 69H185.74C185.462 69 185.302 68.84 185.26 68.52L185.036 67.048C183.884 68.6053 182.22 69.384 180.044 69.384C178.678 69.384 177.548 69.032 176.652 68.328C175.756 67.6027 175.308 66.4507 175.308 64.872C175.308 62.8027 176.172 61.384 177.9 60.616C179.329 59.9547 181.036 59.592 183.02 59.528C183.425 59.528 183.98 59.5173 184.684 59.496ZM184.748 64.168V61.704C182.7 61.704 181.441 61.8 180.972 61.992C180.502 62.184 180.086 62.376 179.724 62.568C179.041 62.9307 178.7 63.592 178.7 64.552C178.7 66.024 179.542 66.76 181.228 66.76C182.337 66.76 183.201 66.504 183.82 65.992C184.438 65.4587 184.748 64.8507 184.748 64.168Z" fill="white"/>
</svg>
