<svg width="120" height="40" viewBox="0 0 120 40" fill="none" xmlns="http://www.w3.org/2000/svg">
<path d="M18.6 25L15.96 20.77H14.745V25H13.035V14.41H16.77C17.98 14.41 18.895 14.705 19.515 15.295C20.145 15.885 20.46 16.665 20.46 17.635C20.46 18.465 20.225 19.145 19.755 19.675C19.295 20.205 18.625 20.545 17.745 20.695L20.52 25H18.6ZM14.745 19.555H16.635C18.015 19.555 18.705 18.945 18.705 17.725C18.705 17.145 18.535 16.695 18.195 16.375C17.865 16.045 17.345 15.88 16.635 15.88H14.745V19.555ZM29.6198 16.735V25H27.8948V23.2C27.6848 23.81 27.3198 24.285 26.7998 24.625C26.2798 24.955 25.6748 25.12 24.9848 25.12C24.0248 25.12 23.2548 24.81 22.6748 24.19C22.0948 23.57 21.8048 22.685 21.8048 21.535V16.735H23.5148V21.355C23.5148 22.105 23.7048 22.685 24.0848 23.095C24.4648 23.495 24.9848 23.695 25.6448 23.695C26.3248 23.695 26.8698 23.475 27.2798 23.035C27.6898 22.595 27.8948 21.955 27.8948 21.115V16.735H29.6198ZM36.4078 16.63C37.1278 16.63 37.7678 16.8 38.3278 17.14C38.8978 17.48 39.3428 17.97 39.6628 18.61C39.9828 19.25 40.1428 20 40.1428 20.86C40.1428 21.73 39.9828 22.485 39.6628 23.125C39.3428 23.765 38.8978 24.255 38.3278 24.595C37.7678 24.935 37.1278 25.105 36.4078 25.105C35.6578 25.105 35.0178 24.92 34.4878 24.55C33.9578 24.18 33.5878 23.69 33.3778 23.08V25H31.6678V13.9H33.3778V18.655C33.5878 18.045 33.9578 17.555 34.4878 17.185C35.0178 16.815 35.6578 16.63 36.4078 16.63ZM35.8828 18.13C35.4028 18.13 34.9728 18.245 34.5928 18.475C34.2128 18.695 33.9128 19.015 33.6928 19.435C33.4728 19.845 33.3628 20.32 33.3628 20.86C33.3628 21.41 33.4728 21.89 33.6928 22.3C33.9128 22.71 34.2128 23.03 34.5928 23.26C34.9728 23.48 35.4028 23.59 35.8828 23.59C36.6428 23.59 37.2528 23.35 37.7128 22.87C38.1728 22.38 38.4028 21.71 38.4028 20.86C38.4028 20.02 38.1728 19.355 37.7128 18.865C37.2528 18.375 36.6428 18.13 35.8828 18.13ZM42.7649 16.735L45.2399 22.81L47.5349 16.735H49.4399L44.4449 28.93H42.5399L44.3249 24.805L40.8449 16.735H42.7649ZM57.8599 16.63C58.6599 16.63 59.3799 16.8 60.0199 17.14C60.6599 17.48 61.1599 17.97 61.5199 18.61C61.8799 19.25 62.0599 20 62.0599 20.86C62.0599 21.73 61.8799 22.485 61.5199 23.125C61.1599 23.765 60.6599 24.255 60.0199 24.595C59.3799 24.935 58.6599 25.105 57.8599 25.105C57.0599 25.105 56.3399 24.935 55.6999 24.595C55.0699 24.255 54.5699 23.765 54.1999 23.125C53.8399 22.475 53.6599 21.72 53.6599 20.86C53.6599 20 53.8399 19.25 54.1999 18.61C54.5699 17.97 55.0699 17.48 55.6999 17.14C56.3399 16.8 57.0599 16.63 57.8599 16.63ZM57.8599 18.115C57.4199 18.115 57.0149 18.215 56.6449 18.415C56.2749 18.615 55.9749 18.925 55.7449 19.345C55.5249 19.755 55.4149 20.26 55.4149 20.86C55.4149 21.47 55.5249 21.98 55.7449 22.39C55.9749 22.8 56.2749 23.105 56.6449 23.305C57.0149 23.505 57.4199 23.605 57.8599 23.605C58.2999 23.605 58.7049 23.505 59.0749 23.305C59.4449 23.105 59.7399 22.8 59.9599 22.39C60.1899 21.98 60.3049 21.47 60.3049 20.86C60.3049 20.26 60.1899 19.755 59.9599 19.345C59.7399 18.925 59.4449 18.615 59.0749 18.415C58.7049 18.215 58.2999 18.115 57.8599 18.115ZM68.3239 16.6C69.2839 16.6 70.0539 16.91 70.6339 17.53C71.2139 18.15 71.5039 19.035 71.5039 20.185V25H69.7939V20.365C69.7939 19.625 69.6039 19.055 69.2239 18.655C68.8439 18.245 68.3239 18.04 67.6639 18.04C66.9839 18.04 66.4389 18.26 66.0289 18.7C65.6189 19.13 65.4139 19.765 65.4139 20.605V25H63.7039V16.735H65.4139V18.55C65.6339 17.93 66.0039 17.45 66.5239 17.11C67.0439 16.77 67.6439 16.6 68.3239 16.6ZM78.7294 18.355C79.0094 17.815 79.4094 17.39 79.9294 17.08C80.4494 16.76 81.0494 16.6 81.7294 16.6V18.46H81.2194C80.4694 18.46 79.8644 18.645 79.4044 19.015C78.9544 19.375 78.7294 19.975 78.7294 20.815V25H77.0194V16.735H78.7294V18.355ZM86.3256 16.63C87.0756 16.63 87.7156 16.815 88.2456 17.185C88.7756 17.555 89.1506 18.045 89.3706 18.655V16.735H91.0806V25H89.3706V23.08C89.1506 23.69 88.7756 24.18 88.2456 24.55C87.7156 24.92 87.0756 25.105 86.3256 25.105C85.6056 25.105 84.9606 24.935 84.3906 24.595C83.8306 24.255 83.3906 23.765 83.0706 23.125C82.7506 22.485 82.5906 21.73 82.5906 20.86C82.5906 20 82.7506 19.25 83.0706 18.61C83.3906 17.97 83.8306 17.48 84.3906 17.14C84.9606 16.8 85.6056 16.63 86.3256 16.63ZM86.8506 18.13C86.0906 18.13 85.4806 18.375 85.0206 18.865C84.5706 19.345 84.3456 20.01 84.3456 20.86C84.3456 21.71 84.5706 22.38 85.0206 22.87C85.4806 23.35 86.0906 23.59 86.8506 23.59C87.3306 23.59 87.7606 23.48 88.1406 23.26C88.5206 23.03 88.8206 22.71 89.0406 22.3C89.2606 21.89 89.3706 21.41 89.3706 20.86C89.3706 20.32 89.2606 19.845 89.0406 19.435C88.8206 19.015 88.5206 18.695 88.1406 18.475C87.7606 18.245 87.3306 18.13 86.8506 18.13ZM92.8927 14.335C92.8927 14.045 92.9927 13.805 93.1927 13.615C93.3927 13.425 93.6577 13.33 93.9877 13.33C94.3177 13.33 94.5827 13.425 94.7827 13.615C94.9927 13.805 95.0977 14.045 95.0977 14.335C95.0977 14.625 94.9927 14.86 94.7827 15.04C94.5827 15.22 94.3177 15.31 93.9877 15.31C93.6577 15.31 93.3927 15.22 93.1927 15.04C92.9927 14.86 92.8927 14.625 92.8927 14.335ZM94.8427 16.735V25H93.1327V16.735H94.8427ZM98.622 13.9V25H96.912V13.9H98.622ZM103.406 16.63C104.376 16.63 105.151 16.88 105.731 17.38C106.321 17.87 106.681 18.53 106.811 19.36H105.191C105.121 18.91 104.926 18.55 104.606 18.28C104.296 18 103.881 17.86 103.361 17.86C102.931 17.86 102.596 17.965 102.356 18.175C102.126 18.375 102.011 18.65 102.011 19C102.011 19.26 102.096 19.47 102.266 19.63C102.436 19.79 102.646 19.915 102.896 20.005C103.156 20.095 103.521 20.195 103.991 20.305C104.611 20.445 105.111 20.59 105.491 20.74C105.881 20.89 106.211 21.13 106.481 21.46C106.761 21.78 106.901 22.22 106.901 22.78C106.901 23.47 106.636 24.03 106.106 24.46C105.586 24.89 104.881 25.105 103.991 25.105C102.961 25.105 102.126 24.865 101.486 24.385C100.856 23.905 100.476 23.235 100.346 22.375H102.011C102.061 22.825 102.261 23.19 102.611 23.47C102.961 23.75 103.421 23.89 103.991 23.89C104.401 23.89 104.721 23.785 104.951 23.575C105.191 23.355 105.311 23.08 105.311 22.75C105.311 22.46 105.221 22.23 105.041 22.06C104.861 21.89 104.636 21.76 104.366 21.67C104.096 21.57 103.726 21.47 103.256 21.37C102.656 21.23 102.166 21.09 101.786 20.95C101.416 20.81 101.096 20.585 100.826 20.275C100.566 19.955 100.436 19.525 100.436 18.985C100.436 18.285 100.696 17.72 101.216 17.29C101.746 16.85 102.476 16.63 103.406 16.63Z" fill="#3C3A39"/>
<rect x="0.5" y="0.5" width="119" height="39" stroke="#979493"/>
</svg>
