<svg width="36" height="15" viewBox="0 0 36 15" fill="none" xmlns="http://www.w3.org/2000/svg">
<path d="M0.698509 11H2.34446V6.8718H4.58168C4.61896 6.8718 4.65092 6.8718 4.68821 6.8718L6.90412 11H8.77912L6.3608 6.58416C7.6978 6.08878 8.36364 4.9755 8.36364 3.51065C8.36364 1.50249 7.11719 0.0909088 4.587 0.0909088H0.698509V11ZM2.34446 5.4549V1.50249H4.41122C6.03587 1.50249 6.70703 2.27486 6.70703 3.51065C6.70703 4.74112 6.03587 5.4549 4.43253 5.4549H2.34446ZM15.4215 7.60689C15.4268 8.99716 14.3935 9.65767 13.4986 9.65767C12.5131 9.65767 11.8313 8.94389 11.8313 7.83061V2.81818H10.2386V8.02237C10.2386 10.0518 11.3519 11.1065 12.9233 11.1065C14.1538 11.1065 14.9901 10.4567 15.3683 9.5831H15.4535V11H17.0195V2.81818H15.4215V7.60689ZM19.2874 11H20.8428V9.72692H20.9759C21.2636 10.2489 21.8495 11.1598 23.341 11.1598C25.3225 11.1598 26.7607 9.57244 26.7607 6.92507C26.7607 4.27237 25.3012 2.71165 23.325 2.71165C21.8069 2.71165 21.2583 3.63849 20.9759 4.14453H20.8801V0.0909088H19.2874V11ZM20.8481 6.90909C20.8481 5.19922 21.5938 4.06463 22.9841 4.06463C24.4276 4.06463 25.1521 5.28445 25.1521 6.90909C25.1521 8.54972 24.4063 9.80149 22.9841 9.80149C21.6151 9.80149 20.8481 8.62962 20.8481 6.90909ZM29.263 14.0469C30.5787 14.0469 31.415 13.3597 31.8837 12.092L35.2662 2.83416L33.5456 2.81818L31.4735 9.16761H31.3883L29.3162 2.81818H27.6117L30.6053 11.1065L30.4082 11.6499C30.0034 12.7099 29.4334 12.8058 28.5598 12.5661L28.1763 13.8711C28.3681 13.9616 28.7836 14.0469 29.263 14.0469Z" fill="white"/>
</svg>
