<svg width="82" height="26" viewBox="0 0 82 26" fill="none" xmlns="http://www.w3.org/2000/svg">
<path d="M13.6477 8.87626H18.3636C18.2955 4.72854 14.8864 1.8649 9.70455 1.8649C4.60227 1.8649 0.863636 4.68308 0.886364 8.91035C0.875 12.3422 3.29545 14.3081 7.22727 15.2513L9.76136 15.8876C12.2955 16.5013 13.7045 17.2285 13.7159 18.7967C13.7045 20.5013 12.0909 21.6604 9.59091 21.6604C7.03409 21.6604 5.19318 20.4785 5.03409 18.149H0.272727C0.397727 23.1831 4 25.7854 9.64773 25.7854C15.3295 25.7854 18.6705 23.0694 18.6818 18.8081C18.6705 14.9331 15.75 12.8763 11.7045 11.9672L9.61364 11.4672C7.59091 11.0013 5.89773 10.2513 5.93182 8.58081C5.93182 7.08081 7.26136 5.97854 9.67045 5.97854C12.0227 5.97854 13.4659 7.04672 13.6477 8.87626ZM21.9006 25.4558H26.7415V19.9104L28.0483 18.4217L32.8097 25.4558H38.4801L31.6733 15.5581L38.1506 8.00126H32.5938L27.0028 14.6263H26.7415V2.18308H21.9006V25.4558ZM40.5256 25.4558H45.3665V8.00126H40.5256V25.4558ZM42.9574 5.75126C44.4006 5.75126 45.5824 4.64899 45.5824 3.29672C45.5824 1.95581 44.4006 0.853537 42.9574 0.853537C41.5256 0.853537 40.3438 1.95581 40.3438 3.29672C40.3438 4.64899 41.5256 5.75126 42.9574 5.75126ZM54.0852 2.18308H49.2443V25.4558H54.0852V2.18308ZM62.804 2.18308H57.9631V25.4558H62.804V2.18308ZM81.2045 12.9785C80.7727 9.76263 78.1818 7.77399 73.7727 7.77399C69.3068 7.77399 66.3636 9.84217 66.375 13.2058C66.3636 15.8194 68.0114 17.5126 71.4205 18.1944L74.4432 18.7967C75.9659 19.1035 76.6591 19.6604 76.6818 20.5354C76.6591 21.5694 75.5341 22.3081 73.8409 22.3081C72.1136 22.3081 70.9659 21.5694 70.6705 20.149L65.9091 20.399C66.3636 23.7399 69.2045 25.7967 73.8295 25.7967C78.3523 25.7967 81.5909 23.4899 81.6023 20.0467C81.5909 17.524 79.9432 16.0126 76.5568 15.3194L73.3977 14.6831C71.7727 14.3308 71.1705 13.774 71.1818 12.9331C71.1705 11.8876 72.3523 11.2058 73.8523 11.2058C75.5341 11.2058 76.5341 12.1263 76.7727 13.2513L81.2045 12.9785Z" fill="white"/>
</svg>
