<svg width="265" height="89" viewBox="0 0 265 89" fill="none" xmlns="http://www.w3.org/2000/svg">
<path d="M1.88636 13L3.05682 9.70455H7.76136L8.93182 13H10.4091L6.13636 1.36364H4.68182L0.409091 13H1.88636ZM3.5 8.45455L5.36364 3.20455H5.45455L7.31818 8.45455H3.5ZM19.8352 13.1818C21.517 13.1818 22.0852 12.1364 22.3807 11.6591H22.5398V13H23.8352V1.36364H22.4943V5.65909H22.3807C22.0852 5.20455 21.5625 4.15909 19.858 4.15909C17.6534 4.15909 16.1307 5.90909 16.1307 8.65909C16.1307 11.4318 17.6534 13.1818 19.8352 13.1818ZM20.017 11.9773C18.3352 11.9773 17.4716 10.5 17.4716 8.63636C17.4716 6.79545 18.3125 5.36364 20.017 5.36364C21.6534 5.36364 22.517 6.68182 22.517 8.63636C22.517 10.6136 21.6307 11.9773 20.017 11.9773ZM29.0455 13.2045C30.5682 13.2045 31.3636 12.3864 31.6364 11.8182H31.7045V13H33.0455V7.25C33.0455 4.47727 30.9318 4.15909 29.8182 4.15909C28.5 4.15909 27 4.61364 26.3182 6.20455L27.5909 6.65909C27.8864 6.02273 28.5852 5.34091 29.8636 5.34091C31.0966 5.34091 31.7045 5.99432 31.7045 7.11364V7.15909C31.7045 7.80682 31.0455 7.75 29.4545 7.95455C27.8352 8.16477 26.0682 8.52273 26.0682 10.5227C26.0682 12.2273 27.3864 13.2045 29.0455 13.2045ZM29.25 12C28.1818 12 27.4091 11.5227 27.4091 10.5909C27.4091 9.56818 28.3409 9.25 29.3864 9.11364C29.9545 9.04545 31.4773 8.88636 31.7045 8.61364V9.84091C31.7045 10.9318 30.8409 12 29.25 12ZM35.4929 13H36.8338V4.27273H35.4929V13ZM36.1747 2.81818C36.6974 2.81818 37.1293 2.40909 37.1293 1.90909C37.1293 1.40909 36.6974 1 36.1747 1C35.652 1 35.2202 1.40909 35.2202 1.90909C35.2202 2.40909 35.652 2.81818 36.1747 2.81818ZM40.6307 1.36364H39.2898V13H40.6307V1.36364ZM43.9503 16.25C45.1605 16.25 46.0185 15.608 46.5185 14.2727L50.2344 4.29545L48.7685 4.27273L46.3594 11.2273H46.2685L43.8594 4.27273H42.4048L45.6321 13.0455L45.3821 13.7273C44.9048 15.0341 44.2912 15.1591 43.3139 14.9091L42.973 16.0909C43.1094 16.1591 43.4957 16.25 43.9503 16.25ZM62.6903 6.22727C62.2699 4.98864 61.3267 4.15909 59.5994 4.15909C57.7585 4.15909 56.3949 5.20455 56.3949 6.68182C56.3949 7.88636 57.1108 8.69318 58.7131 9.06818L60.1676 9.40909C61.0483 9.61364 61.4631 10.0341 61.4631 10.6364C61.4631 11.3864 60.6676 12 59.4176 12C58.321 12 57.6335 11.5284 57.3949 10.5909L56.1222 10.9091C56.4347 12.392 57.6562 13.1818 59.4403 13.1818C61.4688 13.1818 62.8494 12.0739 62.8494 10.5682C62.8494 9.35227 62.0881 8.58523 60.5312 8.20455L59.2358 7.88636C58.2017 7.63068 57.7358 7.28409 57.7358 6.61364C57.7358 5.86364 58.5312 5.31818 59.5994 5.31818C60.7699 5.31818 61.2528 5.96591 61.4858 6.56818L62.6903 6.22727ZM68.527 13.1818C70.2997 13.1818 71.5952 12.2955 72.0043 10.9773L70.7088 10.6136C70.3679 11.5227 69.5781 11.9773 68.527 11.9773C66.9531 11.9773 65.8679 10.9602 65.8054 9.09091H72.1406V8.52273C72.1406 5.27273 70.2088 4.15909 68.3906 4.15909C66.027 4.15909 64.4588 6.02273 64.4588 8.70455C64.4588 11.3864 66.0043 13.1818 68.527 13.1818ZM65.8054 7.93182C65.8963 6.57386 66.8565 5.36364 68.3906 5.36364C69.8452 5.36364 70.777 6.45455 70.777 7.93182H65.8054ZM75.5213 1.36364H74.1804V13H75.5213V1.36364ZM81.6364 13.1818C83.4091 13.1818 84.7045 12.2955 85.1136 10.9773L83.8182 10.6136C83.4773 11.5227 82.6875 11.9773 81.6364 11.9773C80.0625 11.9773 78.9773 10.9602 78.9148 9.09091H85.25V8.52273C85.25 5.27273 83.3182 4.15909 81.5 4.15909C79.1364 4.15909 77.5682 6.02273 77.5682 8.70455C77.5682 11.3864 79.1136 13.1818 81.6364 13.1818ZM78.9148 7.93182C79.0057 6.57386 79.9659 5.36364 81.5 5.36364C82.9545 5.36364 83.8864 6.45455 83.8864 7.93182H78.9148ZM90.8352 13.1818C92.767 13.1818 94.0398 12 94.267 10.4545H92.9261C92.6761 11.4091 91.8807 11.9773 90.8352 11.9773C89.2443 11.9773 88.2216 10.6591 88.2216 8.63636C88.2216 6.65909 89.267 5.36364 90.8352 5.36364C92.017 5.36364 92.7216 6.09091 92.9261 6.88636H94.267C94.0398 5.25 92.6534 4.15909 90.8125 4.15909C88.4489 4.15909 86.8807 6.02273 86.8807 8.68182C86.8807 11.2955 88.3807 13.1818 90.8352 13.1818ZM100.023 4.27273H98.1591V2.18182H96.8182V4.27273H95.5V5.40909H96.8182V10.8636C96.8182 12.3864 98.0455 13.1136 99.1818 13.1136C99.6818 13.1136 100 13.0227 100.182 12.9545L99.9091 11.75C99.7955 11.7727 99.6136 11.8182 99.3182 11.8182C98.7273 11.8182 98.1591 11.6364 98.1591 10.5V5.40909H100.023V4.27273ZM102.04 13H103.381V4.27273H102.04V13ZM102.722 2.81818C103.244 2.81818 103.676 2.40909 103.676 1.90909C103.676 1.40909 103.244 1 102.722 1C102.199 1 101.767 1.40909 101.767 1.90909C101.767 2.40909 102.199 2.81818 102.722 2.81818ZM109.382 13.1818C111.746 13.1818 113.337 11.3864 113.337 8.68182C113.337 5.95455 111.746 4.15909 109.382 4.15909C107.018 4.15909 105.428 5.95455 105.428 8.68182C105.428 11.3864 107.018 13.1818 109.382 13.1818ZM109.382 11.9773C107.587 11.9773 106.768 10.4318 106.768 8.68182C106.768 6.93182 107.587 5.36364 109.382 5.36364C111.178 5.36364 111.996 6.93182 111.996 8.68182C111.996 10.4318 111.178 11.9773 109.382 11.9773ZM116.724 7.75C116.724 6.22727 117.668 5.36364 118.952 5.36364C120.196 5.36364 120.952 6.17614 120.952 7.54545V13H122.293V7.45455C122.293 5.22727 121.105 4.15909 119.338 4.15909C118.02 4.15909 117.202 4.75 116.793 5.63636H116.679V4.27273H115.384V13H116.724V7.75ZM132.788 13.1818C135.152 13.1818 136.743 11.3864 136.743 8.68182C136.743 5.95455 135.152 4.15909 132.788 4.15909C130.425 4.15909 128.834 5.95455 128.834 8.68182C128.834 11.3864 130.425 13.1818 132.788 13.1818ZM132.788 11.9773C130.993 11.9773 130.175 10.4318 130.175 8.68182C130.175 6.93182 130.993 5.36364 132.788 5.36364C134.584 5.36364 135.402 6.93182 135.402 8.68182C135.402 10.4318 134.584 11.9773 132.788 11.9773ZM142.676 4.27273H140.722V3.38636C140.722 2.52273 141.085 2.06818 141.972 2.06818C142.358 2.06818 142.585 2.15909 142.722 2.20455L143.108 1.04545C142.903 0.954545 142.494 0.818181 141.835 0.818181C140.585 0.818181 139.381 1.56818 139.381 3.06818V4.27273H137.972V5.40909H139.381V13H140.722V5.40909H142.676V4.27273ZM149.055 16.2727H150.396V11.6591H150.51C150.805 12.1364 151.374 13.1818 153.055 13.1818C155.237 13.1818 156.76 11.4318 156.76 8.65909C156.76 5.90909 155.237 4.15909 153.033 4.15909C151.328 4.15909 150.805 5.20455 150.51 5.65909H150.351V4.27273H149.055V16.2727ZM150.374 8.63636C150.374 6.68182 151.237 5.36364 152.874 5.36364C154.578 5.36364 155.419 6.79545 155.419 8.63636C155.419 10.5 154.555 11.9773 152.874 11.9773C151.26 11.9773 150.374 10.6136 150.374 8.63636ZM158.805 13H160.146V7.47727C160.146 6.29545 161.078 5.43182 162.351 5.43182C162.709 5.43182 163.078 5.5 163.169 5.52273V4.15909C163.016 4.14773 162.663 4.13636 162.464 4.13636C161.419 4.13636 160.51 4.72727 160.192 5.59091H160.101V4.27273H158.805V13ZM164.759 13H166.099V4.27273H164.759V13ZM165.44 2.81818C165.963 2.81818 166.395 2.40909 166.395 1.90909C166.395 1.40909 165.963 1 165.44 1C164.918 1 164.486 1.40909 164.486 1.90909C164.486 2.40909 164.918 2.81818 165.44 2.81818ZM175.692 4.27273H174.237L171.828 11.2273H171.737L169.328 4.27273H167.874L171.101 13H172.464L175.692 4.27273ZM179.764 13.2045C181.287 13.2045 182.082 12.3864 182.355 11.8182H182.423V13H183.764V7.25C183.764 4.47727 181.651 4.15909 180.537 4.15909C179.219 4.15909 177.719 4.61364 177.037 6.20455L178.31 6.65909C178.605 6.02273 179.304 5.34091 180.582 5.34091C181.815 5.34091 182.423 5.99432 182.423 7.11364V7.15909C182.423 7.80682 181.764 7.75 180.173 7.95455C178.554 8.16477 176.787 8.52273 176.787 10.5227C176.787 12.2273 178.105 13.2045 179.764 13.2045ZM179.969 12C178.901 12 178.128 11.5227 178.128 10.5909C178.128 9.56818 179.06 9.25 180.105 9.11364C180.673 9.04545 182.196 8.88636 182.423 8.61364V9.84091C182.423 10.9318 181.56 12 179.969 12ZM190.007 4.27273H188.143V2.18182H186.803V4.27273H185.484V5.40909H186.803V10.8636C186.803 12.3864 188.03 13.1136 189.166 13.1136C189.666 13.1136 189.984 13.0227 190.166 12.9545L189.893 11.75C189.78 11.7727 189.598 11.8182 189.303 11.8182C188.712 11.8182 188.143 11.6364 188.143 10.5V5.40909H190.007V4.27273ZM195.589 13.1818C197.362 13.1818 198.658 12.2955 199.067 10.9773L197.771 10.6136C197.43 11.5227 196.641 11.9773 195.589 11.9773C194.016 11.9773 192.93 10.9602 192.868 9.09091H199.203V8.52273C199.203 5.27273 197.271 4.15909 195.453 4.15909C193.089 4.15909 191.521 6.02273 191.521 8.70455C191.521 11.3864 193.067 13.1818 195.589 13.1818ZM192.868 7.93182C192.959 6.57386 193.919 5.36364 195.453 5.36364C196.908 5.36364 197.839 6.45455 197.839 7.93182H192.868ZM202.584 1.36364H201.243V13H202.584V1.36364ZM205.903 16.25C207.114 16.25 207.972 15.608 208.472 14.2727L212.188 4.29545L210.722 4.27273L208.312 11.2273H208.222L205.812 4.27273H204.358L207.585 13.0455L207.335 13.7273C206.858 15.0341 206.244 15.1591 205.267 14.9091L204.926 16.0909C205.062 16.1591 205.449 16.25 205.903 16.25ZM1.22727 40.2727H2.56818V35.6591H2.68182C2.97727 36.1364 3.54545 37.1818 5.22727 37.1818C7.40909 37.1818 8.93182 35.4318 8.93182 32.6591C8.93182 29.9091 7.40909 28.1591 5.20455 28.1591C3.5 28.1591 2.97727 29.2045 2.68182 29.6591H2.52273V28.2727H1.22727V40.2727ZM2.54545 32.6364C2.54545 30.6818 3.40909 29.3636 5.04545 29.3636C6.75 29.3636 7.59091 30.7955 7.59091 32.6364C7.59091 34.5 6.72727 35.9773 5.04545 35.9773C3.43182 35.9773 2.54545 34.6136 2.54545 32.6364ZM14.6364 37.1818C16.4091 37.1818 17.7045 36.2955 18.1136 34.9773L16.8182 34.6136C16.4773 35.5227 15.6875 35.9773 14.6364 35.9773C13.0625 35.9773 11.9773 34.9602 11.9148 33.0909H18.25V32.5227C18.25 29.2727 16.3182 28.1591 14.5 28.1591C12.1364 28.1591 10.5682 30.0227 10.5682 32.7045C10.5682 35.3864 12.1136 37.1818 14.6364 37.1818ZM11.9148 31.9318C12.0057 30.5739 12.9659 29.3636 14.5 29.3636C15.9545 29.3636 16.8864 30.4545 16.8864 31.9318H11.9148ZM20.2898 37H21.6307V31.4773C21.6307 30.2955 22.5625 29.4318 23.8352 29.4318C24.1932 29.4318 24.5625 29.5 24.6534 29.5227V28.1591C24.5 28.1477 24.1477 28.1364 23.9489 28.1364C22.9034 28.1364 21.9943 28.7273 21.6761 29.5909H21.5852V28.2727H20.2898V37ZM32.4247 30.2273C32.0043 28.9886 31.0611 28.1591 29.3338 28.1591C27.4929 28.1591 26.1293 29.2045 26.1293 30.6818C26.1293 31.8864 26.8452 32.6932 28.4474 33.0682L29.902 33.4091C30.7827 33.6136 31.1974 34.0341 31.1974 34.6364C31.1974 35.3864 30.402 36 29.152 36C28.0554 36 27.3679 35.5284 27.1293 34.5909L25.8565 34.9091C26.169 36.392 27.3906 37.1818 29.1747 37.1818C31.2031 37.1818 32.5838 36.0739 32.5838 34.5682C32.5838 33.3523 31.8224 32.5852 30.2656 32.2045L28.9702 31.8864C27.9361 31.6307 27.4702 31.2841 27.4702 30.6136C27.4702 29.8636 28.2656 29.3182 29.3338 29.3182C30.5043 29.3182 30.9872 29.9659 31.2202 30.5682L32.4247 30.2273ZM38.1477 37.1818C40.5114 37.1818 42.1023 35.3864 42.1023 32.6818C42.1023 29.9545 40.5114 28.1591 38.1477 28.1591C35.7841 28.1591 34.1932 29.9545 34.1932 32.6818C34.1932 35.3864 35.7841 37.1818 38.1477 37.1818ZM38.1477 35.9773C36.3523 35.9773 35.5341 34.4318 35.5341 32.6818C35.5341 30.9318 36.3523 29.3636 38.1477 29.3636C39.9432 29.3636 40.7614 30.9318 40.7614 32.6818C40.7614 34.4318 39.9432 35.9773 38.1477 35.9773ZM45.4901 31.75C45.4901 30.2273 46.4332 29.3636 47.7173 29.3636C48.9616 29.3636 49.7173 30.1761 49.7173 31.5455V37H51.0582V31.4545C51.0582 29.2273 49.8707 28.1591 48.1037 28.1591C46.7855 28.1591 45.9673 28.75 45.5582 29.6364H45.4446V28.2727H44.1491V37H45.4901V31.75ZM56.0767 37.2045C57.5994 37.2045 58.3949 36.3864 58.6676 35.8182H58.7358V37H60.0767V31.25C60.0767 28.4773 57.9631 28.1591 56.8494 28.1591C55.5312 28.1591 54.0312 28.6136 53.3494 30.2045L54.6222 30.6591C54.9176 30.0227 55.6165 29.3409 56.8949 29.3409C58.1278 29.3409 58.7358 29.9943 58.7358 31.1136V31.1591C58.7358 31.8068 58.0767 31.75 56.4858 31.9545C54.8665 32.1648 53.0994 32.5227 53.0994 34.5227C53.0994 36.2273 54.4176 37.2045 56.0767 37.2045ZM56.2812 36C55.2131 36 54.4403 35.5227 54.4403 34.5909C54.4403 33.5682 55.3722 33.25 56.4176 33.1136C56.9858 33.0455 58.5085 32.8864 58.7358 32.6136V33.8409C58.7358 34.9318 57.8722 36 56.2812 36ZM63.8651 25.3636H62.5241V37H63.8651V25.3636ZM66.321 37H67.6619V28.2727H66.321V37ZM67.0028 26.8182C67.5256 26.8182 67.9574 26.4091 67.9574 25.9091C67.9574 25.4091 67.5256 25 67.0028 25C66.4801 25 66.0483 25.4091 66.0483 25.9091C66.0483 26.4091 66.4801 26.8182 67.0028 26.8182ZM69.8679 37H76.7088V35.75H71.7315V35.6591L76.5497 29.3409V28.2727H70.027V29.5227H74.8224V29.6136L69.8679 35.9773V37ZM82.1832 37.1818C83.956 37.1818 85.2514 36.2955 85.6605 34.9773L84.3651 34.6136C84.0241 35.5227 83.2344 35.9773 82.1832 35.9773C80.6094 35.9773 79.5241 34.9602 79.4616 33.0909H85.7969V32.5227C85.7969 29.2727 83.8651 28.1591 82.0469 28.1591C79.6832 28.1591 78.1151 30.0227 78.1151 32.7045C78.1151 35.3864 79.6605 37.1818 82.1832 37.1818ZM79.4616 31.9318C79.5526 30.5739 80.5128 29.3636 82.0469 29.3636C83.5014 29.3636 84.4332 30.4545 84.4332 31.9318H79.4616ZM91.1321 37.1818C92.8139 37.1818 93.3821 36.1364 93.6776 35.6591H93.8366V37H95.1321V25.3636H93.7912V29.6591H93.6776C93.3821 29.2045 92.8594 28.1591 91.1548 28.1591C88.9503 28.1591 87.4276 29.9091 87.4276 32.6591C87.4276 35.4318 88.9503 37.1818 91.1321 37.1818ZM91.3139 35.9773C89.6321 35.9773 88.7685 34.5 88.7685 32.6364C88.7685 30.7955 89.6094 29.3636 91.3139 29.3636C92.9503 29.3636 93.8139 30.6818 93.8139 32.6364C93.8139 34.6136 92.9276 35.9773 91.3139 35.9773ZM102.274 37H103.615V31.4773C103.615 30.2955 104.547 29.4318 105.82 29.4318C106.178 29.4318 106.547 29.5 106.638 29.5227V28.1591C106.484 28.1477 106.132 28.1364 105.933 28.1364C104.888 28.1364 103.979 28.7273 103.661 29.5909H103.57V28.2727H102.274V37ZM111.621 37.1818C113.393 37.1818 114.689 36.2955 115.098 34.9773L113.803 34.6136C113.462 35.5227 112.672 35.9773 111.621 35.9773C110.047 35.9773 108.962 34.9602 108.899 33.0909H115.234V32.5227C115.234 29.2727 113.303 28.1591 111.484 28.1591C109.121 28.1591 107.553 30.0227 107.553 32.7045C107.553 35.3864 109.098 37.1818 111.621 37.1818ZM108.899 31.9318C108.99 30.5739 109.95 29.3636 111.484 29.3636C112.939 29.3636 113.871 30.4545 113.871 31.9318H108.899ZM119.842 37.2045C121.365 37.2045 122.161 36.3864 122.433 35.8182H122.501V37H123.842V31.25C123.842 28.4773 121.729 28.1591 120.615 28.1591C119.297 28.1591 117.797 28.6136 117.115 30.2045L118.388 30.6591C118.683 30.0227 119.382 29.3409 120.661 29.3409C121.893 29.3409 122.501 29.9943 122.501 31.1136V31.1591C122.501 31.8068 121.842 31.75 120.251 31.9545C118.632 32.1648 116.865 32.5227 116.865 34.5227C116.865 36.2273 118.183 37.2045 119.842 37.2045ZM120.047 36C118.979 36 118.206 35.5227 118.206 34.5909C118.206 33.5682 119.138 33.25 120.183 33.1136C120.751 33.0455 122.274 32.8864 122.501 32.6136V33.8409C122.501 34.9318 121.638 36 120.047 36ZM129.585 37.1818C131.267 37.1818 131.835 36.1364 132.131 35.6591H132.29V37H133.585V25.3636H132.244V29.6591H132.131C131.835 29.2045 131.312 28.1591 129.608 28.1591C127.403 28.1591 125.881 29.9091 125.881 32.6591C125.881 35.4318 127.403 37.1818 129.585 37.1818ZM129.767 35.9773C128.085 35.9773 127.222 34.5 127.222 32.6364C127.222 30.7955 128.062 29.3636 129.767 29.3636C131.403 29.3636 132.267 30.6818 132.267 32.6364C132.267 34.6136 131.381 35.9773 129.767 35.9773ZM142.409 30.2273C141.989 28.9886 141.045 28.1591 139.318 28.1591C137.477 28.1591 136.114 29.2045 136.114 30.6818C136.114 31.8864 136.83 32.6932 138.432 33.0682L139.886 33.4091C140.767 33.6136 141.182 34.0341 141.182 34.6364C141.182 35.3864 140.386 36 139.136 36C138.04 36 137.352 35.5284 137.114 34.5909L135.841 34.9091C136.153 36.392 137.375 37.1818 139.159 37.1818C141.188 37.1818 142.568 36.0739 142.568 34.5682C142.568 33.3523 141.807 32.5852 140.25 32.2045L138.955 31.8864C137.92 31.6307 137.455 31.2841 137.455 30.6136C137.455 29.8636 138.25 29.3182 139.318 29.3182C140.489 29.3182 140.972 29.9659 141.205 30.5682L142.409 30.2273ZM146.587 35.4091H145.132L145.064 36.0455C144.899 37.5852 144.575 39.1193 144.428 39.8409H145.45C145.723 39.0682 146.303 37.3182 146.496 36.0227L146.587 35.4091ZM145.768 30.6136C146.331 30.6136 146.791 30.1534 146.791 29.5909C146.791 29.0284 146.331 28.5682 145.768 28.5682C145.206 28.5682 144.746 29.0284 144.746 29.5909C144.746 30.1534 145.206 30.6136 145.768 30.6136ZM154.912 31.75C154.912 30.2273 155.855 29.3636 157.139 29.3636C158.384 29.3636 159.139 30.1761 159.139 31.5455V37H160.48V31.4545C160.48 29.2273 159.293 28.1591 157.526 28.1591C156.207 28.1591 155.389 28.75 154.98 29.6364H154.866V28.2727H153.571V37H154.912V31.75ZM166.476 37.1818C168.839 37.1818 170.43 35.3864 170.43 32.6818C170.43 29.9545 168.839 28.1591 166.476 28.1591C164.112 28.1591 162.521 29.9545 162.521 32.6818C162.521 35.3864 164.112 37.1818 166.476 37.1818ZM166.476 35.9773C164.68 35.9773 163.862 34.4318 163.862 32.6818C163.862 30.9318 164.68 29.3636 166.476 29.3636C168.271 29.3636 169.089 30.9318 169.089 32.6818C169.089 34.4318 168.271 35.9773 166.476 35.9773ZM179.545 37.2045C181.068 37.2045 181.864 36.3864 182.136 35.8182H182.205V37H183.545V31.25C183.545 28.4773 181.432 28.1591 180.318 28.1591C179 28.1591 177.5 28.6136 176.818 30.2045L178.091 30.6591C178.386 30.0227 179.085 29.3409 180.364 29.3409C181.597 29.3409 182.205 29.9943 182.205 31.1136V31.1591C182.205 31.8068 181.545 31.75 179.955 31.9545C178.335 32.1648 176.568 32.5227 176.568 34.5227C176.568 36.2273 177.886 37.2045 179.545 37.2045ZM179.75 36C178.682 36 177.909 35.5227 177.909 34.5909C177.909 33.5682 178.841 33.25 179.886 33.1136C180.455 33.0455 181.977 32.8864 182.205 32.6136V33.8409C182.205 34.9318 181.341 36 179.75 36ZM189.538 37.1818C191.47 37.1818 192.743 36 192.97 34.4545H191.629C191.379 35.4091 190.584 35.9773 189.538 35.9773C187.947 35.9773 186.925 34.6591 186.925 32.6364C186.925 30.6591 187.97 29.3636 189.538 29.3636C190.72 29.3636 191.425 30.0909 191.629 30.8864H192.97C192.743 29.25 191.357 28.1591 189.516 28.1591C187.152 28.1591 185.584 30.0227 185.584 32.6818C185.584 35.2955 187.084 37.1818 189.538 37.1818ZM198.476 37.1818C200.408 37.1818 201.68 36 201.908 34.4545H200.567C200.317 35.4091 199.521 35.9773 198.476 35.9773C196.885 35.9773 195.862 34.6591 195.862 32.6364C195.862 30.6591 196.908 29.3636 198.476 29.3636C199.658 29.3636 200.362 30.0909 200.567 30.8864H201.908C201.68 29.25 200.294 28.1591 198.453 28.1591C196.089 28.1591 194.521 30.0227 194.521 32.6818C194.521 35.2955 196.021 37.1818 198.476 37.1818ZM207.413 37.1818C209.777 37.1818 211.368 35.3864 211.368 32.6818C211.368 29.9545 209.777 28.1591 207.413 28.1591C205.05 28.1591 203.459 29.9545 203.459 32.6818C203.459 35.3864 205.05 37.1818 207.413 37.1818ZM207.413 35.9773C205.618 35.9773 204.8 34.4318 204.8 32.6818C204.8 30.9318 205.618 29.3636 207.413 29.3636C209.209 29.3636 210.027 30.9318 210.027 32.6818C210.027 34.4318 209.209 35.9773 207.413 35.9773ZM218.915 33.4318C218.915 35.0682 217.665 35.8182 216.665 35.8182C215.551 35.8182 214.756 35 214.756 33.7273V28.2727H213.415V33.8182C213.415 36.0455 214.597 37.1136 216.233 37.1136C217.551 37.1136 218.415 36.4091 218.824 35.5227H218.915V37H220.256V28.2727H218.915V33.4318ZM224.053 31.75C224.053 30.2273 224.996 29.3636 226.28 29.3636C227.524 29.3636 228.28 30.1761 228.28 31.5455V37H229.621V31.4545C229.621 29.2273 228.433 28.1591 226.666 28.1591C225.348 28.1591 224.53 28.75 224.121 29.6364H224.007V28.2727H222.712V37H224.053V31.75ZM235.866 28.2727H234.003V26.1818H232.662V28.2727H231.344V29.4091H232.662V34.8636C232.662 36.3864 233.889 37.1136 235.026 37.1136C235.526 37.1136 235.844 37.0227 236.026 36.9545L235.753 35.75C235.639 35.7727 235.457 35.8182 235.162 35.8182C234.571 35.8182 234.003 35.6364 234.003 34.5V29.4091H235.866V28.2727ZM243.909 30.2273C243.489 28.9886 242.545 28.1591 240.818 28.1591C238.977 28.1591 237.614 29.2045 237.614 30.6818C237.614 31.8864 238.33 32.6932 239.932 33.0682L241.386 33.4091C242.267 33.6136 242.682 34.0341 242.682 34.6364C242.682 35.3864 241.886 36 240.636 36C239.54 36 238.852 35.5284 238.614 34.5909L237.341 34.9091C237.653 36.392 238.875 37.1818 240.659 37.1818C242.688 37.1818 244.068 36.0739 244.068 34.5682C244.068 33.3523 243.307 32.5852 241.75 32.2045L240.455 31.8864C239.42 31.6307 238.955 31.2841 238.955 30.6136C238.955 29.8636 239.75 29.3182 240.818 29.3182C241.989 29.3182 242.472 29.9659 242.705 30.5682L243.909 30.2273ZM254.132 37.1818C256.496 37.1818 258.087 35.3864 258.087 32.6818C258.087 29.9545 256.496 28.1591 254.132 28.1591C251.768 28.1591 250.178 29.9545 250.178 32.6818C250.178 35.3864 251.768 37.1818 254.132 37.1818ZM254.132 35.9773C252.337 35.9773 251.518 34.4318 251.518 32.6818C251.518 30.9318 252.337 29.3636 254.132 29.3636C255.928 29.3636 256.746 30.9318 256.746 32.6818C256.746 34.4318 255.928 35.9773 254.132 35.9773ZM260.134 37H261.474V31.4773C261.474 30.2955 262.406 29.4318 263.679 29.4318C264.037 29.4318 264.406 29.5 264.497 29.5227V28.1591C264.344 28.1477 263.991 28.1364 263.793 28.1364C262.747 28.1364 261.838 28.7273 261.52 29.5909H261.429V28.2727H260.134V37ZM7.40909 54.2273C6.98864 52.9886 6.04545 52.1591 4.31818 52.1591C2.47727 52.1591 1.11364 53.2045 1.11364 54.6818C1.11364 55.8864 1.82955 56.6932 3.43182 57.0682L4.88636 57.4091C5.76705 57.6136 6.18182 58.0341 6.18182 58.6364C6.18182 59.3864 5.38636 60 4.13636 60C3.03977 60 2.35227 59.5284 2.11364 58.5909L0.840909 58.9091C1.15341 60.392 2.375 61.1818 4.15909 61.1818C6.1875 61.1818 7.56818 60.0739 7.56818 58.5682C7.56818 57.3523 6.80682 56.5852 5.25 56.2045L3.95455 55.8864C2.92045 55.6307 2.45455 55.2841 2.45455 54.6136C2.45455 53.8636 3.25 53.3182 4.31818 53.3182C5.48864 53.3182 5.97159 53.9659 6.20455 54.5682L7.40909 54.2273ZM9.58665 61H10.9276V52.2727H9.58665V61ZM10.2685 50.8182C10.7912 50.8182 11.223 50.4091 11.223 49.9091C11.223 49.4091 10.7912 49 10.2685 49C9.74574 49 9.31392 49.4091 9.31392 49.9091C9.31392 50.4091 9.74574 50.8182 10.2685 50.8182ZM16.9062 64.4545C18.9972 64.4545 20.679 63.5 20.679 61.25V52.2727H19.3835V53.6591H19.2472C18.9517 53.2045 18.4062 52.1591 16.7017 52.1591C14.4972 52.1591 12.9744 53.9091 12.9744 56.5909C12.9744 59.3182 14.5653 60.8636 16.679 60.8636C18.3835 60.8636 18.929 59.8636 19.2244 59.3864H19.3381V61.1591C19.3381 62.6136 18.3153 63.2727 16.9062 63.2727C15.321 63.2727 14.7642 62.4375 14.4062 61.9545L13.3381 62.7045C13.8835 63.6193 14.9574 64.4545 16.9062 64.4545ZM16.8608 59.6591C15.179 59.6591 14.3153 58.3864 14.3153 56.5682C14.3153 54.7955 15.1562 53.3636 16.8608 53.3636C18.4972 53.3636 19.3608 54.6818 19.3608 56.5682C19.3608 58.5 18.4744 59.6591 16.8608 59.6591ZM24.4744 55.75C24.4744 54.2273 25.4176 53.3636 26.7017 53.3636C27.946 53.3636 28.7017 54.1761 28.7017 55.5455V61H30.0426V55.4545C30.0426 53.2273 28.8551 52.1591 27.0881 52.1591C25.7699 52.1591 24.9517 52.75 24.5426 53.6364H24.429V52.2727H23.1335V61H24.4744V55.75ZM37.4929 55.3864H32.402V56.6364H37.4929V55.3864ZM45.3523 57.4318C45.3523 59.0682 44.1023 59.8182 43.1023 59.8182C41.9886 59.8182 41.1932 59 41.1932 57.7273V52.2727H39.8523V57.8182C39.8523 60.0455 41.0341 61.1136 42.6705 61.1136C43.9886 61.1136 44.8523 60.4091 45.2614 59.5227H45.3523V61H46.6932V52.2727H45.3523V57.4318ZM49.1491 64.2727H50.4901V59.6591H50.6037C50.8991 60.1364 51.4673 61.1818 53.1491 61.1818C55.331 61.1818 56.8537 59.4318 56.8537 56.6591C56.8537 53.9091 55.331 52.1591 53.1264 52.1591C51.4219 52.1591 50.8991 53.2045 50.6037 53.6591H50.4446V52.2727H49.1491V64.2727ZM50.4673 56.6364C50.4673 54.6818 51.331 53.3636 52.9673 53.3636C54.6719 53.3636 55.5128 54.7955 55.5128 56.6364C55.5128 58.5 54.6491 59.9773 52.9673 59.9773C51.3537 59.9773 50.4673 58.6136 50.4673 56.6364ZM65.081 54.2273C64.6605 52.9886 63.7173 52.1591 61.9901 52.1591C60.1491 52.1591 58.7855 53.2045 58.7855 54.6818C58.7855 55.8864 59.5014 56.6932 61.1037 57.0682L62.5582 57.4091C63.4389 57.6136 63.8537 58.0341 63.8537 58.6364C63.8537 59.3864 63.0582 60 61.8082 60C60.7116 60 60.0241 59.5284 59.7855 58.5909L58.5128 58.9091C58.8253 60.392 60.0469 61.1818 61.831 61.1818C63.8594 61.1818 65.2401 60.0739 65.2401 58.5682C65.2401 57.3523 64.4787 56.5852 62.9219 56.2045L61.6264 55.8864C60.5923 55.6307 60.1264 55.2841 60.1264 54.6136C60.1264 53.8636 60.9219 53.3182 61.9901 53.3182C63.1605 53.3182 63.6435 53.9659 63.8764 54.5682L65.081 54.2273ZM71.7585 61H73.0994V55.4773C73.0994 54.2955 74.0312 53.4318 75.304 53.4318C75.6619 53.4318 76.0312 53.5 76.1222 53.5227V52.1591C75.9688 52.1477 75.6165 52.1364 75.4176 52.1364C74.3722 52.1364 73.4631 52.7273 73.1449 53.5909H73.054V52.2727H71.7585V61ZM81.1051 61.1818C82.8778 61.1818 84.1733 60.2955 84.5824 58.9773L83.2869 58.6136C82.946 59.5227 82.1562 59.9773 81.1051 59.9773C79.5312 59.9773 78.446 58.9602 78.3835 57.0909H84.7188V56.5227C84.7188 53.2727 82.7869 52.1591 80.9688 52.1591C78.6051 52.1591 77.0369 54.0227 77.0369 56.7045C77.0369 59.3864 78.5824 61.1818 81.1051 61.1818ZM78.3835 55.9318C78.4744 54.5739 79.4347 53.3636 80.9688 53.3636C82.4233 53.3636 83.3551 54.4545 83.3551 55.9318H78.3835ZM94.054 64.2727V52.2727H92.7585V53.6591H92.5994C92.304 53.2045 91.7812 52.1591 90.0767 52.1591C87.8722 52.1591 86.3494 53.9091 86.3494 56.6591C86.3494 59.4318 87.8722 61.1818 90.054 61.1818C91.7358 61.1818 92.304 60.1364 92.5994 59.6591H92.7131V64.2727H94.054ZM92.7358 56.6364C92.7358 58.6136 91.8494 59.9773 90.2358 59.9773C88.554 59.9773 87.6903 58.5 87.6903 56.6364C87.6903 54.7955 88.5312 53.3636 90.2358 53.3636C91.8722 53.3636 92.7358 54.6818 92.7358 56.6364ZM102.009 57.4318C102.009 59.0682 100.759 59.8182 99.7585 59.8182C98.6449 59.8182 97.8494 59 97.8494 57.7273V52.2727H96.5085V57.8182C96.5085 60.0455 97.6903 61.1136 99.3267 61.1136C100.645 61.1136 101.509 60.4091 101.918 59.5227H102.009V61H103.349V52.2727H102.009V57.4318ZM105.805 61H107.146V52.2727H105.805V61ZM106.487 50.8182C107.01 50.8182 107.442 50.4091 107.442 49.9091C107.442 49.4091 107.01 49 106.487 49C105.964 49 105.533 49.4091 105.533 49.9091C105.533 50.4091 105.964 50.8182 106.487 50.8182ZM109.602 61H110.943V55.4773C110.943 54.2955 111.875 53.4318 113.148 53.4318C113.506 53.4318 113.875 53.5 113.966 53.5227V52.1591C113.812 52.1477 113.46 52.1364 113.261 52.1364C112.216 52.1364 111.307 52.7273 110.989 53.5909H110.898V52.2727H109.602V61ZM118.949 61.1818C120.722 61.1818 122.017 60.2955 122.426 58.9773L121.131 58.6136C120.79 59.5227 120 59.9773 118.949 59.9773C117.375 59.9773 116.29 58.9602 116.227 57.0909H122.562V56.5227C122.562 53.2727 120.631 52.1591 118.812 52.1591C116.449 52.1591 114.881 54.0227 114.881 56.7045C114.881 59.3864 116.426 61.1818 118.949 61.1818ZM116.227 55.9318C116.318 54.5739 117.278 53.3636 118.812 53.3636C120.267 53.3636 121.199 54.4545 121.199 55.9318H116.227ZM127.898 61.1818C129.58 61.1818 130.148 60.1364 130.443 59.6591H130.602V61H131.898V49.3636H130.557V53.6591H130.443C130.148 53.2045 129.625 52.1591 127.92 52.1591C125.716 52.1591 124.193 53.9091 124.193 56.6591C124.193 59.4318 125.716 61.1818 127.898 61.1818ZM128.08 59.9773C126.398 59.9773 125.534 58.5 125.534 56.6364C125.534 54.7955 126.375 53.3636 128.08 53.3636C129.716 53.3636 130.58 54.6818 130.58 56.6364C130.58 58.6136 129.693 59.9773 128.08 59.9773ZM135.517 61.0909C136.08 61.0909 136.54 60.6307 136.54 60.0682C136.54 59.5057 136.08 59.0455 135.517 59.0455C134.955 59.0455 134.494 59.5057 134.494 60.0682C134.494 60.6307 134.955 61.0909 135.517 61.0909ZM144.787 55.75C144.787 54.2273 145.759 53.3636 147.082 53.3636C148.344 53.3636 149.105 54.1591 149.105 55.5455V61H150.446V55.4545C150.446 53.2102 149.253 52.1591 147.469 52.1591C146.094 52.1591 145.31 52.733 144.901 53.6364H144.787V49.3636H143.446V61H144.787V55.75ZM155.467 61.2045C156.99 61.2045 157.786 60.3864 158.058 59.8182H158.126V61H159.467V55.25C159.467 52.4773 157.354 52.1591 156.24 52.1591C154.922 52.1591 153.422 52.6136 152.74 54.2045L154.013 54.6591C154.308 54.0227 155.007 53.3409 156.286 53.3409C157.518 53.3409 158.126 53.9943 158.126 55.1136V55.1591C158.126 55.8068 157.467 55.75 155.876 55.9545C154.257 56.1648 152.49 56.5227 152.49 58.5227C152.49 60.2273 153.808 61.2045 155.467 61.2045ZM155.672 60C154.604 60 153.831 59.5227 153.831 58.5909C153.831 57.5682 154.763 57.25 155.808 57.1136C156.376 57.0455 157.899 56.8864 158.126 56.6136V57.8409C158.126 58.9318 157.263 60 155.672 60ZM168.097 54.2273C167.676 52.9886 166.733 52.1591 165.006 52.1591C163.165 52.1591 161.801 53.2045 161.801 54.6818C161.801 55.8864 162.517 56.6932 164.119 57.0682L165.574 57.4091C166.455 57.6136 166.869 58.0341 166.869 58.6364C166.869 59.3864 166.074 60 164.824 60C163.727 60 163.04 59.5284 162.801 58.5909L161.528 58.9091C161.841 60.392 163.062 61.1818 164.847 61.1818C166.875 61.1818 168.256 60.0739 168.256 58.5682C168.256 57.3523 167.494 56.5852 165.938 56.2045L164.642 55.8864C163.608 55.6307 163.142 55.2841 163.142 54.6136C163.142 53.8636 163.938 53.3182 165.006 53.3182C166.176 53.3182 166.659 53.9659 166.892 54.5682L168.097 54.2273ZM174.956 61H176.251V59.6591H176.411C176.706 60.1364 177.274 61.1818 178.956 61.1818C181.138 61.1818 182.661 59.4318 182.661 56.6591C182.661 53.9091 181.138 52.1591 178.933 52.1591C177.229 52.1591 176.706 53.2045 176.411 53.6591H176.297V49.3636H174.956V61ZM176.274 56.6364C176.274 54.6818 177.138 53.3636 178.774 53.3636C180.479 53.3636 181.32 54.7955 181.32 56.6364C181.32 58.5 180.456 59.9773 178.774 59.9773C177.161 59.9773 176.274 58.6136 176.274 56.6364ZM188.371 61.1818C190.143 61.1818 191.439 60.2955 191.848 58.9773L190.553 58.6136C190.212 59.5227 189.422 59.9773 188.371 59.9773C186.797 59.9773 185.712 58.9602 185.649 57.0909H191.984V56.5227C191.984 53.2727 190.053 52.1591 188.234 52.1591C185.871 52.1591 184.303 54.0227 184.303 56.7045C184.303 59.3864 185.848 61.1818 188.371 61.1818ZM185.649 55.9318C185.74 54.5739 186.7 53.3636 188.234 53.3636C189.689 53.3636 190.621 54.4545 190.621 55.9318H185.649ZM197.683 61.1818C199.456 61.1818 200.751 60.2955 201.161 58.9773L199.865 58.6136C199.524 59.5227 198.734 59.9773 197.683 59.9773C196.109 59.9773 195.024 58.9602 194.962 57.0909H201.297V56.5227C201.297 53.2727 199.365 52.1591 197.547 52.1591C195.183 52.1591 193.615 54.0227 193.615 56.7045C193.615 59.3864 195.161 61.1818 197.683 61.1818ZM194.962 55.9318C195.053 54.5739 196.013 53.3636 197.547 53.3636C199.001 53.3636 199.933 54.4545 199.933 55.9318H194.962ZM204.678 55.75C204.678 54.2273 205.621 53.3636 206.905 53.3636C208.149 53.3636 208.905 54.1761 208.905 55.5455V61H210.246V55.4545C210.246 53.2273 209.058 52.1591 207.291 52.1591C205.973 52.1591 205.155 52.75 204.746 53.6364H204.632V52.2727H203.337V61H204.678V55.75ZM220.991 52.2727H219.128V50.1818H217.787V52.2727H216.469V53.4091H217.787V58.8636C217.787 60.3864 219.014 61.1136 220.151 61.1136C220.651 61.1136 220.969 61.0227 221.151 60.9545L220.878 59.75C220.764 59.7727 220.582 59.8182 220.287 59.8182C219.696 59.8182 219.128 59.6364 219.128 58.5V53.4091H220.991V52.2727ZM224.537 55.75C224.537 54.2273 225.509 53.3636 226.832 53.3636C228.094 53.3636 228.855 54.1591 228.855 55.5455V61H230.196V55.4545C230.196 53.2102 229.003 52.1591 227.219 52.1591C225.844 52.1591 225.06 52.733 224.651 53.6364H224.537V49.3636H223.196V61H224.537V55.75ZM236.308 61.1818C238.081 61.1818 239.376 60.2955 239.786 58.9773L238.49 58.6136C238.149 59.5227 237.359 59.9773 236.308 59.9773C234.734 59.9773 233.649 58.9602 233.587 57.0909H239.922V56.5227C239.922 53.2727 237.99 52.1591 236.172 52.1591C233.808 52.1591 232.24 54.0227 232.24 56.7045C232.24 59.3864 233.786 61.1818 236.308 61.1818ZM233.587 55.9318C233.678 54.5739 234.638 53.3636 236.172 53.3636C237.626 53.3636 238.558 54.4545 238.558 55.9318H233.587ZM1.22727 85H2.56818V76.2727H1.22727V85ZM1.90909 74.8182C2.43182 74.8182 2.86364 74.4091 2.86364 73.9091C2.86364 73.4091 2.43182 73 1.90909 73C1.38636 73 0.954545 73.4091 0.954545 73.9091C0.954545 74.4091 1.38636 74.8182 1.90909 74.8182ZM6.36506 79.75C6.36506 78.2273 7.30824 77.3636 8.59233 77.3636C9.83665 77.3636 10.5923 78.1761 10.5923 79.5455V85H11.9332V79.4545C11.9332 77.2273 10.7457 76.1591 8.97869 76.1591C7.66051 76.1591 6.84233 76.75 6.43324 77.6364H6.3196V76.2727H5.02415V85H6.36506V79.75ZM17.679 85.1818C19.3608 85.1818 19.929 84.1364 20.2244 83.6591H20.3835V85H21.679V73.3636H20.3381V77.6591H20.2244C19.929 77.2045 19.4062 76.1591 17.7017 76.1591C15.4972 76.1591 13.9744 77.9091 13.9744 80.6591C13.9744 83.4318 15.4972 85.1818 17.679 85.1818ZM17.8608 83.9773C16.179 83.9773 15.3153 82.5 15.3153 80.6364C15.3153 78.7955 16.1562 77.3636 17.8608 77.3636C19.4972 77.3636 20.3608 78.6818 20.3608 80.6364C20.3608 82.6136 19.4744 83.9773 17.8608 83.9773ZM29.821 81.4318C29.821 83.0682 28.571 83.8182 27.571 83.8182C26.4574 83.8182 25.6619 83 25.6619 81.7273V76.2727H24.321V81.8182C24.321 84.0455 25.5028 85.1136 27.1392 85.1136C28.4574 85.1136 29.321 84.4091 29.7301 83.5227H29.821V85H31.1619V76.2727H29.821V81.4318ZM39.7997 78.2273C39.3793 76.9886 38.4361 76.1591 36.7088 76.1591C34.8679 76.1591 33.5043 77.2045 33.5043 78.6818C33.5043 79.8864 34.2202 80.6932 35.8224 81.0682L37.277 81.4091C38.1577 81.6136 38.5724 82.0341 38.5724 82.6364C38.5724 83.3864 37.777 84 36.527 84C35.4304 84 34.7429 83.5284 34.5043 82.5909L33.2315 82.9091C33.544 84.392 34.7656 85.1818 36.5497 85.1818C38.5781 85.1818 39.9588 84.0739 39.9588 82.5682C39.9588 81.3523 39.1974 80.5852 37.6406 80.2045L36.3452 79.8864C35.3111 79.6307 34.8452 79.2841 34.8452 78.6136C34.8452 77.8636 35.6406 77.3182 36.7088 77.3182C37.8793 77.3182 38.3622 77.9659 38.5952 78.5682L39.7997 78.2273ZM45.7727 76.2727H43.9091V74.1818H42.5682V76.2727H41.25V77.4091H42.5682V82.8636C42.5682 84.3864 43.7955 85.1136 44.9318 85.1136C45.4318 85.1136 45.75 85.0227 45.9318 84.9545L45.6591 83.75C45.5455 83.7727 45.3636 83.8182 45.0682 83.8182C44.4773 83.8182 43.9091 83.6364 43.9091 82.5V77.4091H45.7727V76.2727ZM47.7898 85H49.1307V79.4773C49.1307 78.2955 50.0625 77.4318 51.3352 77.4318C51.6932 77.4318 52.0625 77.5 52.1534 77.5227V76.1591C52 76.1477 51.6477 76.1364 51.4489 76.1364C50.4034 76.1364 49.4943 76.7273 49.1761 77.5909H49.0852V76.2727H47.7898V85ZM54.8722 88.25C56.0824 88.25 56.9403 87.608 57.4403 86.2727L61.1562 76.2955L59.6903 76.2727L57.2812 83.2273H57.1903L54.7812 76.2727H53.3267L56.554 85.0455L56.304 85.7273C55.8267 87.0341 55.2131 87.1591 54.2358 86.9091L53.8949 88.0909C54.0312 88.1591 54.4176 88.25 54.8722 88.25ZM64.0895 73.3636H62.8395V77.3636H64.0895V73.3636ZM72.6591 78.2273C72.2386 76.9886 71.2955 76.1591 69.5682 76.1591C67.7273 76.1591 66.3636 77.2045 66.3636 78.6818C66.3636 79.8864 67.0795 80.6932 68.6818 81.0682L70.1364 81.4091C71.017 81.6136 71.4318 82.0341 71.4318 82.6364C71.4318 83.3864 70.6364 84 69.3864 84C68.2898 84 67.6023 83.5284 67.3636 82.5909L66.0909 82.9091C66.4034 84.392 67.625 85.1818 69.4091 85.1818C71.4375 85.1818 72.8182 84.0739 72.8182 82.5682C72.8182 81.3523 72.0568 80.5852 70.5 80.2045L69.2045 79.8864C68.1705 79.6307 67.7045 79.2841 67.7045 78.6136C67.7045 77.8636 68.5 77.3182 69.5682 77.3182C70.7386 77.3182 71.2216 77.9659 71.4545 78.5682L72.6591 78.2273ZM85.5185 78.2273C85.098 76.9886 84.1548 76.1591 82.4276 76.1591C80.5866 76.1591 79.223 77.2045 79.223 78.6818C79.223 79.8864 79.9389 80.6932 81.5412 81.0682L82.9957 81.4091C83.8764 81.6136 84.2912 82.0341 84.2912 82.6364C84.2912 83.3864 83.4957 84 82.2457 84C81.1491 84 80.4616 83.5284 80.223 82.5909L78.9503 82.9091C79.2628 84.392 80.4844 85.1818 82.2685 85.1818C84.2969 85.1818 85.6776 84.0739 85.6776 82.5682C85.6776 81.3523 84.9162 80.5852 83.3594 80.2045L82.0639 79.8864C81.0298 79.6307 80.5639 79.2841 80.5639 78.6136C80.5639 77.8636 81.3594 77.3182 82.4276 77.3182C83.598 77.3182 84.081 77.9659 84.3139 78.5682L85.5185 78.2273ZM91.4915 76.2727H89.6278V74.1818H88.2869V76.2727H86.9688V77.4091H88.2869V82.8636C88.2869 84.3864 89.5142 85.1136 90.6506 85.1136C91.1506 85.1136 91.4688 85.0227 91.6506 84.9545L91.3778 83.75C91.2642 83.7727 91.0824 83.8182 90.7869 83.8182C90.196 83.8182 89.6278 83.6364 89.6278 82.5V77.4091H91.4915V76.2727ZM96.0767 85.2045C97.5994 85.2045 98.3949 84.3864 98.6676 83.8182H98.7358V85H100.077V79.25C100.077 76.4773 97.9631 76.1591 96.8494 76.1591C95.5312 76.1591 94.0312 76.6136 93.3494 78.2045L94.6222 78.6591C94.9176 78.0227 95.6165 77.3409 96.8949 77.3409C98.1278 77.3409 98.7358 77.9943 98.7358 79.1136V79.1591C98.7358 79.8068 98.0767 79.75 96.4858 79.9545C94.8665 80.1648 93.0994 80.5227 93.0994 82.5227C93.0994 84.2273 94.4176 85.2045 96.0767 85.2045ZM96.2812 84C95.2131 84 94.4403 83.5227 94.4403 82.5909C94.4403 81.5682 95.3722 81.25 96.4176 81.1136C96.9858 81.0455 98.5085 80.8864 98.7358 80.6136V81.8409C98.7358 82.9318 97.8722 84 96.2812 84ZM103.865 79.75C103.865 78.2273 104.808 77.3636 106.092 77.3636C107.337 77.3636 108.092 78.1761 108.092 79.5455V85H109.433V79.4545C109.433 77.2273 108.246 76.1591 106.479 76.1591C105.161 76.1591 104.342 76.75 103.933 77.6364H103.82V76.2727H102.524V85H103.865V79.75ZM115.179 85.1818C116.861 85.1818 117.429 84.1364 117.724 83.6591H117.884V85H119.179V73.3636H117.838V77.6591H117.724C117.429 77.2045 116.906 76.1591 115.202 76.1591C112.997 76.1591 111.474 77.9091 111.474 80.6591C111.474 83.4318 112.997 85.1818 115.179 85.1818ZM115.361 83.9773C113.679 83.9773 112.815 82.5 112.815 80.6364C112.815 78.7955 113.656 77.3636 115.361 77.3636C116.997 77.3636 117.861 78.6818 117.861 80.6364C117.861 82.6136 116.974 83.9773 115.361 83.9773ZM124.389 85.2045C125.912 85.2045 126.707 84.3864 126.98 83.8182H127.048V85H128.389V79.25C128.389 76.4773 126.276 76.1591 125.162 76.1591C123.844 76.1591 122.344 76.6136 121.662 78.2045L122.935 78.6591C123.23 78.0227 123.929 77.3409 125.207 77.3409C126.44 77.3409 127.048 77.9943 127.048 79.1136V79.1591C127.048 79.8068 126.389 79.75 124.798 79.9545C123.179 80.1648 121.412 80.5227 121.412 82.5227C121.412 84.2273 122.73 85.2045 124.389 85.2045ZM124.594 84C123.526 84 122.753 83.5227 122.753 82.5909C122.753 81.5682 123.685 81.25 124.73 81.1136C125.298 81.0455 126.821 80.8864 127.048 80.6136V81.8409C127.048 82.9318 126.185 84 124.594 84ZM130.837 85H132.178V79.4773C132.178 78.2955 133.109 77.4318 134.382 77.4318C134.74 77.4318 135.109 77.5 135.2 77.5227V76.1591C135.047 76.1477 134.695 76.1364 134.496 76.1364C133.45 76.1364 132.541 76.7273 132.223 77.5909H132.132V76.2727H130.837V85ZM139.82 85.1818C141.501 85.1818 142.07 84.1364 142.365 83.6591H142.524V85H143.82V73.3636H142.479V77.6591H142.365C142.07 77.2045 141.547 76.1591 139.842 76.1591C137.638 76.1591 136.115 77.9091 136.115 80.6591C136.115 83.4318 137.638 85.1818 139.82 85.1818ZM140.001 83.9773C138.32 83.9773 137.456 82.5 137.456 80.6364C137.456 78.7955 138.297 77.3636 140.001 77.3636C141.638 77.3636 142.501 78.6818 142.501 80.6364C142.501 82.6136 141.615 83.9773 140.001 83.9773Z" fill="white"/>
</svg>
