<svg width="327" height="107" viewBox="0 0 327 107" fill="none" xmlns="http://www.w3.org/2000/svg">
<g clip-path="url(#clip0_48_64)">
<path d="M19.04 56H16.4C16 56 15.72 55.8133 15.56 55.44L7.8 35.72V52.84H10.32C10.72 52.84 10.92 53.04 10.92 53.44V55.4C10.92 55.8 10.72 56 10.32 56H2.2C1.8 56 1.6 55.8 1.6 55.4V53.44C1.6 53.04 1.8 52.84 2.2 52.84H4.32V32.08H2.2C1.8 32.08 1.6 31.88 1.6 31.48V29.44C1.6 29.04 1.8 28.84 2.2 28.84H9.2C9.62667 28.84 9.89333 29.0267 10 29.4L18.24 50.88L26.68 29.4C26.7867 29.0267 27.0533 28.84 27.48 28.84H34.16C34.56 28.84 34.76 29.04 34.76 29.44V31.48C34.76 31.88 34.56 32.08 34.16 32.08H32.04V52.84H34.16C34.56 52.84 34.76 53.04 34.76 53.44V55.4C34.76 55.8 34.56 56 34.16 56H25.36C24.96 56 24.76 55.8 24.76 55.4V53.44C24.76 53.04 24.96 52.84 25.36 52.84H27.76V35.76L19.88 55.44C19.72 55.8133 19.44 56 19.04 56ZM42.9672 36.76L47.6472 51.32L51.8072 39.48H49.7672C49.3672 39.48 49.1672 39.28 49.1672 38.88V36.8C49.1672 36.4 49.3672 36.2 49.7672 36.2H55.6072C55.9272 36.2 56.1405 36.2933 56.2472 36.48C56.3539 36.6667 56.4072 36.84 56.4072 37C56.4072 37.1333 56.3805 37.2667 56.3272 37.4L47.7672 59.76C47.3672 60.7733 47.0205 61.5467 46.7272 62.08C46.4605 62.64 46.0739 63.2267 45.5672 63.84C44.5805 65.0133 43.1272 65.6 41.2072 65.6C39.2872 65.6 37.7139 65.3067 36.4872 64.72C36.2739 64.6133 36.1672 64.48 36.1672 64.32C36.1672 64.16 36.1805 64.04 36.2072 63.96L36.8872 62C36.9939 61.6533 37.2472 61.5333 37.6472 61.64C38.9272 62.0667 39.9672 62.28 40.7672 62.28C41.5939 62.28 42.2205 62.0667 42.6472 61.64C43.1005 61.24 43.5672 60.3867 44.0472 59.08L45.0472 56.44L38.9672 39.48H36.9672C36.5672 39.48 36.3672 39.28 36.3672 38.88V36.8C36.3672 36.4 36.5672 36.2 36.9672 36.2H42.2072C42.6072 36.2 42.8605 36.3867 42.9672 36.76ZM66.7172 55.4V53.44C66.7172 53.04 66.9172 52.84 67.3172 52.84H69.3972V32.04H67.3172C66.9172 32.04 66.7172 31.84 66.7172 31.44V29.44C66.7172 29.04 66.9172 28.84 67.3172 28.84C70.7305 28.68 73.5705 28.6 75.8372 28.6C82.7705 28.6 86.2372 31.08 86.2372 36.04C86.2372 37.7733 85.7972 39.3067 84.9172 40.64C84.0372 41.9467 82.8639 42.9467 81.3972 43.64L86.0772 52.84H88.5572C88.9572 52.84 89.1572 53.04 89.1572 53.44V55.4C89.1572 55.8 88.9572 56 88.5572 56H83.2772C82.8772 56 82.5839 55.8267 82.3972 55.48L76.9572 44.72H76.1572C75.3039 44.72 74.5439 44.68 73.8772 44.6V52.84H76.3972C76.7972 52.84 76.9972 53.04 76.9972 53.44V55.4C76.9972 55.8 76.7972 56 76.3972 56H67.3172C66.9172 56 66.7172 55.8 66.7172 55.4ZM73.8772 31.92V41.56C74.0905 41.5867 74.3972 41.6 74.7972 41.6C76.9572 41.6 78.6372 41.1733 79.8372 40.32C81.0372 39.4667 81.6372 38.1867 81.6372 36.48C81.6372 33.44 79.5305 31.92 75.3172 31.92H73.8772ZM100.366 56.48C97.1923 56.48 94.859 55.56 93.3656 53.72C91.899 51.8533 91.1656 49.4 91.1656 46.36C91.1656 43.2933 91.9523 40.76 93.5256 38.76C95.099 36.76 97.3656 35.76 100.326 35.76C101.792 35.76 103.046 36.04 104.086 36.6C105.152 37.1333 105.966 37.8667 106.526 38.8C107.592 40.6133 108.126 42.7067 108.126 45.08C108.126 46.2 108.072 46.8133 107.966 46.92C107.859 47.0267 107.659 47.08 107.366 47.08H95.6056C95.739 49 96.2056 50.4933 97.0056 51.56C97.8323 52.6 99.2456 53.12 101.246 53.12C102.712 53.12 104.219 52.7733 105.766 52.08C106.139 51.8933 106.406 52 106.566 52.4L107.326 54.24C107.459 54.56 107.339 54.8267 106.966 55.04C105.206 56 103.006 56.48 100.366 56.48ZM95.6056 44.12H103.926C103.979 40.7867 102.672 39.12 100.006 39.12C98.4323 39.12 97.3123 39.6267 96.6456 40.64C96.0056 41.6267 95.659 42.7867 95.6056 44.12ZM115.296 45.84C115.296 50.6933 117.176 53.12 120.936 53.12C122.136 53.12 123.536 52.76 125.136 52.04C125.536 51.88 125.816 52 125.976 52.4L126.696 54.16C126.829 54.5333 126.723 54.8133 126.376 55C124.749 55.9867 122.696 56.48 120.216 56.48C116.989 56.48 114.603 55.5733 113.056 53.76C111.509 51.92 110.736 49.44 110.736 46.32C110.736 43.1733 111.523 40.6267 113.096 38.68C114.696 36.7333 117.069 35.76 120.216 35.76C122.616 35.76 124.389 36.4133 125.536 37.72C126.683 39.0267 127.256 40.6933 127.256 42.72C127.256 43.0667 127.029 43.24 126.576 43.24H124.176C123.749 43.24 123.523 43.04 123.496 42.64C123.363 40.2933 122.176 39.12 119.936 39.12C118.336 39.12 117.163 39.68 116.416 40.8C115.669 41.8933 115.296 43.5733 115.296 45.84ZM138.647 56.48C135.474 56.48 133.14 55.56 131.647 53.72C130.18 51.8533 129.447 49.4 129.447 46.36C129.447 43.2933 130.234 40.76 131.807 38.76C133.38 36.76 135.647 35.76 138.607 35.76C140.074 35.76 141.327 36.04 142.367 36.6C143.434 37.1333 144.247 37.8667 144.807 38.8C145.874 40.6133 146.407 42.7067 146.407 45.08C146.407 46.2 146.354 46.8133 146.247 46.92C146.14 47.0267 145.94 47.08 145.647 47.08H133.887C134.02 49 134.487 50.4933 135.287 51.56C136.114 52.6 137.527 53.12 139.527 53.12C140.994 53.12 142.5 52.7733 144.047 52.08C144.42 51.8933 144.687 52 144.847 52.4L145.607 54.24C145.74 54.56 145.62 54.8267 145.247 55.04C143.487 56 141.287 56.48 138.647 56.48ZM133.887 44.12H142.207C142.26 40.7867 140.954 39.12 138.287 39.12C136.714 39.12 135.594 39.6267 134.927 40.64C134.287 41.6267 133.94 42.7867 133.887 44.12ZM148.617 38.92V36.8C148.617 36.4 148.817 36.2 149.217 36.2H154.657C155.004 36.2 155.217 36.4 155.297 36.8L155.657 39.12C157.151 36.88 159.284 35.76 162.057 35.76C166.191 35.76 168.257 38.0267 168.257 42.56V52.84H170.577C170.977 52.84 171.177 53.04 171.177 53.44V55.4C171.177 55.8 170.977 56 170.577 56H161.857C161.457 56 161.257 55.8 161.257 55.4V53.44C161.257 53.04 161.457 52.84 161.857 52.84H163.777V44.56C163.777 42.88 163.564 41.6533 163.137 40.88C162.711 40.1067 161.831 39.72 160.497 39.72C159.164 39.72 158.057 40.12 157.177 40.92C156.297 41.72 155.857 42.6267 155.857 43.64V52.84H158.337C158.737 52.84 158.937 53.04 158.937 53.44V55.4C158.937 55.8 158.737 56 158.337 56H149.257C148.857 56 148.657 55.8 148.657 55.4V53.44C148.657 53.04 148.857 52.84 149.257 52.84H151.377V39.48H149.217C148.817 39.48 148.617 39.2933 148.617 38.92ZM179.718 39.48V49.56C179.718 50.8133 179.878 51.72 180.198 52.28C180.518 52.84 181.118 53.12 181.998 53.12C182.878 53.12 183.731 52.9333 184.558 52.56C184.851 52.4533 185.064 52.56 185.198 52.88L185.918 54.72C185.944 54.8 185.958 54.92 185.958 55.08C185.958 55.2133 185.824 55.36 185.558 55.52C184.278 56.16 182.758 56.48 180.998 56.48C178.624 56.48 177.064 55.8667 176.318 54.64C175.784 53.84 175.478 53.0667 175.398 52.32C175.291 51.3067 175.238 50.24 175.238 49.12V39.48H172.958C172.558 39.48 172.358 39.28 172.358 38.88V36.8C172.358 36.4 172.558 36.2 172.958 36.2H175.238V30.8C175.238 30.4 175.438 30.2 175.838 30.2H179.118C179.518 30.2 179.718 30.4 179.718 30.8V36.2H183.758C184.158 36.2 184.358 36.4 184.358 36.8V38.88C184.358 39.28 184.158 39.48 183.758 39.48H179.718ZM203.171 55.4L197.411 32.08H195.331C194.931 32.08 194.731 31.88 194.731 31.48V29.44C194.731 29.04 194.931 28.84 195.331 28.84H205.331C205.731 28.84 205.931 29.04 205.931 29.44V31.48C205.931 31.88 205.731 32.08 205.331 32.08H202.491L206.771 50.68L212.611 29.4C212.718 29.0267 212.971 28.84 213.371 28.84H216.651C217.051 28.84 217.305 29.0267 217.411 29.4L223.211 50.8L227.811 32.08H225.171C224.771 32.08 224.571 31.88 224.571 31.48V29.44C224.571 29.04 224.771 28.84 225.171 28.84H233.611C234.011 28.84 234.211 29.04 234.211 29.44V31.48C234.211 31.88 234.011 32.08 233.611 32.08H231.491L225.331 55.4C225.225 55.8 224.971 56 224.571 56H220.811C220.411 56 220.158 55.8133 220.051 55.44L214.451 35.52L209.091 55.44C208.985 55.8133 208.731 56 208.331 56H203.931C203.531 56 203.278 55.8 203.171 55.4ZM235.814 46.4C235.814 44.4 236.121 42.6667 236.734 41.2C237.347 39.7333 238.147 38.6267 239.134 37.88C241.027 36.4667 243.081 35.76 245.294 35.76C246.921 35.76 248.294 36.0133 249.414 36.52C250.534 37.0267 251.401 37.6133 252.014 38.28C252.654 38.9467 253.187 39.9067 253.614 41.16C254.067 42.4133 254.294 43.88 254.294 45.56C254.294 49.1333 253.387 51.8533 251.574 53.72C249.787 55.56 247.494 56.48 244.694 56.48C241.894 56.48 239.707 55.64 238.134 53.96C236.587 52.2533 235.814 49.7333 235.814 46.4ZM245.014 53.2C246.614 53.2 247.774 52.6133 248.494 51.44C249.241 50.24 249.614 48.4667 249.614 46.12C249.614 43.7733 249.241 42.0133 248.494 40.84C247.774 39.64 246.587 39.04 244.934 39.04C241.867 39.04 240.334 41.2 240.334 45.52C240.334 50.64 241.894 53.2 245.014 53.2ZM263.703 39.64C264.156 38.5733 264.89 37.6667 265.903 36.92C266.916 36.1467 268.023 35.76 269.223 35.76C270.423 35.76 271.343 35.8667 271.983 36.08C272.303 36.1867 272.463 36.4267 272.463 36.8V42.2C272.463 42.6 272.263 42.8 271.863 42.8H269.263C268.863 42.8 268.676 42.6 268.703 42.2L268.863 39.88C268.73 39.8533 268.503 39.84 268.183 39.84C266.956 39.84 265.943 40.3467 265.143 41.36C264.343 42.3467 263.943 43.68 263.943 45.36V52.84H268.343C268.743 52.84 268.943 53.04 268.943 53.44V55.4C268.943 55.8 268.743 56 268.343 56H257.343C256.943 56 256.743 55.8 256.743 55.4V53.44C256.743 53.04 256.943 52.84 257.343 52.84H259.463V39.48H257.303C256.903 39.48 256.703 39.28 256.703 38.88V36.8C256.703 36.4 256.903 36.2 257.303 36.2H262.583C262.956 36.2 263.183 36.4 263.263 36.8L263.703 39.64ZM281.99 26.76V42.72H284.03L290.23 36.64C290.523 36.3467 290.87 36.2 291.27 36.2H294.39C294.79 36.2 294.99 36.4 294.99 36.8V38.88C294.99 39.28 294.79 39.48 294.39 39.48H291.95L287.55 43.76L293.03 52.84H295.39C295.79 52.84 295.99 53.04 295.99 53.44V55.4C295.99 55.8 295.79 56 295.39 56H290.23C289.857 56 289.55 55.8267 289.31 55.48L283.31 45.8H281.99V52.84H284.11C284.51 52.84 284.71 53.04 284.71 53.44V55.4C284.71 55.8 284.51 56 284.11 56H275.39C274.99 56 274.79 55.8 274.79 55.4V53.44C274.79 53.04 274.99 52.84 275.39 52.84H277.51V29.4H275.35C274.95 29.4 274.75 29.2 274.75 28.8V26.76C274.75 26.36 274.95 26.16 275.35 26.16H281.39C281.79 26.16 281.99 26.36 281.99 26.76ZM298.646 41.92C298.646 40.16 299.326 38.6933 300.686 37.52C302.046 36.3467 303.766 35.76 305.846 35.76C307.926 35.76 309.726 36 311.246 36.48C311.62 36.5867 311.806 36.8267 311.806 37.2V41.44C311.806 41.84 311.606 42.04 311.206 42.04H308.886C308.46 42.04 308.286 41.84 308.366 41.44L308.566 39.4C307.766 38.9733 306.886 38.76 305.926 38.76C303.793 38.76 302.726 39.5067 302.726 41C302.726 41.7733 303.073 42.3867 303.766 42.84C304.46 43.2933 305.3 43.6667 306.286 43.96C307.273 44.2267 308.26 44.5467 309.246 44.92C310.26 45.2667 311.113 45.88 311.806 46.76C312.5 47.6133 312.846 48.7067 312.846 50.04C312.846 52.0667 312.14 53.6533 310.726 54.8C309.313 55.92 307.326 56.48 304.766 56.48C302.98 56.48 301.1 56.2133 299.126 55.68C298.78 55.5733 298.606 55.32 298.606 54.92V50.68C298.606 50.28 298.806 50.08 299.206 50.08H301.526C301.926 50.08 302.113 50.28 302.086 50.68L301.966 52.76C302.686 53.2933 303.713 53.56 305.046 53.56C307.42 53.56 308.606 52.72 308.606 51.04C308.606 50.1867 308.26 49.52 307.566 49.04C306.9 48.5333 306.073 48.1467 305.086 47.88C304.126 47.6133 303.153 47.32 302.166 47C301.18 46.6533 300.34 46.0667 299.646 45.24C298.98 44.3867 298.646 43.28 298.646 41.92Z" fill="#1C1A19"/>
<path d="M327 107L0 107" stroke="#212121"/>
</g>
<defs>
<clipPath id="clip0_48_64">
<rect width="327" height="107" fill="white"/>
</clipPath>
</defs>
</svg>
